<?xml version="1.0" encoding="UTF-8" standalone="no"?>
<!DOCTYPE svg PUBLIC "-//W3C//DTD SVG 1.1//EN" "http://www.w3.org/Graphics/SVG/1.1/DTD/svg11.dtd">
<svg xmlns="http://www.w3.org/2000/svg" version="1.1" viewBox="0.00 0.00 1254.00 1254.00">
<path fill="#c2a479" d="
  M 815.79 204.57
  C 793.62 214.53 771.61 223.49 749.23 233.02
  Q 710.14 249.67 650.36 274.56
  A 1.44 1.43 -11.5 0 0 649.48 275.88
  L 649.48 697.07
  A 0.42 0.42 0.0 0 1 649.06 697.49
  L 626.34 697.49
  A 1.10 1.10 0.0 0 1 625.24 696.39
  L 625.24 124.39
  A 0.41 0.40 11.3 0 1 625.80 124.02
  Q 642.81 130.80 664.17 140.01
  Q 671.42 143.14 672.54 143.57
  Q 686.66 148.92 691.16 151.11
  C 699.53 155.18 710.38 159.23 718.50 162.71
  Q 743.32 173.35 775.77 187.00
  Q 785.75 191.20 788.74 192.39
  C 798.83 196.43 807.84 200.62 815.79 203.98
  A 0.32 0.32 0.0 0 1 815.79 204.57
  Z
  M 757.23 204.42
  A 0.68 0.68 0.0 0 0 757.23 203.17
  L 650.43 159.27
  A 0.68 0.68 0.0 0 0 649.49 159.89
  L 649.49 248.73
  A 0.68 0.68 0.0 0 0 650.43 249.35
  L 757.23 204.42
  Z"
/>
<path fill="#f4f0e8" d="
  M 583.55 402.33
  A 0.42 0.42 0.0 0 1 582.92 402.70
  L 555.96 387.13
  A 1.70 1.68 15.2 0 1 555.11 385.67
  L 555.11 334.72
  A 0.75 0.74 89.3 0 0 554.35 333.97
  Q 551.71 334.04 482.73 334.03
  Q 474.30 334.03 471.80 335.52
  C 466.40 338.74 465.60 342.93 465.60 349.54
  Q 465.61 388.42 465.57 389.79
  C 465.34 396.74 466.72 401.88 472.50 405.27
  Q 502.72 422.99 561.33 456.51
  Q 571.26 462.19 574.09 465.36
  Q 579.61 471.53 582.21 479.54
  Q 583.71 484.17 583.63 493.59
  Q 583.46 513.96 583.59 587.51
  Q 583.62 598.55 582.06 602.80
  C 577.12 616.30 562.57 622.19 549.41 616.14
  Q 498.20 592.58 461.41 577.04
  Q 453.72 573.80 450.33 570.91
  Q 437.72 560.20 437.57 543.47
  Q 437.47 532.81 437.47 487.18
  A 0.31 0.31 0.0 0 1 437.93 486.91
  L 464.83 501.66
  A 1.38 1.36 14.4 0 1 465.55 502.86
  Q 465.58 517.89 465.56 534.50
  C 465.55 541.80 467.23 547.25 474.51 550.52
  Q 509.25 566.11 552.52 585.05
  A 1.80 1.79 -78.1 0 0 555.03 583.41
  Q 555.19 549.89 555.14 504.41
  Q 555.13 492.77 554.62 491.17
  C 552.53 484.63 548.98 483.30 542.15 479.28
  Q 505.93 457.96 462.62 433.44
  Q 451.11 426.92 447.54 423.11
  Q 441.12 416.24 438.65 407.71
  Q 437.50 403.75 437.49 389.87
  Q 437.47 360.00 437.53 340.00
  C 437.56 331.49 440.32 323.47 446.03 317.02
  Q 456.43 305.28 473.99 305.30
  Q 527.79 305.37 583.09 305.34
  A 0.46 0.46 0.0 0 1 583.55 305.80
  L 583.55 402.33
  Z"
/>
<path fill="#f4f0e8" d="
  M 693.94 618.35
  A 0.36 0.36 0.0 0 1 693.38 618.05
  L 693.38 305.96
  A 0.65 0.65 0.0 0 1 694.03 305.31
  Q 753.81 305.35 809.26 305.32
  C 824.20 305.31 836.87 315.93 841.19 329.87
  Q 842.86 335.27 842.66 348.40
  Q 842.49 359.41 842.63 392.02
  Q 842.69 406.81 841.10 411.31
  Q 838.31 419.15 833.20 424.99
  Q 830.51 428.07 820.74 433.68
  Q 786.35 453.45 767.15 464.44
  C 752.37 472.90 738.17 480.94 723.14 489.73
  A 1.59 1.58 -15.2 0 0 722.35 491.10
  L 722.35 599.67
  A 0.61 0.60 -17.1 0 1 722.08 600.17
  L 693.94 618.35
  Z
  M 722.98 456.38
  Q 763.96 432.23 801.02 410.51
  Q 803.75 408.91 806.62 407.13
  C 811.90 403.84 814.33 399.62 814.36 393.49
  Q 814.48 366.30 814.43 346.99
  Q 814.41 339.13 808.30 335.60
  Q 805.11 333.75 794.91 334.06
  Q 794.72 334.07 722.88 334.06
  A 0.53 0.52 0.0 0 0 722.35 334.58
  L 722.35 456.03
  A 0.42 0.41 -15.5 0 0 722.98 456.38
  Z"
/>
<path fill="#c2a479" d="
  M 673.94 661.49
  L 673.94 652.13
  A 0.73 0.73 0.0 0 1 674.73 651.40
  C 680.63 651.92 685.73 652.20 691.73 653.10
  Q 696.70 653.85 705.30 655.27
  C 719.55 657.61 733.30 661.61 746.62 666.89
  Q 758.86 671.74 768.56 679.93
  Q 770.47 681.54 773.27 686.02
  C 778.61 694.56 775.43 703.97 768.15 710.42
  C 760.19 717.48 749.97 722.35 739.80 725.68
  C 717.52 732.96 694.53 736.65 671.50 738.49
  Q 668.88 738.70 649.25 739.39
  Q 615.10 740.60 580.51 736.05
  Q 552.65 732.38 527.35 722.94
  Q 522.17 721.00 512.15 715.15
  C 506.21 711.68 498.81 704.20 498.28 696.73
  C 497.38 684.03 509.07 676.34 518.93 670.82
  Q 521.90 669.16 526.56 667.27
  Q 542.69 660.74 561.24 656.77
  Q 567.30 655.47 578.24 653.77
  Q 590.66 651.84 600.49 651.41
  A 0.39 0.39 0.0 0 1 600.90 651.80
  L 600.90 661.95
  A 0.71 0.70 -3.2 0 1 600.27 662.65
  C 593.93 663.34 584.58 664.26 577.71 665.54
  Q 562.45 668.38 548.69 673.17
  Q 537.00 677.23 529.14 684.60
  Q 525.02 688.46 525.45 694.53
  C 526.30 706.62 554.85 714.24 564.11 716.40
  Q 569.70 717.71 584.84 719.95
  Q 594.34 721.37 605.73 722.15
  Q 628.56 723.72 653.87 723.10
  C 670.32 722.69 685.67 721.04 700.94 718.41
  Q 715.68 715.87 729.77 710.52
  C 735.76 708.24 747.16 702.49 748.65 696.02
  C 749.91 690.50 747.76 686.16 743.15 682.60
  Q 735.35 676.58 726.77 673.44
  C 714.03 668.78 699.65 665.43 685.23 663.72
  Q 675.94 662.62 674.73 662.42
  A 0.94 0.94 0.0 0 1 673.94 661.49
  Z"
/>
<path fill="#f4f0e8" d="
  M 590.84 912.29
  A 1.29 1.29 0.0 0 1 590.55 914.83
  L 562.19 914.83
  A 0.89 0.88 -85.3 0 1 561.32 913.80
  Q 561.81 910.82 559.62 908.14
  Q 545.66 891.06 529.48 870.34
  A 0.92 0.91 54.2 0 0 528.26 870.14
  L 524.73 872.42
  A 1.37 1.36 73.9 0 0 524.10 873.57
  Q 524.12 889.20 524.08 893.79
  C 523.99 903.01 523.33 911.10 533.67 912.38
  A 1.26 1.26 0.0 0 1 534.77 913.63
  L 534.77 913.95
  A 0.84 0.83 90.0 0 1 533.94 914.79
  L 498.12 914.79
  A 0.74 0.73 -90.0 0 1 497.39 914.05
  L 497.39 913.62
  A 1.27 1.26 86.4 0 1 498.49 912.36
  Q 507.22 911.19 507.79 901.99
  Q 508.05 897.88 508.04 891.00
  Q 507.99 807.68 508.04 800.00
  Q 508.10 789.37 497.91 787.70
  A 1.28 1.27 10.0 0 1 496.85 786.20
  Q 497.07 785.03 498.43 784.86
  C 506.57 783.81 515.90 783.16 523.35 777.72
  A 0.48 0.48 0.0 0 1 524.12 778.11
  L 524.12 867.47
  A 0.39 0.39 0.0 0 0 524.76 867.76
  Q 543.25 851.55 554.72 840.97
  Q 556.71 839.13 557.43 837.95
  C 560.64 832.68 555.21 831.69 551.66 830.88
  A 1.33 1.33 0.0 0 1 551.95 828.26
  L 584.06 828.26
  A 0.95 0.95 0.0 0 1 585.01 829.21
  L 585.01 830.08
  A 1.16 1.16 0.0 0 1 584.01 831.23
  C 576.18 832.30 569.64 837.02 563.85 842.10
  Q 555.21 849.69 542.26 861.16
  A 0.77 0.75 -41.2 0 0 542.18 862.22
  Q 555.35 877.66 566.27 890.97
  C 569.79 895.26 574.53 900.19 577.48 903.84
  C 581.38 908.67 585.53 911.06 590.84 912.29
  Z"
/>
<path fill="#f4f0e8" d="
  M 302.25 790.82
  L 302.25 815.45
  A 1.43 1.43 0.0 0 1 299.52 816.04
  C 295.12 806.28 290.05 795.42 279.88 790.37
  Q 266.87 783.90 253.02 790.16
  Q 246.67 793.02 243.82 799.92
  C 237.46 815.29 245.21 825.29 257.90 832.60
  Q 264.28 836.28 279.81 843.94
  C 286.54 847.26 295.02 851.94 299.78 857.34
  C 307.10 865.66 310.02 876.72 307.73 887.58
  C 303.79 906.30 287.54 915.97 269.21 917.14
  Q 246.24 918.61 225.33 908.51
  A 0.85 0.84 12.9 0 1 224.85 907.75
  L 224.85 882.30
  A 1.53 1.53 0.0 0 1 227.80 881.73
  Q 230.73 889.04 234.88 895.36
  C 240.54 903.98 253.11 910.78 263.90 910.82
  C 271.60 910.85 278.23 909.72 284.23 904.98
  C 289.28 900.99 292.19 895.70 292.76 889.16
  C 294.06 874.40 282.65 868.01 271.01 862.52
  Q 258.02 856.39 248.89 851.61
  Q 242.43 848.23 237.53 843.71
  C 227.13 834.13 224.15 818.77 228.60 805.57
  C 234.46 788.21 250.50 780.46 268.04 780.80
  Q 285.55 781.14 301.46 789.51
  A 1.49 1.48 14.1 0 1 302.25 790.82
  Z"
/>
<path fill="#f4f0e8" d="
  M 706.89 860.78
  A 0.45 0.44 -83.6 0 0 706.36 861.21
  Q 706.20 880.48 706.27 899.23
  C 706.31 908.53 709.59 910.49 718.06 912.24
  Q 719.23 912.48 718.89 913.99
  A 0.97 0.96 -83.6 0 1 717.95 914.75
  L 677.84 914.75
  A 1.44 1.44 0.0 0 1 676.65 914.12
  L 676.44 913.82
  A 0.93 0.93 0.0 0 1 677.05 912.42
  Q 688.48 910.12 688.53 900.09
  Q 688.86 833.48 688.55 799.50
  C 688.48 792.20 685.10 786.56 677.25 785.99
  A 1.10 1.10 0.0 0 1 676.22 784.89
  L 676.22 783.84
  A 1.25 1.25 0.0 0 1 677.48 782.59
  Q 686.51 782.68 728.99 782.64
  C 752.08 782.63 773.92 794.11 775.24 819.72
  Q 775.80 830.68 771.10 840.56
  C 762.92 857.75 742.28 864.13 724.07 863.12
  Q 715.96 862.67 706.89 860.78
  Z
  M 706.25 789.52
  L 706.25 853.49
  A 0.49 0.48 -82.2 0 0 706.60 853.96
  C 726.76 859.95 749.11 856.85 754.84 833.10
  Q 757.87 820.59 753.82 808.79
  C 749.59 796.45 737.43 788.98 724.49 789.13
  Q 713.06 789.26 706.68 789.11
  A 0.42 0.41 0.7 0 0 706.25 789.52
  Z"
/>
<circle fill="#f4f0e8" cx="469.93" cy="799.51" r="10.98"/>
<circle fill="#f4f0e8" cx="890.75" cy="799.48" r="10.98"/>
<path fill="#f4f0e8" d="
  M 370.92 828.12
  A 0.72 0.72 0.0 0 1 371.64 828.84
  L 371.64 834.12
  A 1.11 1.11 0.0 0 1 370.53 835.23
  L 345.26 835.23
  A 0.70 0.70 0.0 0 0 344.56 835.92
  Q 344.37 864.44 344.61 891.50
  C 344.67 897.89 345.74 904.11 352.53 906.20
  C 359.22 908.26 366.12 904.87 371.04 900.05
  A 0.75 0.74 -38.3 0 1 372.19 900.18
  L 373.11 901.60
  A 0.82 0.81 -45.9 0 1 373.12 902.47
  Q 367.78 910.86 358.66 914.42
  C 347.27 918.86 333.68 915.80 329.23 903.30
  Q 327.71 899.04 327.80 889.17
  Q 327.89 878.27 327.79 836.11
  A 0.86 0.86 0.0 0 0 326.93 835.25
  L 315.65 835.25
  A 0.89 0.89 0.0 0 1 314.87 833.93
  L 317.40 829.31
  A 2.25 2.24 -75.6 0 1 319.37 828.14
  L 326.68 828.14
  A 1.09 1.09 0.0 0 0 327.64 827.57
  L 341.63 802.03
  A 1.56 1.56 0.0 0 1 344.55 802.78
  L 344.55 827.64
  A 0.48 0.48 0.0 0 0 345.03 828.12
  L 370.92 828.12
  Z"
/>
<path fill="#f4f0e8" d="
  M 1071.15 835.18
  L 1046.11 835.18
  A 0.69 0.69 0.0 0 0 1045.42 835.87
  Q 1045.37 842.91 1045.30 888.17
  C 1045.28 897.68 1045.74 905.77 1056.21 906.69
  C 1061.58 907.17 1067.09 904.13 1070.55 900.20
  A 0.75 0.75 0.0 0 1 1071.75 900.29
  L 1072.77 901.88
  A 1.04 1.02 -45.4 0 1 1072.77 903.01
  C 1067.37 911.37 1058.78 916.62 1048.54 916.38
  C 1039.88 916.18 1032.87 910.72 1029.97 902.84
  Q 1028.74 899.50 1028.76 889.43
  Q 1028.80 870.96 1028.66 835.79
  A 0.56 0.55 -90.0 0 0 1028.11 835.23
  L 1015.65 835.23
  A 0.28 0.27 11.2 0 1 1015.39 834.85
  L 1017.98 828.55
  A 0.56 0.56 0.0 0 1 1018.50 828.20
  L 1027.15 828.20
  A 0.93 0.93 0.0 0 0 1027.95 827.74
  L 1042.66 802.29
  A 1.48 1.48 0.0 0 1 1045.31 802.46
  Q 1045.33 802.51 1045.33 803.25
  Q 1045.33 814.62 1045.36 827.60
  A 0.58 0.57 -0.0 0 0 1045.94 828.17
  L 1071.08 828.17
  A 0.68 0.68 0.0 0 1 1071.76 828.85
  L 1071.76 834.56
  A 0.62 0.61 90.0 0 1 1071.15 835.18
  Z"
/>
<path fill="#f4f0e8" d="
  M 667.08 867.17
  A 0.94 0.93 -87.3 0 1 666.15 868.02
  L 606.70 868.02
  A 0.54 0.53 1.1 0 0 606.16 868.53
  C 605.75 879.48 609.61 891.90 617.85 898.91
  C 632.16 911.09 653.94 907.57 664.37 892.30
  A 1.13 1.12 45.8 0 1 666.24 892.33
  L 667.10 893.65
  A 1.51 1.50 42.9 0 1 667.16 895.16
  Q 656.00 916.38 631.81 916.56
  C 610.87 916.71 596.03 904.05 591.54 883.99
  C 588.74 871.50 591.20 854.61 598.79 844.10
  Q 610.15 828.36 628.97 826.95
  Q 634.34 826.54 641.71 828.18
  C 654.94 831.11 663.97 843.19 666.17 856.20
  C 666.70 859.30 667.40 863.78 667.08 867.17
  Z
  M 649.83 861.51
  A 0.41 0.40 0.7 0 0 650.24 861.12
  Q 650.30 854.67 648.72 848.28
  C 646.61 839.73 639.67 832.39 630.49 832.61
  C 614.44 833.00 608.01 847.27 606.50 861.00
  A 0.46 0.46 0.0 0 0 606.96 861.51
  L 649.83 861.51
  Z"
/>
<path fill="#f4f0e8" d="
  M 863.89 874.51
  C 862.43 897.70 845.92 915.70 822.26 916.60
  C 812.42 916.98 802.80 915.06 794.64 909.24
  C 781.43 899.83 775.81 885.35 776.84 868.98
  C 778.29 845.80 794.80 827.80 818.47 826.89
  C 828.30 826.52 837.92 828.44 846.09 834.25
  C 859.29 843.67 864.91 858.15 863.89 874.51
  Z
  M 793.57 874.20
  C 794.96 890.23 803.46 912.82 823.73 911.06
  C 844.00 909.31 848.49 885.60 847.10 869.57
  C 845.71 853.53 837.21 830.95 816.94 832.70
  C 796.67 834.46 792.18 858.17 793.57 874.20
  Z"
/>
<path fill="#f4f0e8" d="
  M 945.22 842.65
  A 0.32 0.32 0.0 0 0 945.80 842.85
  C 950.98 836.13 958.54 830.20 966.85 827.95
  C 978.17 824.88 992.17 828.11 998.17 839.03
  Q 1002.24 846.44 1002.23 856.27
  Q 1002.19 896.46 1002.25 901.00
  Q 1002.30 904.64 1003.81 907.69
  C 1005.30 910.72 1008.54 911.65 1011.76 912.40
  Q 1012.27 912.52 1012.48 912.86
  Q 1012.69 913.20 1012.73 913.71
  A 0.94 0.93 -2.0 0 1 1011.80 914.70
  Q 984.50 914.83 978.29 914.74
  Q 977.56 914.73 977.38 914.69
  A 1.14 1.14 0.0 0 1 977.30 912.49
  Q 980.12 911.61 981.77 910.80
  C 986.14 908.68 986.27 902.81 986.30 898.25
  Q 986.49 871.28 986.13 857.38
  C 985.83 845.97 979.30 837.54 967.29 837.85
  Q 955.25 838.15 946.95 848.47
  Q 945.18 850.67 945.17 852.74
  Q 945.15 899.55 945.16 900.50
  C 945.23 907.94 947.49 910.84 954.41 912.67
  A 1.07 1.07 0.0 0 1 954.13 914.78
  L 920.52 914.78
  A 1.20 1.20 0.0 0 1 920.15 912.44
  C 922.47 911.70 924.66 911.13 925.99 909.93
  Q 929.29 906.97 929.35 902.32
  Q 929.62 884.15 929.48 848.02
  C 929.46 843.80 928.05 837.94 923.88 836.11
  Q 921.96 835.27 919.05 834.55
  A 0.88 0.87 -87.6 0 1 918.40 833.83
  Q 918.18 832.31 919.63 832.08
  Q 929.30 830.60 944.37 827.61
  A 0.71 0.71 0.0 0 1 945.22 828.31
  L 945.22 842.65
  Z"
/>
<path fill="#f4f0e8" d="
  M 407.92 846.62
  A 0.24 0.24 0.0 0 0 408.38 846.73
  Q 410.90 841.51 414.96 836.71
  C 422.66 827.62 432.01 824.02 443.49 829.76
  A 1.31 1.30 -70.1 0 1 444.17 831.23
  L 440.17 848.12
  A 0.96 0.96 0.0 0 1 438.36 848.30
  C 433.48 837.40 421.01 838.26 413.82 846.23
  C 408.79 851.82 407.82 857.79 407.84 865.74
  Q 407.87 880.89 407.88 899.70
  Q 407.88 902.90 409.21 906.55
  C 410.58 910.33 414.42 911.74 418.19 912.28
  A 1.09 1.09 0.0 0 1 419.13 913.36
  L 419.13 913.81
  A 1.00 1.00 0.0 0 1 418.13 914.81
  L 383.14 914.81
  A 1.17 1.17 0.0 0 1 382.91 912.50
  C 389.51 911.20 392.12 907.16 392.18 900.50
  Q 392.47 867.61 392.14 846.34
  C 392.11 844.09 390.97 839.60 389.05 837.70
  Q 386.50 835.19 382.93 834.86
  A 1.27 1.26 -47.9 0 1 382.81 832.36
  L 407.11 827.57
  A 0.68 0.68 0.0 0 1 407.92 828.24
  L 407.92 846.62
  Z"
/>
<path fill="#f4f0e8" d="
  M 478.22 827.17
  A 0.44 0.44 0.0 0 1 478.75 827.60
  Q 478.77 871.59 478.83 898.80
  C 478.86 906.10 479.98 910.93 488.01 912.35
  A 1.20 1.19 7.4 0 1 489.01 913.63
  L 488.97 913.92
  A 0.93 0.92 2.9 0 1 488.05 914.74
  L 453.58 914.82
  A 1.18 1.18 0.0 0 1 453.23 912.52
  Q 456.58 911.47 456.75 911.41
  C 462.32 909.45 463.02 903.72 463.01 898.63
  Q 462.95 856.81 462.85 847.23
  C 462.77 840.69 460.43 835.91 453.41 834.81
  A 0.25 0.16 -11.7 0 1 453.31 834.77
  L 452.66 834.42
  A 1.19 1.19 0.0 0 1 452.99 832.20
  L 478.22 827.17
  Z"
/>
<path fill="#f4f0e8" d="
  M 899.14 827.32
  A 0.44 0.44 0.0 0 1 899.67 827.74
  Q 899.54 871.64 899.51 898.79
  C 899.52 906.08 900.62 910.90 908.63 912.34
  A 1.20 1.19 7.6 0 1 909.62 913.62
  L 909.58 913.91
  A 0.93 0.92 3.1 0 1 908.66 914.73
  L 874.27 914.70
  A 1.18 1.17 -53.6 0 1 873.92 912.40
  Q 877.27 911.36 877.44 911.31
  C 883.01 909.37 883.71 903.65 883.73 898.57
  Q 883.81 856.84 883.74 847.28
  C 883.68 840.76 881.36 835.97 874.36 834.86
  A 0.25 0.16 -11.5 0 1 874.26 834.82
  L 873.61 834.46
  A 1.19 1.19 0.0 0 1 873.95 832.25
  L 899.14 827.32
  Z"
/>
<path fill="#f4f0e8" d="
  M 462.65 1045.35
  A 1.46 1.45 35.5 0 1 465.48 1044.88
  C 467.21 1049.87 469.16 1054.60 472.32 1058.90
  Q 483.68 1074.34 503.95 1073.74
  C 516.41 1073.37 527.81 1065.60 528.86 1052.49
  Q 529.91 1039.29 518.77 1031.69
  Q 512.89 1027.67 508.86 1025.77
  Q 490.76 1017.22 485.81 1014.47
  C 472.66 1007.16 463.94 997.31 464.36 981.25
  Q 464.89 961.54 481.20 951.72
  C 487.49 947.94 496.60 945.83 504.88 946.00
  Q 515.94 946.23 524.73 949.22
  Q 531.48 951.52 537.03 953.90
  A 1.38 1.36 11.9 0 1 537.86 955.15
  Q 537.94 975.71 537.76 979.74
  Q 537.72 980.66 537.68 980.70
  A 1.78 1.78 0.0 0 1 534.86 979.99
  C 529.23 965.48 520.05 952.31 503.00 952.35
  C 488.00 952.38 478.04 961.37 479.14 976.95
  C 479.82 986.69 489.49 993.22 497.16 997.08
  Q 505.14 1001.09 522.05 1009.17
  Q 526.07 1011.10 532.35 1016.18
  C 543.17 1024.95 546.67 1038.66 543.39 1052.09
  C 539.55 1067.83 526.46 1077.28 510.77 1079.34
  Q 485.94 1082.60 463.14 1071.47
  A 0.87 0.85 -77.6 0 1 462.65 1070.69
  L 462.65 1045.35
  Z"
/>
<circle fill="#f4f0e8" cx="572.32" cy="961.86" r="10.96"/>
<path fill="#f4f0e8" d="
  M 681.63 1006.68
  A 0.29 0.29 0.0 0 0 682.15 1006.74
  C 688.10 997.25 697.72 990.14 709.10 989.30
  C 727.47 987.94 738.50 998.86 738.49 1017.00
  Q 738.48 1029.78 738.50 1065.49
  Q 738.50 1069.02 740.83 1071.99
  C 742.34 1073.94 746.22 1074.93 748.24 1075.39
  A 0.98 0.98 0.0 0 1 749.00 1076.50
  Q 748.77 1077.89 747.54 1077.89
  Q 732.22 1077.83 716.78 1077.89
  Q 714.71 1077.89 713.05 1077.67
  A 1.08 1.07 39.7 0 1 712.85 1075.58
  C 716.53 1074.40 719.58 1073.62 721.02 1069.57
  C 722.34 1065.88 722.10 1060.68 722.18 1056.17
  Q 722.51 1036.05 721.85 1017.46
  C 721.56 1008.95 716.70 1002.08 707.79 1000.72
  C 697.95 999.22 686.01 1004.35 683.42 1014.94
  Q 683.08 1016.33 683.09 1024.07
  C 683.11 1046.64 682.71 1058.61 683.41 1066.29
  Q 684.16 1074.64 692.35 1075.26
  A 1.05 1.04 2.1 0 1 693.32 1076.30
  L 693.32 1076.86
  A 0.96 0.96 0.0 0 1 692.36 1077.82
  Q 663.68 1077.90 657.67 1077.76
  Q 657.01 1077.75 656.86 1077.17
  A 1.66 1.46 76.7 0 1 657.93 1075.17
  Q 666.47 1073.45 666.54 1064.33
  Q 666.74 1040.56 666.35 1017.55
  C 666.21 1009.00 660.31 1001.36 651.28 1000.64
  Q 638.27 999.60 630.40 1009.66
  Q 628.84 1011.64 628.05 1014.75
  A 3.98 3.75 53.6 0 0 627.94 1015.67
  Q 627.82 1036.39 627.94 1064.45
  Q 627.99 1074.01 636.61 1075.17
  A 1.33 1.32 -83.0 0 1 637.75 1076.64
  L 637.72 1076.91
  A 1.09 1.08 2.6 0 1 636.64 1077.89
  L 603.11 1077.82
  A 1.19 1.18 -0.7 0 1 601.92 1076.67
  L 601.92 1076.62
  A 1.40 1.39 85.7 0 1 603.10 1075.24
  Q 611.73 1073.93 611.78 1064.34
  Q 611.90 1039.35 611.72 1009.44
  Q 611.66 998.95 602.50 997.17
  Q 602.18 997.11 601.92 996.91
  Q 601.51 996.61 601.33 996.36
  A 1.01 1.01 0.0 0 1 601.97 994.81
  L 626.96 989.92
  A 0.81 0.81 0.0 0 1 627.92 990.72
  L 627.92 1005.25
  A 0.35 0.35 0.0 0 0 628.56 1005.44
  C 635.58 994.60 647.65 987.58 660.99 989.40
  Q 676.44 991.49 681.63 1006.68
  Z"
/>
<path fill="#f4f0e8" d="
  M 815.84 995.06
  A 0.81 0.80 11.7 0 1 816.33 995.80
  L 816.33 1012.53
  Q 816.33 1012.59 816.33 1012.64
  Q 816.13 1015.04 814.26 1014.19
  Q 813.74 1013.95 813.39 1013.14
  C 810.28 1005.90 805.82 999.84 798.57 996.72
  C 790.38 993.18 777.63 994.46 774.55 1004.37
  C 771.75 1013.41 779.49 1018.96 786.70 1021.80
  Q 795.42 1025.22 801.26 1027.90
  Q 810.50 1032.13 814.36 1036.40
  Q 821.28 1044.04 820.39 1055.14
  C 819.34 1068.08 809.43 1076.61 797.20 1078.88
  Q 777.61 1082.51 759.34 1072.64
  A 1.20 1.19 -75.7 0 1 758.72 1071.59
  L 758.72 1052.64
  A 1.45 1.45 0.0 0 1 761.47 1052.00
  C 767.11 1063.64 772.81 1072.71 786.94 1074.02
  C 795.88 1074.85 805.31 1070.52 806.58 1060.75
  C 809.39 1038.94 767.44 1043.51 761.72 1021.15
  C 757.88 1006.15 765.89 993.84 780.70 990.19
  C 791.91 987.43 804.96 990.35 815.84 995.06
  Z"
/>
<path fill="#f4f0e8" d="
  M 580.79 989.57
  A 0.44 0.44 0.0 0 1 581.32 990.00
  Q 581.23 1034.33 581.23 1061.75
  C 581.24 1069.11 582.36 1073.98 590.45 1075.43
  A 1.21 1.20 7.5 0 1 591.45 1076.72
  L 591.41 1077.01
  A 0.94 0.93 3.1 0 1 590.48 1077.84
  L 555.75 1077.84
  A 1.19 1.19 0.0 0 1 555.40 1075.52
  Q 558.78 1074.47 558.95 1074.41
  C 564.57 1072.45 565.28 1066.67 565.29 1061.54
  Q 565.33 1019.40 565.25 1009.75
  C 565.19 1003.16 562.84 998.33 555.77 997.21
  A 0.25 0.17 -11.6 0 1 555.67 997.17
  L 555.01 996.81
  A 1.20 1.20 0.0 0 1 555.35 994.58
  L 580.79 989.57
  Z"
/>
</svg>
