<svg version="1.1" id="Layer_1" xmlns="http://www.w3.org/2000/svg" xmlns:xlink="http://www.w3.org/1999/xlink" x="0px" y="0px"
	 width="100%" viewBox="0 0 467 183" enable-background="new 0 0 467 183" xml:space="preserve">
<path fill="#010101" opacity="1.000000" stroke="none" 
	d="
M295.000000,184.000000 
	C196.666702,184.000000 98.833405,184.000000 1.000079,184.000000 
	C1.000052,123.000053 1.000052,62.000114 1.000026,1.000128 
	C156.666550,1.000085 312.333099,1.000085 467.999756,1.000043 
	C467.999817,61.999866 467.999817,122.999733 467.999908,183.999802 
	C410.500000,184.000000 353.000000,184.000000 295.000000,184.000000 
M393.820648,57.984241 
	C393.785706,65.951927 393.750763,73.919609 393.097076,82.368690 
	C393.157745,83.578110 393.218445,84.787529 393.278473,85.984322 
	C398.194611,85.787849 399.903381,83.797005 399.218567,79.165260 
	C398.663818,75.413048 399.336487,71.494423 398.998444,67.691055 
	C398.625366,63.493248 399.615479,60.193626 403.348724,57.937374 
	C403.583618,57.795410 403.501770,57.129383 403.637085,56.257179 
	C402.126526,56.673107 400.950928,56.996799 399.722900,57.334934 
	C399.500458,55.731976 399.328247,54.490837 399.154724,53.240459 
	C397.006165,53.240459 395.199005,53.240459 392.819977,53.240459 
	C393.215820,54.695797 393.536560,55.874920 393.820648,57.984241 
M201.894470,58.742981 
	C201.955246,59.494942 202.016037,60.246899 201.912674,61.740551 
	C201.969009,62.494026 202.025345,63.247498 201.923660,64.915649 
	C201.974136,68.943367 202.024612,72.971077 201.902206,77.819534 
	C201.609390,80.393776 201.316574,82.968010 201.011490,85.650116 
	C203.535004,85.650116 205.750397,85.650116 207.111893,85.650116 
	C207.111893,78.750587 207.313965,72.144150 207.031784,65.558464 
	C206.876648,61.937916 207.968475,59.063072 211.225250,57.995895 
	C213.843475,57.137962 216.881241,57.560398 220.401031,57.380566 
	C220.544724,56.842590 220.986725,55.187771 221.428726,53.532948 
	C221.101883,53.061817 220.775040,52.590687 220.448196,52.119556 
	C216.292435,53.368271 212.136658,54.616989 208.816666,55.614578 
	C206.411285,54.592266 204.015045,53.573833 200.306763,51.997765 
	C201.215210,55.185520 201.615448,56.589993 201.894470,58.742981 
M403.497437,57.229000 
	C404.144104,57.178017 404.808838,57.206333 405.434662,57.063831 
	C412.001526,55.568527 414.904022,57.660648 415.015747,64.272224 
	C415.135376,71.351242 415.042755,78.433846 415.042755,85.733124 
	C416.670502,85.733124 418.907410,85.733124 420.853943,85.733124 
	C420.853943,78.409843 421.030212,71.306084 420.812164,64.214432 
	C420.493652,53.854408 414.156433,50.055161 404.051147,54.827454 
	C403.805054,55.286358 403.558990,55.745262 403.497437,57.229000 
M69.976624,74.512909 
	C69.976593,73.348038 70.152496,72.151299 69.948151,71.023445 
	C68.557350,63.346943 71.402565,59.265633 79.140137,56.678886 
	C90.505020,52.879494 101.353874,47.536510 113.167755,42.535732 
	C96.390106,35.153629 80.467834,28.147884 64.218109,20.998062 
	C64.218109,65.172379 64.218109,108.838974 64.218109,152.602966 
	C66.173126,152.602966 67.888496,152.602966 69.976730,152.602966 
	C69.976730,126.704567 69.976730,101.106277 69.976624,74.512909 
M47.417240,107.632774 
	C47.682316,113.683914 47.947388,119.735062 48.251328,126.673386 
	C41.811325,123.644318 36.206970,121.219337 30.849007,118.336418 
	C29.546537,117.635597 28.234545,115.369888 28.337101,113.923729 
	C28.712755,108.626442 25.332766,107.690598 21.115734,106.763199 
	C21.115734,110.027672 20.507988,113.161095 21.284449,115.902466 
	C22.081585,118.716843 23.610691,122.222603 25.904417,123.547600 
	C33.079556,127.692383 40.705727,131.086197 48.279926,134.498398 
	C52.380363,136.345657 54.831852,134.760391 54.943665,130.309647 
	C55.119221,123.322052 55.134975,116.321640 54.917355,109.336037 
	C54.771961,104.668846 52.439568,101.201591 48.064621,99.167274 
	C42.792274,96.715652 37.555592,94.182907 32.357494,91.577492 
	C28.404947,89.596375 26.191547,80.167122 28.914156,76.732880 
	C29.532286,75.953178 30.853010,75.354721 31.867556,75.328064 
	C37.131470,75.189735 42.400967,75.263702 48.005333,75.263702 
	C48.005333,78.747238 47.230423,82.028000 48.243336,84.606430 
	C49.098793,86.784050 52.027332,88.147285 54.693604,90.432617 
	C54.693604,82.148872 54.693604,75.411102 54.693604,68.344063 
	C48.906403,68.344063 43.435715,68.340363 37.965034,68.344765 
	C21.940033,68.357658 21.109331,69.359962 20.964777,85.247810 
	C20.906754,91.625237 23.533489,95.452995 29.250092,97.986984 
	C35.294743,100.666382 41.080307,103.930267 47.417240,107.632774 
M78.968788,111.499969 
	C78.968788,119.195839 78.968788,126.891716 78.968788,134.634506 
	C84.734398,133.748367 86.837158,130.957596 86.069397,125.635323 
	C85.599236,122.376160 86.277756,118.961273 85.915421,115.674179 
	C85.409180,111.081665 86.866982,108.401001 91.437073,106.784187 
	C96.422592,105.020409 101.090965,102.366608 105.915894,100.140465 
	C110.075584,98.221245 112.431702,94.839821 112.800644,90.459778 
	C113.190163,85.835457 113.169975,81.134865 112.832176,76.503822 
	C112.545425,72.572609 110.428307,68.996544 106.286285,68.791748 
	C97.257423,68.345314 88.191238,68.653801 78.969711,68.653801 
	C78.969711,82.899033 78.969711,96.699509 78.968788,111.499969 
M200.968643,144.220932 
	C200.670731,136.939606 200.288925,129.659729 200.163040,122.375420 
	C200.143600,121.250908 201.030045,119.489502 201.960159,119.084167 
	C204.970886,117.772102 208.321396,115.869934 211.309814,116.212440 
	C215.325043,116.672630 215.286530,120.948051 215.336121,124.255379 
	C215.442139,131.325790 215.368561,138.398880 215.368561,145.342712 
	C217.476273,145.342712 219.589752,145.342712 221.025909,145.342712 
	C221.025909,141.293228 221.027130,137.520782 221.025558,133.748322 
	C221.023911,129.755020 220.846420,125.751945 221.071259,121.771530 
	C221.251022,118.589287 226.135880,115.343803 230.105713,115.525482 
	C233.918579,115.699982 235.889923,117.925697 235.944580,121.590385 
	C236.062088,129.470367 235.980652,137.353333 235.980652,145.325317 
	C237.966415,145.325317 240.037521,145.325317 241.931183,145.325317 
	C241.931183,141.399597 241.930832,137.764343 241.931290,134.129089 
	C241.931778,130.302139 242.055176,126.470551 241.909882,122.649162 
	C241.550003,113.183411 234.753021,108.792503 226.761841,112.890770 
	C224.597855,114.000572 222.687576,115.605072 220.592834,117.028717 
	C214.344269,107.760033 207.589523,111.473846 200.659485,116.761887 
	C200.389587,114.889503 200.191620,113.516174 200.026978,112.374039 
	C197.775452,112.374039 195.869492,112.374039 194.402740,112.374039 
	C194.402740,123.577599 194.402740,134.435547 194.402740,145.739365 
	C196.626251,145.505203 198.703796,145.286423 200.968643,144.220932 
M267.409363,84.081207 
	C262.550446,78.239388 257.691528,72.397560 252.655685,66.343018 
	C257.384338,61.883331 261.814514,57.705158 266.386627,53.393108 
	C262.868561,52.451145 260.633698,53.360104 258.398590,56.240402 
	C255.481979,59.998962 251.726761,63.106770 247.687622,67.138062 
	C247.687622,56.553333 247.687622,47.301178 247.687622,37.995430 
	C245.481308,37.995430 243.312088,37.995430 241.513580,37.995430 
	C241.513580,54.190449 241.513580,69.888748 241.513580,85.608124 
	C243.586868,85.608124 245.799484,85.608124 247.762787,85.608124 
	C247.762787,79.954010 247.762787,74.622169 247.762787,67.813263 
	C252.268738,73.980057 255.959518,78.998756 259.612640,84.044739 
	C261.389313,86.498817 265.999969,86.832817 267.409363,84.081207 
M334.974548,52.597397 
	C333.455597,43.615482 329.523560,39.834198 320.960815,39.662117 
	C316.372925,39.569916 311.773865,40.031605 307.628540,40.222660 
	C307.628540,55.588089 307.628540,70.610664 307.628540,85.680069 
	C309.969025,85.680069 312.385620,85.680069 314.782806,85.680069 
	C314.510803,82.445259 314.165039,79.495720 314.041443,76.536911 
	C313.917206,73.562775 314.014099,70.579391 314.014099,67.587181 
	C328.118042,68.306839 333.327972,64.734123 334.974548,52.597397 
M146.461975,112.710648 
	C148.721008,115.876862 150.719360,119.278214 153.307617,122.147446 
	C156.280029,125.442551 160.326172,127.880104 162.825562,131.447144 
	C164.210648,133.423920 164.374313,137.452621 163.262222,139.618866 
	C162.307678,141.478256 158.429382,143.332336 156.425598,142.836868 
	C152.602509,141.891525 149.193787,139.270477 145.935120,137.518250 
	C145.195755,143.433975 146.158447,144.751419 153.149597,146.114914 
	C153.960220,146.273010 154.761444,146.551941 155.577255,146.599564 
	C164.130569,147.098663 170.322083,141.957687 170.187195,134.272949 
	C170.076401,127.961754 166.333832,124.376274 162.102631,120.774452 
	C158.968704,118.106697 155.651657,115.545662 153.020844,112.427002 
	C150.596725,109.553383 150.541916,105.980499 153.283508,102.986610 
	C156.069305,99.944473 159.564133,100.351097 162.890091,101.782204 
	C164.422470,102.441574 165.610245,103.901756 166.986069,105.024757 
	C167.978897,99.972252 167.671021,99.392227 163.431900,98.198860 
	C153.090729,95.287689 145.637711,101.225357 146.461975,112.710648 
M154.301895,56.073532 
	C153.683685,55.295441 152.939651,54.586239 152.469330,53.727184 
	C150.561539,50.242695 150.091156,46.730350 153.239777,43.708286 
	C155.997375,41.061516 160.776138,41.482250 164.097321,44.460506 
	C164.905685,45.185390 165.604553,46.032345 166.353775,46.823174 
	C166.732864,44.531338 166.651642,42.049221 165.394089,41.054985 
	C161.201294,37.740162 152.365616,38.889843 148.841934,42.744843 
	C144.837128,47.126205 144.783813,55.030064 149.125641,59.544888 
	C151.869705,62.398258 155.281708,64.597672 158.179871,67.318581 
	C160.072495,69.095451 162.384933,71.052551 163.038071,73.347610 
	C163.704941,75.690872 163.431824,79.277596 161.988037,80.970940 
	C160.545822,82.662453 156.811066,83.806419 154.678452,83.174683 
	C151.423233,82.210388 148.681503,79.512695 144.718994,76.886330 
	C145.411942,79.501617 145.280655,82.590477 146.734863,83.852646 
	C152.051605,88.467331 162.653778,87.529579 166.752533,82.630692 
	C171.257614,77.246155 170.083542,69.036354 163.854401,63.623253 
	C160.979233,61.124725 157.838745,58.931515 154.301895,56.073532 
M77.475159,163.055435 
	C81.479034,161.536453 85.818123,160.563309 89.402840,158.361816 
	C93.992676,155.543015 94.036407,150.687622 89.486282,147.828476 
	C85.566772,145.365570 80.925583,144.051163 76.603477,142.228958 
	C76.175690,142.839233 75.747894,143.449509 75.320107,144.059769 
	C76.390251,145.155884 77.289116,146.561310 78.572639,147.272095 
	C80.287575,148.221802 82.485069,148.336441 84.132767,149.360733 
	C85.677292,150.320892 86.775642,151.998779 88.070328,153.360825 
	C86.751305,154.522690 85.565643,156.460815 84.090553,156.714233 
	C77.105423,157.914337 70.056610,159.157852 62.999615,159.372864 
	C58.640663,159.505676 54.151924,158.077057 49.875145,156.824600 
	C48.260933,156.351868 47.079449,154.401459 45.700703,153.124664 
	C46.921227,151.878387 47.949284,150.286362 49.410706,149.472855 
	C51.261387,148.442673 53.594971,148.290146 55.469795,147.289688 
	C56.724731,146.620041 57.543961,145.133896 58.558159,144.013123 
	C58.191067,143.556473 57.823975,143.099838 57.456882,142.643188 
	C54.029091,143.720856 50.253929,144.230362 47.279251,146.049103 
	C44.724758,147.610947 41.475063,150.681244 41.493240,153.061905 
	C41.511440,155.446381 44.748409,158.678665 47.355732,160.013733 
	C56.589745,164.741943 66.586708,164.610443 77.475159,163.055435 
M352.927521,86.441399 
	C354.209198,86.367622 355.513794,86.422737 356.768890,86.199478 
	C366.054535,84.547783 371.889954,77.277534 370.910492,68.290779 
	C369.923889,59.238602 363.717102,52.125019 353.181366,52.822159 
	C345.137421,53.354416 338.481750,59.451859 337.952393,67.606712 
	C337.261139,78.255615 342.186157,84.718742 352.927521,86.441399 
M273.062958,59.849339 
	C266.979492,73.158020 272.661896,84.707466 286.259583,86.671326 
	C291.558716,87.436661 296.365570,84.885246 297.230469,80.382568 
	C292.250793,83.962433 287.183899,85.651375 282.049500,81.718727 
	C278.124664,78.712532 276.387543,74.602005 277.208557,69.049599 
	C284.925720,69.049599 292.460999,69.049599 299.920319,69.049599 
	C300.868561,59.495110 293.907928,52.081467 285.697876,52.753872 
	C280.425323,53.185699 276.564056,55.191814 273.062958,59.849339 
M445.076416,55.945778 
	C445.790863,55.246372 446.505341,54.546967 448.216766,52.871597 
	C443.368011,52.871597 440.110535,52.871597 436.825958,52.871597 
	C436.825958,49.374298 436.825958,46.290417 436.825958,43.147194 
	C434.751953,43.147194 432.859650,43.147194 430.994110,43.147194 
	C430.319855,47.646229 433.454407,53.073673 425.366486,55.184994 
	C428.382690,55.917976 429.686340,56.234783 430.979309,56.548996 
	C430.979309,59.757179 430.971313,62.582550 430.981110,65.407860 
	C430.996674,69.898193 430.832428,74.399925 431.099640,78.875618 
	C431.375092,83.489746 434.242432,86.238823 438.706390,86.612640 
	C442.066071,86.893997 445.631470,86.521561 447.447205,81.759338 
	C445.657654,82.361137 444.483551,82.726463 443.330536,83.149185 
	C439.691040,84.483536 437.138916,83.242851 436.989868,79.430130 
	C436.687988,71.709114 436.899750,63.968014 436.899750,55.950794 
	C439.545349,55.950794 441.849152,55.950794 445.076416,55.945778 
M184.095657,50.595860 
	C184.359451,48.169926 184.623230,45.743988 184.912048,43.087914 
	C182.552933,43.087914 180.468506,43.087914 178.395020,43.087914 
	C177.356522,47.117088 182.161713,52.487625 174.280136,55.118732 
	C179.910400,54.986771 178.853546,58.366962 178.875031,61.104477 
	C178.923386,67.268242 178.736496,73.441887 179.031937,79.592949 
	C179.240372,83.932709 183.092941,86.842621 187.646179,86.708107 
	C191.868027,86.583374 194.171555,84.747276 194.535568,81.216660 
	C188.771378,85.102379 184.466309,83.968636 184.187744,78.191177 
	C183.837234,70.921303 184.103256,63.621704 184.103256,56.591843 
	C187.666748,54.605427 192.287384,57.954685 195.518661,53.029331 
	C192.745697,53.029331 190.901581,53.229221 189.123581,52.972034 
	C187.411194,52.724346 185.767166,52.004250 184.095657,50.595860 
M260.138458,133.518021 
	C262.930786,136.087952 265.091370,139.186493 261.694977,142.329239 
	C260.329315,143.592941 256.959259,143.688065 254.956528,142.996719 
	C252.773865,142.243271 251.119095,139.960617 249.232864,138.346313 
	C249.227173,144.055679 250.552521,145.572830 256.206299,146.122131 
	C257.687805,146.266037 259.204376,146.260971 260.688232,146.132416 
	C267.369781,145.553482 271.099945,139.415573 267.754852,133.626892 
	C266.023865,130.631424 262.984558,128.250641 260.177612,126.049629 
	C255.314285,122.236153 253.534393,118.735100 255.632019,115.915672 
	C257.914764,112.847450 262.115540,113.623283 267.360687,118.670670 
	C266.851410,116.245033 267.028076,114.172661 266.076508,113.125351 
	C263.658112,110.463585 255.200699,111.299583 252.170944,114.140640 
	C248.635071,117.456284 248.428818,122.769585 252.045593,126.569992 
	C254.315353,128.955002 257.060516,130.887589 260.138458,133.518021 
M178.010162,113.710083 
	C178.010162,124.222015 178.010162,134.733948 178.010162,145.353363 
	C180.569275,145.353363 182.658432,145.353363 184.717682,145.353363 
	C184.717682,134.128693 184.717682,123.134407 184.717682,111.685333 
	C182.238144,112.108017 180.187119,112.457657 178.010162,113.710083 
M378.720062,63.811085 
	C378.720062,71.044617 378.720062,78.278145 378.720062,85.732147 
	C380.327789,85.732147 382.573975,85.732147 384.428131,85.732147 
	C384.428131,74.982086 384.428131,64.451767 384.428131,53.772175 
	C382.042938,53.587196 380.138641,53.439510 377.784210,53.256916 
	C378.117462,56.711811 378.414703,59.793472 378.720062,63.811085 
M226.731888,75.280602 
	C226.482178,78.698914 226.232452,82.117218 225.975708,85.631866 
	C228.513855,85.631866 230.700348,85.631866 232.214020,85.631866 
	C232.214020,75.253250 232.214020,65.189857 232.214020,55.235687 
	C229.735153,55.235687 227.955627,55.235687 226.736420,55.235687 
	C226.736420,61.755669 226.736420,68.041313 226.731888,75.280602 
M180.119965,98.746780 
	C179.555237,100.400871 178.521713,102.093697 178.653610,103.690239 
	C178.707321,104.340401 181.516022,105.482666 182.659363,105.116158 
	C183.753693,104.765358 185.271484,102.173248 184.915024,101.579140 
	C184.100601,100.221764 182.254150,99.483597 180.119965,98.746780 
M382.149261,46.853268 
	C385.465698,43.912010 385.703064,40.950119 382.555176,40.184212 
	C381.284210,39.874973 378.791931,40.599800 378.373016,41.534306 
	C377.197632,44.156368 378.045837,46.419502 382.149261,46.853268 
M232.852859,42.599422 
	C231.280579,41.724163 229.771912,40.650677 228.091736,40.111660 
	C227.666489,39.975235 226.092163,41.556347 226.108856,42.325172 
	C226.136810,43.613441 226.656967,45.416542 227.608383,46.062019 
	C230.620667,48.105652 231.929382,45.880287 232.852859,42.599422 
z"/>
<path fill="#F4F5EE" opacity="1.000000" stroke="none" 
	d="
M69.976677,75.010445 
	C69.976730,101.106277 69.976730,126.704567 69.976730,152.602966 
	C67.888496,152.602966 66.173126,152.602966 64.218109,152.602966 
	C64.218109,108.838974 64.218109,65.172379 64.218109,20.998062 
	C80.467834,28.147884 96.390106,35.153629 113.167755,42.535732 
	C101.353874,47.536510 90.505020,52.879494 79.140137,56.678886 
	C71.402565,59.265633 68.557350,63.346943 69.948151,71.023445 
	C70.152496,72.151299 69.976593,73.348038 69.976677,75.010445 
M90.575951,38.897312 
	C83.833122,35.949673 77.090302,33.002037 70.216415,29.997103 
	C70.216415,38.273930 70.216415,45.987667 70.216415,54.282333 
	C79.640518,50.295143 88.632568,46.490746 98.319702,42.392273 
	C95.462906,41.073444 93.373444,40.108852 90.575951,38.897312 
z"/>
<path fill="#F3F3EE" opacity="1.000000" stroke="none" 
	d="
M47.198139,107.285805 
	C41.080307,103.930267 35.294743,100.666382 29.250092,97.986984 
	C23.533489,95.452995 20.906754,91.625237 20.964777,85.247810 
	C21.109331,69.359962 21.940033,68.357658 37.965034,68.344765 
	C43.435715,68.340363 48.906403,68.344063 54.693604,68.344063 
	C54.693604,75.411102 54.693604,82.148872 54.693604,90.432617 
	C52.027332,88.147285 49.098793,86.784050 48.243336,84.606430 
	C47.230423,82.028000 48.005333,78.747238 48.005333,75.263702 
	C42.400967,75.263702 37.131470,75.189735 31.867556,75.328064 
	C30.853010,75.354721 29.532286,75.953178 28.914156,76.732880 
	C26.191547,80.167122 28.404947,89.596375 32.357494,91.577492 
	C37.555592,94.182907 42.792274,96.715652 48.064621,99.167274 
	C52.439568,101.201591 54.771961,104.668846 54.917355,109.336037 
	C55.134975,116.321640 55.119221,123.322052 54.943665,130.309647 
	C54.831852,134.760391 52.380363,136.345657 48.279926,134.498398 
	C40.705727,131.086197 33.079556,127.692383 25.904417,123.547600 
	C23.610691,122.222603 22.081585,118.716843 21.284449,115.902466 
	C20.507988,113.161095 21.115734,110.027672 21.115734,106.763199 
	C25.332766,107.690598 28.712755,108.626442 28.337101,113.923729 
	C28.234545,115.369888 29.546537,117.635597 30.849007,118.336418 
	C36.206970,121.219337 41.811325,123.644318 48.251328,126.673386 
	C47.947388,119.735062 47.682316,113.683914 47.198139,107.285805 
z"/>
<path fill="#F4F5EF" opacity="1.000000" stroke="none" 
	d="
M78.969254,110.999985 
	C78.969711,96.699509 78.969711,82.899033 78.969711,68.653801 
	C88.191238,68.653801 97.257423,68.345314 106.286285,68.791748 
	C110.428307,68.996544 112.545425,72.572609 112.832176,76.503822 
	C113.169975,81.134865 113.190163,85.835457 112.800644,90.459778 
	C112.431702,94.839821 110.075584,98.221245 105.915894,100.140465 
	C101.090965,102.366608 96.422592,105.020409 91.437073,106.784187 
	C86.866982,108.401001 85.409180,111.081665 85.915421,115.674179 
	C86.277756,118.961273 85.599236,122.376160 86.069397,125.635323 
	C86.837158,130.957596 84.734398,133.748367 78.968788,134.634506 
	C78.968788,126.891716 78.968788,119.195839 78.969254,110.999985 
M85.972336,81.627594 
	C85.972336,88.046417 85.972336,94.465240 85.972336,101.582832 
	C90.531197,99.515167 94.437859,97.771210 98.320847,95.976044 
	C105.246414,92.774254 108.651176,84.407631 105.660820,77.529579 
	C105.229065,76.536514 103.752090,75.406425 102.718254,75.365562 
	C97.277229,75.150513 91.823181,75.264862 85.973511,75.264862 
	C85.973511,77.403923 85.973511,79.035172 85.972336,81.627594 
z"/>
<path fill="#ECEDE8" opacity="1.000000" stroke="none" 
	d="
M200.874985,144.644287 
	C198.703796,145.286423 196.626251,145.505203 194.402740,145.739365 
	C194.402740,134.435547 194.402740,123.577599 194.402740,112.374039 
	C195.869492,112.374039 197.775452,112.374039 200.026978,112.374039 
	C200.191620,113.516174 200.389587,114.889503 200.659485,116.761887 
	C207.589523,111.473846 214.344269,107.760033 220.592834,117.028717 
	C222.687576,115.605072 224.597855,114.000572 226.761841,112.890770 
	C234.753021,108.792503 241.550003,113.183411 241.909882,122.649162 
	C242.055176,126.470551 241.931778,130.302139 241.931290,134.129089 
	C241.930832,137.764343 241.931183,141.399597 241.931183,145.325317 
	C240.037521,145.325317 237.966415,145.325317 235.980652,145.325317 
	C235.980652,137.353333 236.062088,129.470367 235.944580,121.590385 
	C235.889923,117.925697 233.918579,115.699982 230.105713,115.525482 
	C226.135880,115.343803 221.251022,118.589287 221.071259,121.771530 
	C220.846420,125.751945 221.023911,129.755020 221.025558,133.748322 
	C221.027130,137.520782 221.025909,141.293228 221.025909,145.342712 
	C219.589752,145.342712 217.476273,145.342712 215.368561,145.342712 
	C215.368561,138.398880 215.442139,131.325790 215.336121,124.255379 
	C215.286530,120.948051 215.325043,116.672630 211.309814,116.212440 
	C208.321396,115.869934 204.970886,117.772102 201.960159,119.084167 
	C201.030045,119.489502 200.143600,121.250908 200.163040,122.375420 
	C200.288925,129.659729 200.670731,136.939606 200.874985,144.644287 
z"/>
<path fill="#F1F2ED" opacity="1.000000" stroke="none" 
	d="
M267.659790,84.338196 
	C265.999969,86.832817 261.389313,86.498817 259.612640,84.044739 
	C255.959518,78.998756 252.268738,73.980057 247.762787,67.813263 
	C247.762787,74.622169 247.762787,79.954010 247.762787,85.608124 
	C245.799484,85.608124 243.586868,85.608124 241.513580,85.608124 
	C241.513580,69.888748 241.513580,54.190449 241.513580,37.995430 
	C243.312088,37.995430 245.481308,37.995430 247.687622,37.995430 
	C247.687622,47.301178 247.687622,56.553333 247.687622,67.138062 
	C251.726761,63.106770 255.481979,59.998962 258.398590,56.240402 
	C260.633698,53.360104 262.868561,52.451145 266.386627,53.393108 
	C261.814514,57.705158 257.384338,61.883331 252.655685,66.343018 
	C257.691528,72.397560 262.550446,78.239388 267.659790,84.338196 
z"/>
<path fill="#F3F4EE" opacity="1.000000" stroke="none" 
	d="
M334.976746,53.014847 
	C333.327972,64.734123 328.118042,68.306839 314.014099,67.587181 
	C314.014099,70.579391 313.917206,73.562775 314.041443,76.536911 
	C314.165039,79.495720 314.510803,82.445259 314.782806,85.680069 
	C312.385620,85.680069 309.969025,85.680069 307.628540,85.680069 
	C307.628540,70.610664 307.628540,55.588089 307.628540,40.222660 
	C311.773865,40.031605 316.372925,39.569916 320.960815,39.662117 
	C329.523560,39.834198 333.455597,43.615482 334.976746,53.014847 
M328.765228,50.983707 
	C326.414459,43.350761 323.805298,41.119232 317.537598,42.162766 
	C316.210724,42.383678 314.268494,44.349461 314.179657,45.620975 
	C313.799988,51.055779 313.858307,56.539204 314.132507,61.985973 
	C314.185333,63.034912 315.813812,64.716942 316.905029,64.886497 
	C324.438538,66.057068 328.679352,61.270538 328.765228,50.983707 
z"/>
<path fill="#EFF0EB" opacity="1.000000" stroke="none" 
	d="
M146.320206,112.327484 
	C145.637711,101.225357 153.090729,95.287689 163.431900,98.198860 
	C167.671021,99.392227 167.978897,99.972252 166.986069,105.024757 
	C165.610245,103.901756 164.422470,102.441574 162.890091,101.782204 
	C159.564133,100.351097 156.069305,99.944473 153.283508,102.986610 
	C150.541916,105.980499 150.596725,109.553383 153.020844,112.427002 
	C155.651657,115.545662 158.968704,118.106697 162.102631,120.774452 
	C166.333832,124.376274 170.076401,127.961754 170.187195,134.272949 
	C170.322083,141.957687 164.130569,147.098663 155.577255,146.599564 
	C154.761444,146.551941 153.960220,146.273010 153.149597,146.114914 
	C146.158447,144.751419 145.195755,143.433975 145.935120,137.518250 
	C149.193787,139.270477 152.602509,141.891525 156.425598,142.836868 
	C158.429382,143.332336 162.307678,141.478256 163.262222,139.618866 
	C164.374313,137.452621 164.210648,133.423920 162.825562,131.447144 
	C160.326172,127.880104 156.280029,125.442551 153.307617,122.147446 
	C150.719360,119.278214 148.721008,115.876862 146.320206,112.327484 
z"/>
<path fill="#F1F2ED" opacity="1.000000" stroke="none" 
	d="
M154.560211,56.336704 
	C157.838745,58.931515 160.979233,61.124725 163.854401,63.623253 
	C170.083542,69.036354 171.257614,77.246155 166.752533,82.630692 
	C162.653778,87.529579 152.051605,88.467331 146.734863,83.852646 
	C145.280655,82.590477 145.411942,79.501617 144.718994,76.886330 
	C148.681503,79.512695 151.423233,82.210388 154.678452,83.174683 
	C156.811066,83.806419 160.545822,82.662453 161.988037,80.970940 
	C163.431824,79.277596 163.704941,75.690872 163.038071,73.347610 
	C162.384933,71.052551 160.072495,69.095451 158.179871,67.318581 
	C155.281708,64.597672 151.869705,62.398258 149.125641,59.544888 
	C144.783813,55.030064 144.837128,47.126205 148.841934,42.744843 
	C152.365616,38.889843 161.201294,37.740162 165.394089,41.054985 
	C166.651642,42.049221 166.732864,44.531338 166.353775,46.823174 
	C165.604553,46.032345 164.905685,45.185390 164.097321,44.460506 
	C160.776138,41.482250 155.997375,41.061516 153.239777,43.708286 
	C150.091156,46.730350 150.561539,50.242695 152.469330,53.727184 
	C152.939651,54.586239 153.683685,55.295441 154.560211,56.336704 
z"/>
<path fill="#EAEBE4" opacity="1.000000" stroke="none" 
	d="
M77.045799,163.108917 
	C66.586708,164.610443 56.589745,164.741943 47.355732,160.013733 
	C44.748409,158.678665 41.511440,155.446381 41.493240,153.061905 
	C41.475063,150.681244 44.724758,147.610947 47.279251,146.049103 
	C50.253929,144.230362 54.029091,143.720856 57.456882,142.643188 
	C57.823975,143.099838 58.191067,143.556473 58.558159,144.013123 
	C57.543961,145.133896 56.724731,146.620041 55.469795,147.289688 
	C53.594971,148.290146 51.261387,148.442673 49.410706,149.472855 
	C47.949284,150.286362 46.921227,151.878387 45.700703,153.124664 
	C47.079449,154.401459 48.260933,156.351868 49.875145,156.824600 
	C54.151924,158.077057 58.640663,159.505676 62.999615,159.372864 
	C70.056610,159.157852 77.105423,157.914337 84.090553,156.714233 
	C85.565643,156.460815 86.751305,154.522690 88.070328,153.360825 
	C86.775642,151.998779 85.677292,150.320892 84.132767,149.360733 
	C82.485069,148.336441 80.287575,148.221802 78.572639,147.272095 
	C77.289116,146.561310 76.390251,145.155884 75.320107,144.059769 
	C75.747894,143.449509 76.175690,142.839233 76.603477,142.228958 
	C80.925583,144.051163 85.566772,145.365570 89.486282,147.828476 
	C94.036407,150.687622 93.992676,155.543015 89.402840,158.361816 
	C85.818123,160.563309 81.479034,161.536453 77.045799,163.108917 
z"/>
<path fill="#F3F3EF" opacity="1.000000" stroke="none" 
	d="
M352.537354,86.337982 
	C342.186157,84.718742 337.261139,78.255615 337.952393,67.606712 
	C338.481750,59.451859 345.137421,53.354416 353.181366,52.822159 
	C363.717102,52.125019 369.923889,59.238602 370.910492,68.290779 
	C371.889954,77.277534 366.054535,84.547783 356.768890,86.199478 
	C355.513794,86.422737 354.209198,86.367622 352.537354,86.337982 
M344.030792,72.084099 
	C344.713318,74.270485 345.069489,76.633186 346.138062,78.611000 
	C349.700043,85.204079 357.885437,85.965736 362.103333,80.257217 
	C366.561218,74.223869 365.660431,62.975456 360.296997,57.701008 
	C355.681152,53.161728 348.366913,54.145046 345.906189,60.137512 
	C344.516937,63.520687 344.585632,67.502571 344.030792,72.084099 
z"/>
<path fill="#F1F2ED" opacity="1.000000" stroke="none" 
	d="
M273.262207,59.523342 
	C276.564056,55.191814 280.425323,53.185699 285.697876,52.753872 
	C293.907928,52.081467 300.868561,59.495110 299.920319,69.049599 
	C292.460999,69.049599 284.925720,69.049599 277.208557,69.049599 
	C276.387543,74.602005 278.124664,78.712532 282.049500,81.718727 
	C287.183899,85.651375 292.250793,83.962433 297.230469,80.382568 
	C296.365570,84.885246 291.558716,87.436661 286.259583,86.671326 
	C272.661896,84.707466 266.979492,73.158020 273.262207,59.523342 
M292.699036,59.159660 
	C290.239410,55.220814 286.727814,53.814636 282.493652,55.701279 
	C277.836151,57.776558 276.495575,61.794666 276.999023,66.751251 
	C282.877014,66.751251 288.481293,66.751251 294.743988,66.751251 
	C294.115021,64.260147 293.566162,62.086430 292.699036,59.159660 
z"/>
<path fill="#ECEDE7" opacity="1.000000" stroke="none" 
	d="
M444.614685,55.948288 
	C441.849152,55.950794 439.545349,55.950794 436.899750,55.950794 
	C436.899750,63.968014 436.687988,71.709114 436.989868,79.430130 
	C437.138916,83.242851 439.691040,84.483536 443.330536,83.149185 
	C444.483551,82.726463 445.657654,82.361137 447.447205,81.759338 
	C445.631470,86.521561 442.066071,86.893997 438.706390,86.612640 
	C434.242432,86.238823 431.375092,83.489746 431.099640,78.875618 
	C430.832428,74.399925 430.996674,69.898193 430.981110,65.407860 
	C430.971313,62.582550 430.979309,59.757179 430.979309,56.548996 
	C429.686340,56.234783 428.382690,55.917976 425.366486,55.184994 
	C433.454407,53.073673 430.319855,47.646229 430.994110,43.147194 
	C432.859650,43.147194 434.751953,43.147194 436.825958,43.147194 
	C436.825958,46.290417 436.825958,49.374298 436.825958,52.871597 
	C440.110535,52.871597 443.368011,52.871597 448.216766,52.871597 
	C446.505341,54.546967 445.790863,55.246372 444.614685,55.948288 
z"/>
<path fill="#F5F6F1" opacity="1.000000" stroke="none" 
	d="
M184.094376,51.043785 
	C185.767166,52.004250 187.411194,52.724346 189.123581,52.972034 
	C190.901581,53.229221 192.745697,53.029331 195.518661,53.029331 
	C192.287384,57.954685 187.666748,54.605427 184.103256,56.591843 
	C184.103256,63.621704 183.837234,70.921303 184.187744,78.191177 
	C184.466309,83.968636 188.771378,85.102379 194.535568,81.216660 
	C194.171555,84.747276 191.868027,86.583374 187.646179,86.708107 
	C183.092941,86.842621 179.240372,83.932709 179.031937,79.592949 
	C178.736496,73.441887 178.923386,67.268242 178.875031,61.104477 
	C178.853546,58.366962 179.910400,54.986771 174.280136,55.118732 
	C182.161713,52.487625 177.356522,47.117088 178.395020,43.087914 
	C180.468506,43.087914 182.552933,43.087914 184.912048,43.087914 
	C184.623230,45.743988 184.359451,48.169926 184.094376,51.043785 
z"/>
<path fill="#F0F0EB" opacity="1.000000" stroke="none" 
	d="
M259.865417,133.270599 
	C257.060516,130.887589 254.315353,128.955002 252.045593,126.569992 
	C248.428818,122.769585 248.635071,117.456284 252.170944,114.140640 
	C255.200699,111.299583 263.658112,110.463585 266.076508,113.125351 
	C267.028076,114.172661 266.851410,116.245033 267.360687,118.670670 
	C262.115540,113.623283 257.914764,112.847450 255.632019,115.915672 
	C253.534393,118.735100 255.314285,122.236153 260.177612,126.049629 
	C262.984558,128.250641 266.023865,130.631424 267.754852,133.626892 
	C271.099945,139.415573 267.369781,145.553482 260.688232,146.132416 
	C259.204376,146.260971 257.687805,146.266037 256.206299,146.122131 
	C250.552521,145.572830 249.227173,144.055679 249.233536,138.345459 
	C251.119095,139.960617 252.773865,142.243271 254.956528,142.996719 
	C256.959259,143.688065 260.329315,143.592941 261.694977,142.329239 
	C265.091370,139.186493 262.930786,136.087952 259.865417,133.270599 
z"/>
<path fill="#F0F0EB" opacity="1.000000" stroke="none" 
	d="
M404.861969,54.430119 
	C414.156433,50.055161 420.493652,53.854408 420.812164,64.214432 
	C421.030212,71.306084 420.853943,78.409843 420.853943,85.733124 
	C418.907410,85.733124 416.670502,85.733124 415.042755,85.733124 
	C415.042755,78.433846 415.135376,71.351242 415.015747,64.272224 
	C414.904022,57.660648 412.001526,55.568527 405.434662,57.063831 
	C404.808838,57.206333 404.144104,57.178017 403.788269,56.541065 
	C404.340057,55.378792 404.601013,54.904453 404.861969,54.430119 
z"/>
<path fill="#F0F0EC" opacity="1.000000" stroke="none" 
	d="
M178.073120,113.258690 
	C180.187119,112.457657 182.238144,112.108017 184.717682,111.685333 
	C184.717682,123.134407 184.717682,134.128693 184.717682,145.353363 
	C182.658432,145.353363 180.569275,145.353363 178.010162,145.353363 
	C178.010162,134.733948 178.010162,124.222015 178.073120,113.258690 
z"/>
<path fill="#F1F1EC" opacity="1.000000" stroke="none" 
	d="
M202.081696,64.000969 
	C202.025345,63.247498 201.969009,62.494026 202.311218,61.313499 
	C203.121887,60.087502 203.533981,59.288555 203.946075,58.489609 
	C203.302612,58.324558 202.659164,58.159512 202.015701,57.994461 
	C201.615448,56.589993 201.215210,55.185520 200.306763,51.997765 
	C204.015045,53.573833 206.411285,54.592266 208.816666,55.614578 
	C212.136658,54.616989 216.292435,53.368271 220.448196,52.119556 
	C220.775040,52.590687 221.101883,53.061817 221.428726,53.532948 
	C220.986725,55.187771 220.544724,56.842590 220.401031,57.380566 
	C216.881241,57.560398 213.843475,57.137962 211.225250,57.995895 
	C207.968475,59.063072 206.876648,61.937916 207.031784,65.558464 
	C207.313965,72.144150 207.111893,78.750587 207.111893,85.650116 
	C205.750397,85.650116 203.535004,85.650116 201.011490,85.650116 
	C201.316574,82.968010 201.609390,80.393776 202.374207,77.307770 
	C204.286575,72.429703 205.637146,68.068764 202.081696,64.000969 
z"/>
<path fill="#F5F6F1" opacity="1.000000" stroke="none" 
	d="
M378.716003,63.343109 
	C378.414703,59.793472 378.117462,56.711811 377.784210,53.256916 
	C380.138641,53.439510 382.042938,53.587196 384.428131,53.772175 
	C384.428131,64.451767 384.428131,74.982086 384.428131,85.732147 
	C382.573975,85.732147 380.327789,85.732147 378.720062,85.732147 
	C378.720062,78.278145 378.720062,71.044617 378.716003,63.343109 
z"/>
<path fill="#F5F6F1" opacity="1.000000" stroke="none" 
	d="
M226.734161,74.803780 
	C226.736420,68.041313 226.736420,61.755669 226.736420,55.235687 
	C227.955627,55.235687 229.735153,55.235687 232.214020,55.235687 
	C232.214020,65.189857 232.214020,75.253250 232.214020,85.631866 
	C230.700348,85.631866 228.513855,85.631866 225.975708,85.631866 
	C226.232452,82.117218 226.482178,78.698914 226.734161,74.803780 
z"/>
<path fill="#F8F8F5" opacity="1.000000" stroke="none" 
	d="
M393.857300,57.054039 
	C393.536560,55.874920 393.215820,54.695797 392.819977,53.240459 
	C395.199005,53.240459 397.006165,53.240459 399.154724,53.240459 
	C399.328247,54.490837 399.500458,55.731976 399.722900,57.334934 
	C400.950928,56.996799 402.126526,56.673107 403.637085,56.257179 
	C403.501770,57.129383 403.583618,57.795410 403.348724,57.937374 
	C399.615479,60.193626 398.625366,63.493248 398.998444,67.691055 
	C399.336487,71.494423 398.663818,75.413048 399.218567,79.165260 
	C399.903381,83.797005 398.194611,85.787849 393.278473,85.984322 
	C393.218445,84.787529 393.157745,83.578110 393.821106,82.082092 
	C395.010193,81.194801 395.870514,80.600105 395.879761,79.992485 
	C395.984802,73.081093 396.024323,66.166367 395.876923,59.256893 
	C395.860931,58.508579 394.561432,57.787663 393.857300,57.054039 
z"/>
<path fill="#F4F5EF" opacity="1.000000" stroke="none" 
	d="
M393.838989,57.519142 
	C394.561432,57.787663 395.860931,58.508579 395.876923,59.256893 
	C396.024323,66.166367 395.984802,73.081093 395.879761,79.992485 
	C395.870514,80.600105 395.010193,81.194801 394.130493,81.841400 
	C393.750763,73.919609 393.785706,65.951927 393.838989,57.519142 
z"/>
<path fill="#EFF0EB" opacity="1.000000" stroke="none" 
	d="
M180.473434,98.620346 
	C182.254150,99.483597 184.100601,100.221764 184.915024,101.579140 
	C185.271484,102.173248 183.753693,104.765358 182.659363,105.116158 
	C181.516022,105.482666 178.707321,104.340401 178.653610,103.690239 
	C178.521713,102.093697 179.555237,100.400871 180.473434,98.620346 
z"/>
<path fill="#F1F1EC" opacity="1.000000" stroke="none" 
	d="
M381.759399,46.892563 
	C378.045837,46.419502 377.197632,44.156368 378.373016,41.534306 
	C378.791931,40.599800 381.284210,39.874973 382.555176,40.184212 
	C385.703064,40.950119 385.465698,43.912010 381.759399,46.892563 
z"/>
<path fill="#EFF0EB" opacity="1.000000" stroke="none" 
	d="
M232.870697,42.985821 
	C231.929382,45.880287 230.620667,48.105652 227.608383,46.062019 
	C226.656967,45.416542 226.136810,43.613441 226.108856,42.325172 
	C226.092163,41.556347 227.666489,39.975235 228.091736,40.111660 
	C229.771912,40.650677 231.280579,41.724163 232.870697,42.985821 
z"/>
<path fill="#F3F3EF" opacity="1.000000" stroke="none" 
	d="
M202.002686,64.458313 
	C205.637146,68.068764 204.286575,72.429703 202.460663,76.897400 
	C202.024612,72.971077 201.974136,68.943367 202.002686,64.458313 
z"/>
<path fill="#F3F3EF" opacity="1.000000" stroke="none" 
	d="
M201.955078,58.368721 
	C202.659164,58.159512 203.302612,58.324558 203.946075,58.489609 
	C203.533981,59.288555 203.121887,60.087502 202.393295,60.942650 
	C202.016037,60.246899 201.955246,59.494942 201.955078,58.368721 
z"/>
<path fill="#F8F8F5" opacity="1.000000" stroke="none" 
	d="
M404.456543,54.628784 
	C404.601013,54.904453 404.340057,55.378792 403.696014,56.028648 
	C403.558990,55.745262 403.805054,55.286358 404.456543,54.628784 
z"/>
<path fill="#080807" opacity="1.000000" stroke="none" 
	d="
M90.929970,39.020790 
	C93.373444,40.108852 95.462906,41.073444 98.319702,42.392273 
	C88.632568,46.490746 79.640518,50.295143 70.216415,54.282333 
	C70.216415,45.987667 70.216415,38.273930 70.216415,29.997103 
	C77.090302,33.002037 83.833122,35.949673 90.929970,39.020790 
z"/>
<path fill="#070706" opacity="1.000000" stroke="none" 
	d="
M85.972923,81.147003 
	C85.973511,79.035172 85.973511,77.403923 85.973511,75.264862 
	C91.823181,75.264862 97.277229,75.150513 102.718254,75.365562 
	C103.752090,75.406425 105.229065,76.536514 105.660820,77.529579 
	C108.651176,84.407631 105.246414,92.774254 98.320847,95.976044 
	C94.437859,97.771210 90.531197,99.515167 85.972336,101.582832 
	C85.972336,94.465240 85.972336,88.046417 85.972923,81.147003 
z"/>
<path fill="#040403" opacity="1.000000" stroke="none" 
	d="
M328.783813,51.389503 
	C328.679352,61.270538 324.438538,66.057068 316.905029,64.886497 
	C315.813812,64.716942 314.185333,63.034912 314.132507,61.985973 
	C313.858307,56.539204 313.799988,51.055779 314.179657,45.620975 
	C314.268494,44.349461 316.210724,42.383678 317.537598,42.162766 
	C323.805298,41.119232 326.414459,43.350761 328.783813,51.389503 
z"/>
<path fill="#040504" opacity="1.000000" stroke="none" 
	d="
M344.014191,71.649429 
	C344.585632,67.502571 344.516937,63.520687 345.906189,60.137512 
	C348.366913,54.145046 355.681152,53.161728 360.296997,57.701008 
	C365.660431,62.975456 366.561218,74.223869 362.103333,80.257217 
	C357.885437,85.965736 349.700043,85.204079 346.138062,78.611000 
	C345.069489,76.633186 344.713318,74.270485 344.014191,71.649429 
z"/>
<path fill="#070706" opacity="1.000000" stroke="none" 
	d="
M292.858154,59.536186 
	C293.566162,62.086430 294.115021,64.260147 294.743988,66.751251 
	C288.481293,66.751251 282.877014,66.751251 276.999023,66.751251 
	C276.495575,61.794666 277.836151,57.776558 282.493652,55.701279 
	C286.727814,53.814636 290.239410,55.220814 292.858154,59.536186 
z"/>
</svg>