<svg version="1.1" id="Layer_1" xmlns="http://www.w3.org/2000/svg" xmlns:xlink="http://www.w3.org/1999/xlink" x="0px" y="0px"
	 width="100%" viewBox="0 0 903 840" enable-background="new 0 0 903 840" xml:space="preserve">
<path fill="#000000" opacity="1.000000" stroke="none" 
	d="
M539.000000,841.000000 
	C359.333344,841.000000 180.166672,841.000000 1.000000,841.000000 
	C1.000000,561.000000 1.000000,281.000000 1.000000,1.000000 
	C302.000000,1.000000 603.000000,1.000000 904.000000,1.000000 
	C904.000000,281.000000 904.000000,561.000000 904.000000,841.000000 
	C782.500000,841.000000 661.000000,841.000000 539.000000,841.000000 
M350.994598,765.054077 
	C350.994598,765.054077 350.925598,765.032166 350.924591,764.326904 
	C350.427246,763.279358 349.929932,762.231812 349.335815,760.537842 
	C347.547821,758.026672 345.759796,755.515442 343.837219,752.372498 
	C342.701752,751.118713 341.566284,749.864929 340.242096,748.751404 
	C340.242096,748.751404 340.383911,748.563782 340.080505,748.006531 
	C339.105835,747.201782 338.131165,746.396973 337.070648,745.199646 
	C336.915253,744.941711 336.687500,744.825134 336.120300,744.276733 
	C335.406158,743.874023 334.691986,743.471375 333.737671,742.580688 
	C333.429657,742.405701 333.121613,742.230713 332.544250,741.460999 
	C331.090485,740.473694 329.636719,739.486389 327.833771,737.947327 
	C325.295624,736.115784 322.757446,734.284302 319.857574,731.955505 
	C318.496429,730.995483 317.135254,730.035461 315.470825,728.525696 
	C313.713104,726.990417 311.955414,725.455200 310.066559,723.310791 
	C309.365692,722.575500 308.664825,721.840149 307.710052,720.446411 
	C306.854279,719.227417 305.909119,718.060913 305.157318,716.780884 
	C300.400787,708.682190 300.910187,698.350891 306.303986,692.584595 
	C315.917877,682.306824 335.806671,685.451843 341.942780,698.217957 
	C342.508545,699.394958 343.097778,700.560669 343.676117,701.731628 
	C344.892365,699.839050 345.288574,698.259888 345.364807,696.665527 
	C346.019104,682.983582 348.931732,683.367554 332.953796,678.625488 
	C322.586670,675.548645 312.121399,675.979309 302.547211,681.520020 
	C281.830505,693.508911 280.668549,722.449219 300.278961,739.606140 
	C302.525726,741.385742 304.772461,743.165344 307.290680,745.563782 
	C310.040802,747.694885 312.790955,749.826050 315.493164,752.204224 
	C315.493164,752.204224 315.729675,752.055420 316.206696,752.667114 
	C321.438446,757.528076 326.670197,762.389038 331.707550,767.371582 
	C331.707550,767.371582 332.058746,767.569702 332.302948,768.292664 
	C336.722839,774.804810 337.177551,781.838074 334.774323,789.314575 
	C334.774323,789.314575 334.640991,789.577576 334.640991,789.577576 
	C334.640991,789.577576 334.809204,789.819519 334.262024,790.468994 
	C334.194824,790.743958 334.127625,791.018982 333.779877,791.357239 
	C333.587769,791.518982 333.584198,791.684692 333.213470,792.357666 
	C330.484436,794.735535 327.755402,797.113403 324.476624,799.460144 
	C324.011780,799.725769 323.546936,799.991394 322.252991,800.236328 
	C321.178131,800.456177 320.103241,800.676025 318.285614,800.656311 
	C316.510529,800.739014 314.735474,800.821655 312.491302,800.659790 
	C312.323425,800.713745 312.155579,800.767700 311.596619,800.505737 
	C311.439728,800.564758 311.282867,800.623718 310.666504,800.332642 
	C310.095001,800.281555 309.523529,800.230408 308.569427,799.785217 
	C308.035767,799.720215 307.502075,799.655212 306.338837,799.174988 
	C306.090027,799.138916 305.841248,799.102783 305.582306,798.833191 
	C305.582306,798.833191 305.398376,799.002197 304.778320,798.541687 
	C304.050049,798.287598 303.321777,798.033508 302.261841,797.240540 
	C301.502655,796.902588 300.743469,796.564636 299.672272,795.716675 
	C299.138153,795.476990 298.604034,795.237305 297.896301,794.404785 
	C297.269501,793.922485 296.642670,793.440186 295.753418,792.250244 
	C295.550262,792.101868 295.347137,791.953430 295.345367,791.748901 
	C295.345367,791.748901 295.060516,791.686707 294.706696,790.928101 
	C293.824982,789.856812 292.943298,788.785583 292.299957,787.677551 
	C292.299957,787.677551 291.941437,787.466248 291.770599,786.807068 
	C291.157227,785.873657 290.543823,784.940186 289.885803,783.303162 
	C288.983429,781.521973 288.081055,779.740845 287.178680,777.959656 
	C286.820374,778.071594 286.462097,778.183594 286.103790,778.295532 
	C285.915863,780.208801 285.727936,782.122070 285.258820,784.893066 
	C285.202881,787.603271 285.146942,790.313416 284.787750,793.349548 
	C284.820435,793.915405 284.853119,794.481323 284.606171,795.747498 
	C284.689148,796.482300 284.772095,797.217102 284.626923,798.416504 
	C285.437225,799.230652 286.247528,800.044800 287.057373,800.955505 
	C287.057373,800.955505 287.152008,800.936768 287.402649,801.564636 
	C289.606506,802.834290 291.810364,804.103943 294.303070,805.719299 
	C294.303070,805.719299 294.752197,805.684875 295.261963,806.100952 
	C299.518372,807.207703 303.774811,808.314514 308.775208,809.769348 
	C309.867981,809.780884 310.960785,809.792480 312.702850,810.187744 
	C315.450531,810.070557 318.198181,809.953369 321.712311,809.905518 
	C322.467194,809.800598 323.222076,809.695679 324.610443,809.716553 
	C325.391266,809.430969 326.172089,809.145386 327.649353,808.894592 
	C328.090912,808.769531 328.532501,808.644531 329.689209,808.579224 
	C333.546814,806.464111 337.404419,804.348999 341.079468,802.046692 
	C341.079468,802.046692 341.228119,802.261719 341.856232,802.056885 
	C343.224030,800.366516 344.591827,798.676147 346.556854,796.661316 
	C348.330139,792.763611 350.103424,788.865967 352.286774,784.474365 
	C352.363617,783.639221 352.440491,782.804016 352.776306,781.105652 
	C352.758972,778.409607 352.741638,775.713501 352.874298,772.282959 
	C352.534912,770.865540 352.195526,769.448059 351.872314,767.237915 
	C351.656982,766.769287 351.441650,766.300598 351.407257,765.556580 
	C351.348450,765.315308 351.197693,765.167969 350.994598,765.054077 
M751.210449,556.148865 
	C751.210449,556.148865 751.395081,556.370361 751.982788,556.199707 
	C752.641663,555.756409 753.300537,555.313049 754.619690,554.830566 
	C755.404480,554.440979 756.189270,554.051392 757.809326,553.690002 
	C761.881470,553.349060 765.953552,553.008179 770.708496,552.982117 
	C772.049744,553.654358 773.390930,554.326660 774.619263,555.147034 
	C774.619263,555.147034 774.579651,555.015259 775.134338,555.618164 
	C780.622620,559.988892 781.915100,566.290100 781.956299,572.617249 
	C782.089172,593.030884 783.838196,613.534912 779.158997,633.944946 
	C786.640076,633.944946 793.816956,633.944946 800.837769,633.944946 
	C800.130066,628.384888 799.232300,623.159790 798.860229,617.897522 
	C798.485046,612.591553 798.584778,607.248901 798.560242,601.921875 
	C798.518860,592.930847 798.729980,583.934082 798.470032,574.950256 
	C798.316956,569.660278 798.111755,564.222656 796.801758,559.142334 
	C792.387695,542.023865 768.197571,534.182068 755.835205,545.257019 
	C755.481445,545.474243 755.127747,545.691467 754.079651,545.973145 
	C752.734375,546.707825 751.389099,547.442505 749.423706,548.338074 
	C748.935425,548.746460 748.447083,549.154846 747.675476,549.517883 
	C747.460205,549.613220 747.389587,549.772583 746.834167,550.306335 
	C744.730652,552.038452 742.627075,553.770508 740.081604,555.052002 
	C739.935669,554.900574 739.789673,554.749084 739.426819,553.746887 
	C739.597595,550.163940 739.768433,546.580994 739.928223,543.229675 
	C732.971863,543.229675 726.583069,543.229675 720.422974,543.229675 
	C724.354248,573.817078 724.081299,603.942078 720.580322,634.002197 
	C727.518494,634.002197 734.428406,634.002197 741.483765,634.002197 
	C740.925842,630.554993 740.065979,627.472961 739.984741,624.370544 
	C739.527222,606.895203 739.163818,589.415710 739.023254,571.935608 
	C739.002136,569.315796 740.323730,566.685242 741.600586,563.921570 
	C742.192627,563.425110 742.784729,562.928650 743.288757,562.258606 
	C743.288757,562.258606 743.434204,562.388062 744.012756,562.101868 
	C745.594849,560.702271 747.176941,559.302673 748.901550,557.950806 
	C748.901550,557.950806 748.925781,557.802429 749.512878,557.773010 
	C750.125183,557.315796 750.737488,556.858582 751.210449,556.148865 
M53.486351,517.664124 
	C53.988377,517.099548 54.490402,516.534912 55.687180,515.849976 
	C56.485031,515.367004 57.282887,514.883972 58.411087,514.505005 
	C58.653633,514.397339 58.769272,514.210876 59.414097,513.881409 
	C59.602180,513.767761 59.790260,513.654114 60.798389,513.449219 
	C69.544807,510.908203 77.082756,513.632080 84.348938,519.459167 
	C85.154854,520.358215 85.960777,521.257263 86.659874,522.405884 
	C86.716278,522.618958 86.854088,522.713196 87.005470,522.873413 
	C87.005470,522.873413 87.194473,522.928833 87.325905,523.587097 
	C88.310829,525.214661 89.295753,526.842163 90.280678,528.469727 
	C90.615822,528.358582 90.950958,528.247375 91.286102,528.136230 
	C91.429001,526.418579 91.571899,524.700989 91.905212,522.164734 
	C91.894600,520.764832 91.883987,519.364990 92.244766,517.343079 
	C91.757713,514.571960 94.165680,510.963287 89.811638,509.019775 
	C89.811638,509.019775 89.535751,509.071320 89.535255,508.855011 
	C89.535255,508.855011 89.486618,509.045441 88.810020,508.564026 
	C87.527748,508.086884 86.245483,507.609741 84.588432,506.718414 
	C84.051186,506.634888 83.513931,506.551361 82.325500,506.154266 
	C81.846169,506.113708 81.366837,506.073151 80.731361,505.727844 
	C80.731361,505.727844 80.434959,505.560730 80.434959,505.560730 
	C80.434959,505.560730 80.156982,505.756470 79.423683,505.282166 
	C78.847298,505.209442 78.270912,505.136688 77.657379,504.813660 
	C77.657379,504.813660 77.423134,504.724182 77.423134,504.724182 
	C77.423134,504.724182 77.353241,504.964294 76.529388,504.550293 
	C75.004944,504.419617 73.480499,504.288910 71.252884,503.814087 
	C65.509163,504.564484 59.765434,505.314911 53.281990,506.086517 
	C35.669270,511.744141 29.098747,532.736389 34.947216,549.358032 
	C38.946682,560.724670 48.212818,567.385559 56.942421,574.491272 
	C65.273384,581.272522 74.683411,586.780151 80.274330,596.541016 
	C87.658218,609.432007 80.491730,625.723022 66.383820,627.028442 
	C54.451752,628.132507 44.792770,623.366821 37.642002,613.882507 
	C35.791946,611.428772 34.952049,608.213379 33.452572,604.918091 
	C32.601414,611.038208 31.489992,616.606018 31.229687,622.213318 
	C31.138300,624.181885 32.619987,626.958862 34.264618,628.151978 
	C44.104939,635.290649 55.442970,637.600891 67.334930,636.674561 
	C88.136604,635.054199 101.653664,619.142090 99.611877,598.996643 
	C98.247490,585.534668 89.783035,576.539978 80.012329,568.370117 
	C70.768669,560.640869 59.617596,555.147644 52.497032,544.599060 
	C52.389389,544.363953 52.206394,544.240173 51.780594,543.403564 
	C51.582142,543.205566 51.383694,543.007629 51.325813,542.584351 
	C51.285259,542.372437 51.157082,542.270874 50.730255,541.439697 
	C50.540611,541.221985 50.350971,541.004333 50.332573,540.572083 
	C50.295437,540.352661 50.165474,540.244141 49.850159,539.343262 
	C49.599731,538.802734 49.349300,538.262207 49.295418,537.548706 
	C49.276295,537.334839 49.159279,537.225220 48.926121,536.263916 
	C48.935741,532.452942 48.945362,528.641907 49.235550,524.703003 
	C49.431152,524.516663 49.422863,524.340027 49.728882,523.557922 
	C49.815994,523.029663 49.903103,522.501465 50.539845,521.661255 
	C51.315842,520.422729 52.091839,519.184265 52.958366,517.947571 
	C52.958366,517.947571 52.942402,517.858398 53.486351,517.664124 
M131.932251,630.772705 
	C135.629822,632.368835 139.327377,633.964966 143.788208,635.843079 
	C144.870621,635.851562 145.953033,635.860107 147.519882,636.214050 
	C148.663101,636.091370 149.806320,635.968689 151.801437,635.919006 
	C153.191101,635.727356 154.580750,635.535706 156.631714,635.441528 
	C158.071701,634.911926 159.511688,634.382324 161.664017,633.834656 
	C162.469498,633.351990 163.274979,632.869324 164.397675,632.481689 
	C164.638062,632.380188 164.739670,632.200195 165.273834,631.840759 
	C165.512497,631.550903 165.751160,631.260986 166.664276,630.845398 
	C170.772659,627.268677 171.945297,622.670227 171.937943,616.746033 
	C168.470886,619.815491 165.692429,622.275330 162.132568,624.846436 
	C160.430679,625.531372 158.728790,626.216309 156.429703,626.719604 
	C155.643890,626.886597 154.858078,627.053589 153.218765,627.123230 
	C152.360001,627.107117 151.501236,627.091003 150.609848,626.847595 
	C150.609848,626.847595 150.471664,627.030334 149.556213,626.606079 
	C148.905701,626.434937 148.255203,626.263794 147.649826,625.877136 
	C147.649826,625.877136 147.360580,625.813171 147.360580,625.813171 
	C147.360580,625.813171 147.231155,626.074524 146.482788,625.969849 
	C142.043091,623.135681 140.996201,618.462463 140.949356,613.884033 
	C140.738205,593.242554 140.873734,572.597595 140.909760,551.953918 
	C140.910217,551.691895 141.244446,551.430359 141.685730,550.783081 
	C150.368286,550.783081 159.309555,550.783081 168.588394,550.783081 
	C169.135162,547.862915 169.621460,545.265808 170.191315,542.222412 
	C159.879868,542.222412 150.476700,542.222412 140.429901,542.222412 
	C141.080063,532.508362 141.707260,523.137451 142.350998,513.519409 
	C135.790833,513.519409 129.377136,513.519409 122.910271,513.519409 
	C123.411690,523.194214 123.905365,532.719727 124.421753,542.683350 
	C119.130722,542.683350 114.702682,542.683350 109.687775,542.683350 
	C109.862862,545.833801 110.013847,548.550476 110.181061,551.559204 
	C115.035759,551.559204 119.427849,551.559204 124.111923,551.559204 
	C124.111923,553.704651 124.112053,555.520691 124.111900,557.336731 
	C124.110413,574.323853 123.931519,591.313599 124.185593,608.296936 
	C124.304573,616.250061 124.785461,624.353638 131.932251,630.772705 
M617.764954,635.913757 
	C618.833313,635.785889 619.901611,635.658081 621.739807,635.672913 
	C627.458191,633.436157 633.176514,631.199341 639.589417,628.834595 
	C655.030579,617.949951 661.181458,602.561890 659.666382,584.335510 
	C656.448730,545.629089 619.375732,532.509827 592.347351,545.817627 
	C574.524048,554.593140 566.587280,570.048523 566.699463,589.682556 
	C566.806641,608.450073 574.996765,622.441223 591.681946,631.058350 
	C591.681946,631.058350 591.671936,631.007080 592.313171,631.599854 
	C592.881531,631.709473 593.449951,631.819092 594.347473,632.428162 
	C594.911255,632.579346 595.475037,632.730469 596.483521,633.367004 
	C597.330994,633.548035 598.178406,633.729065 599.520447,634.457581 
	C602.020874,634.868530 604.521301,635.279480 607.757690,635.893250 
	C608.519226,635.875305 609.280701,635.857422 610.640137,636.226379 
	C612.744690,636.102478 614.849304,635.978516 617.764954,635.913757 
M482.707825,513.454346 
	C482.712738,513.681702 482.828186,513.808594 483.046722,514.744019 
	C483.290741,516.222229 483.534760,517.700378 483.566803,519.708984 
	C483.727783,520.430298 483.888733,521.151672 484.033813,522.826172 
	C484.724213,559.853149 486.295197,596.899231 481.598999,633.931396 
	C489.312256,633.931396 496.995819,633.931396 503.530884,633.931396 
	C502.571167,616.841370 501.628540,600.055969 500.669403,582.976318 
	C517.655884,584.613831 533.356201,585.655212 546.212158,573.950012 
	C559.190308,562.133545 562.239685,547.388733 558.320801,530.565979 
	C558.303406,530.330566 558.176758,530.207886 557.870422,529.344666 
	C557.635803,528.834473 557.401184,528.324219 557.366638,527.577332 
	C557.331299,527.333496 557.190796,527.202271 556.901489,526.543762 
	C556.796875,526.357483 556.692200,526.171143 556.648071,525.561523 
	C556.502625,525.291687 556.280090,525.124329 555.898132,524.395691 
	C555.222534,523.278748 554.546936,522.161804 553.725220,520.411499 
	C552.454834,519.003540 551.184448,517.595581 549.716125,515.675293 
	C549.418701,515.474915 549.121338,515.274475 548.600647,514.455627 
	C546.050537,512.802063 543.500366,511.148499 540.436707,509.153015 
	C540.233948,509.118622 540.031189,509.084259 539.705444,508.710632 
	C539.515686,508.465820 539.305481,508.446686 538.462402,508.179504 
	C536.569824,507.582123 534.677246,506.984741 532.280945,506.050476 
	C531.503967,505.984833 530.726990,505.919220 529.185242,505.487946 
	C527.779480,505.371765 526.373718,505.255585 524.661682,504.803589 
	C524.091125,504.827637 523.520569,504.851715 522.164429,504.609589 
	C520.795288,504.684082 519.426147,504.758575 517.419434,504.565521 
	C515.627075,504.758636 513.834717,504.951752 511.133820,505.080414 
	C508.438660,505.321594 505.743500,505.562775 502.340424,505.574249 
	C500.908356,505.766479 499.476257,505.958679 497.105438,506.091797 
	C492.093597,506.317017 487.081757,506.542236 481.620575,506.551514 
	C481.772583,507.295593 481.924561,508.039703 482.111298,509.706116 
	C482.384644,510.899384 482.657990,512.092651 482.707825,513.454346 
M520.177185,64.495644 
	C494.633240,53.343910 469.089264,42.192169 443.353333,30.956615 
	C443.353333,154.791519 443.353333,278.126953 443.353333,401.392517 
	C448.945374,401.392517 454.188782,401.392517 459.835938,401.392517 
	C459.835938,398.676270 459.835205,396.374542 459.835999,394.072784 
	C459.864685,311.939117 459.923828,229.805435 459.826202,147.671906 
	C459.821686,143.877991 461.033539,142.169434 464.445831,140.759171 
	C492.370453,129.218216 520.225586,117.508781 548.083923,105.807800 
	C558.903137,101.263512 569.676270,96.609344 581.400452,91.608521 
	C560.558838,82.403725 540.702759,73.634186 520.177185,64.495644 
M342.631378,218.233521 
	C342.505524,209.764542 342.010559,201.279861 342.369751,192.831497 
	C342.660797,185.986496 345.485382,183.802765 352.306702,183.778503 
	C366.300995,183.728729 380.295593,183.749878 394.290039,183.772659 
	C395.388672,183.774445 396.486908,184.016251 398.052826,184.201935 
	C398.052826,193.447906 397.962128,202.412140 398.138855,211.371109 
	C398.169617,212.930420 398.898193,215.262924 400.039246,215.880341 
	C405.683594,218.934448 411.574707,221.532486 417.546112,224.370834 
	C417.546112,204.056717 417.546112,184.312088 417.546112,164.436172 
	C392.796295,164.436172 368.332733,164.096939 343.885986,164.590515 
	C332.946747,164.811386 324.298218,173.207245 323.265289,184.213028 
	C322.273041,194.786163 322.669983,205.487793 322.406403,216.131714 
	C322.063995,229.960220 328.238159,239.380569 340.883087,245.149017 
	C357.488464,252.724167 373.830353,260.875061 390.339478,268.664093 
	C395.277283,270.993774 397.650543,274.807526 397.688538,280.075195 
	C397.799072,295.388306 397.797638,310.702271 397.808533,326.015961 
	C397.808685,326.245331 397.403107,326.475006 396.936829,326.970062 
	C395.208466,326.339966 393.313751,325.802582 391.550934,324.981934 
	C379.051941,319.162933 366.685272,313.045715 354.061554,307.513824 
	C345.951447,303.959869 341.548523,298.577393 342.165100,289.493408 
	C342.321259,287.193024 342.302826,284.799530 341.822906,282.565216 
	C341.491608,281.022705 340.573090,279.000488 339.322205,278.366760 
	C334.061707,275.701752 328.577423,273.478302 323.021851,271.025574 
	C323.021851,281.308044 322.596497,291.079620 323.148651,300.795654 
	C323.641846,309.474731 328.077118,316.214600 336.107758,320.087646 
	C357.187317,330.253998 378.218323,340.528778 399.452454,350.363617 
	C410.078094,355.285004 417.433044,350.711304 417.640503,339.041931 
	C417.989807,319.390503 418.151154,299.714874 417.554626,280.074860 
	C417.155121,266.921082 411.213043,256.769806 398.498535,250.981522 
	C383.073517,243.959259 367.952057,236.270844 352.688416,228.893082 
	C348.248047,226.746780 344.158295,224.289230 342.631378,218.233521 
M504.934601,325.497711 
	C504.938873,312.499817 505.205444,299.494110 504.816986,286.507965 
	C504.663910,281.390411 506.355255,278.710846 510.961182,276.652039 
	C527.481445,269.267731 543.803101,261.440613 560.279053,253.955215 
	C574.351196,247.561920 580.367798,236.131668 580.823059,221.357681 
	C581.135986,211.202637 580.981506,201.027969 580.832397,190.865067 
	C580.584351,173.961075 570.886597,164.319977 554.038330,164.248993 
	C532.375427,164.157700 510.711945,164.203384 489.048706,164.213959 
	C487.787170,164.214569 486.525757,164.428772 485.518372,164.520447 
	C485.518372,227.118805 485.518372,289.290558 485.518372,351.835388 
	C492.271179,348.645172 498.543671,345.681885 504.934631,342.662628 
	C504.934631,337.146790 504.934631,331.821503 504.934601,325.497711 
M490.244354,757.507507 
	C490.232880,753.008728 489.903381,748.479492 490.330902,744.022827 
	C490.581512,741.410217 491.291168,737.947083 493.096771,736.551514 
	C497.864319,732.866272 502.991913,729.019043 508.611847,727.197632 
	C519.625854,723.628235 527.647156,728.961853 529.872620,740.290405 
	C530.637329,744.182800 531.025208,748.228027 530.954712,752.192261 
	C530.627747,770.586609 530.079407,788.977112 529.607239,807.490784 
	C535.216736,807.490784 541.959290,807.490784 549.006836,807.490784 
	C548.604431,804.693787 548.001404,802.250854 547.939941,799.794373 
	C547.494690,781.989197 547.202148,764.180176 546.753723,746.375122 
	C546.657898,742.569519 546.603455,738.655579 545.695496,734.998779 
	C543.373230,725.645630 538.644958,718.085327 528.449219,715.704956 
	C519.865417,713.700867 511.486877,714.464661 503.910767,719.142273 
	C498.613434,722.413025 493.716034,726.331482 488.645660,729.956604 
	C477.621490,712.661743 462.960052,709.597229 445.405975,721.263855 
	C441.762604,723.685303 438.483673,726.655212 434.727325,729.616333 
	C434.727325,725.028015 434.727325,720.991150 434.727325,716.932678 
	C428.224243,716.932678 421.832092,716.932678 415.578247,716.932678 
	C419.468842,747.328186 419.084717,777.412231 415.652954,807.581665 
	C422.627777,807.581665 429.402161,807.581665 436.339996,807.581665 
	C435.825623,803.909729 435.017395,800.490295 434.921570,797.050903 
	C434.494995,781.745178 434.848267,766.393066 433.773773,751.138489 
	C433.055237,740.936951 437.696808,735.067932 445.596924,730.166260 
	C459.670837,721.433899 473.384125,727.679565 473.889618,744.068298 
	C474.422577,761.345825 473.574554,778.670288 473.149689,795.969788 
	C473.054779,799.834351 472.209015,803.680420 471.712341,807.508423 
	C479.071930,807.508423 485.849945,807.508423 491.403412,807.508423 
	C491.013641,791.000916 490.629974,774.752869 490.244354,757.507507 
M331.127655,603.447876 
	C337.827850,613.125183 344.506775,622.817322 351.267517,632.452209 
	C351.824677,633.246216 352.928619,634.144165 353.792786,634.158875 
	C361.538910,634.291077 369.288269,634.236084 376.063812,634.236084 
	C361.357635,616.274109 346.461884,598.080566 331.105560,579.324524 
	C344.644257,566.859436 357.759003,554.784729 370.924133,542.663635 
	C365.515442,542.663635 359.714905,542.591797 353.919830,542.736938 
	C352.994202,542.760071 351.859497,543.561401 351.218658,544.332886 
	C347.335327,549.008240 343.857056,554.053223 339.696045,558.457397 
	C332.622955,565.943909 325.144257,573.047180 317.685181,580.461426 
	C317.685181,552.928162 317.685181,526.128784 317.685181,499.196625 
	C311.354218,499.196625 304.440948,499.196625 298.411774,499.196625 
	C300.955353,544.350586 301.865143,589.134216 297.887054,633.969116 
	C304.722961,633.969116 311.959473,633.969116 318.408539,633.969116 
	C317.679962,618.280823 316.961700,602.815186 316.200592,586.426453 
	C317.730682,587.342346 318.201874,587.484253 318.460602,587.800171 
	C322.562103,592.807617 326.636322,597.837402 331.127655,603.447876 
M457.724396,618.451660 
	C458.072327,616.876221 458.420258,615.300781 458.768219,613.725281 
	C445.679199,626.818359 431.225647,633.195129 413.991455,622.906067 
	C401.495148,615.445618 398.876984,602.578613 397.768463,589.460083 
	C398.526947,589.054810 398.671204,588.910400 398.815979,588.909851 
	C416.632202,588.846130 434.449219,588.874512 452.264496,588.711548 
	C464.581665,588.598816 464.874603,588.430725 462.779327,576.230774 
	C460.253479,561.523987 453.513367,549.149536 438.876404,543.674561 
	C424.468048,538.285095 410.124359,539.938660 397.694122,549.433044 
	C382.002380,561.418701 375.792725,584.310547 382.345734,604.581116 
	C388.396667,623.298889 402.893860,635.018677 424.849884,636.290771 
	C442.037476,637.286560 452.222656,631.973877 457.724396,618.451660 
M521.632874,409.993713 
	C525.369507,401.346741 524.386780,395.726776 517.454773,389.400726 
	C505.988770,378.937012 491.329803,376.502838 476.957001,373.157715 
	C474.967743,383.338959 475.331879,383.334473 484.248657,386.368652 
	C492.018860,389.012726 499.790649,392.058228 506.914032,396.075012 
	C513.183105,399.610107 512.961243,404.270142 507.190002,408.688995 
	C504.726593,410.575134 501.826324,412.046478 498.917389,413.169678 
	C480.064728,420.448975 460.406525,421.747711 440.485199,420.508575 
	C425.652100,419.585938 410.942932,417.687805 397.574402,410.592285 
	C388.811157,405.941071 388.479401,399.231781 397.290222,394.780518 
	C405.178864,390.795197 413.961639,388.594482 422.296844,385.464966 
	C423.811188,384.896362 426.033173,383.832703 426.257324,382.674194 
	C426.826019,379.735138 426.446259,376.612518 426.446259,373.114197 
	C420.044678,374.652435 414.719147,375.841736 409.446442,377.231598 
	C406.076904,378.119781 402.529541,378.830597 399.514740,380.459229 
	C394.004150,383.436127 388.310364,386.439911 383.638885,390.516388 
	C377.010498,396.300629 376.675903,405.987457 382.487885,412.459351 
	C385.417938,415.722137 389.121704,418.536530 392.958984,420.693970 
	C406.856628,428.507721 422.160217,431.202454 437.864288,432.228516 
	C456.914001,433.473206 475.828613,432.644135 494.201172,427.173004 
	C504.532837,424.096344 514.805847,420.351257 521.632874,409.993713 
M858.489624,542.389465 
	C853.389465,542.389465 848.289307,542.389465 842.544739,542.389465 
	C843.194580,532.592896 843.816833,523.211975 844.457947,513.547546 
	C837.906555,513.547546 831.332031,513.547546 825.108521,513.547546 
	C825.610046,523.264160 826.102112,532.798645 826.613831,542.712402 
	C821.191345,542.712402 816.740540,542.712402 812.206604,542.712402 
	C812.206604,545.692383 812.206604,548.326904 812.206604,551.455872 
	C816.922119,551.455872 821.470154,551.455872 826.268921,551.455872 
	C826.268921,559.749512 826.176880,567.552185 826.288940,575.351807 
	C826.492065,589.489441 826.365417,603.653564 827.248901,617.752014 
	C827.841858,627.212646 834.848511,634.415833 844.069580,635.576721 
	C849.525085,636.263489 855.342651,635.898193 860.744141,634.781250 
	C869.802246,632.908142 873.655090,627.093811 873.423584,616.986511 
	C871.631897,618.667847 870.173706,620.194397 868.555298,621.526245 
	C863.025269,626.076904 856.846741,629.036682 849.748291,626.006226 
	C843.329895,623.266052 842.998657,617.030029 842.954712,611.108459 
	C842.839905,595.619751 842.866455,580.129944 842.840698,564.640564 
	C842.833313,560.188965 842.839539,555.737427 842.839539,550.913513 
	C850.085815,550.913513 856.864075,550.915222 863.642334,550.913086 
	C871.656555,550.910645 871.656555,550.909180 871.884949,542.383179 
	C867.750977,542.383179 863.615845,542.383179 858.489624,542.389465 
M582.559204,738.409485 
	C579.296143,727.064575 588.140259,720.903320 599.412231,723.275269 
	C606.342224,724.733643 610.357788,729.607117 614.200012,735.452454 
	C614.930786,731.705383 614.621460,728.087341 615.013306,724.546936 
	C615.450745,720.595032 613.735352,718.289368 610.212402,717.729858 
	C603.234436,716.621521 596.046265,714.649170 589.190247,715.369202 
	C568.271362,717.566223 559.534607,738.710388 572.639221,755.114929 
	C576.810913,760.337158 582.827332,764.061401 587.850830,768.634521 
	C592.721619,773.068481 598.287170,777.098694 601.962341,782.404419 
	C607.811035,790.848022 602.720642,800.501587 592.586975,801.843506 
	C583.008789,803.111877 574.558289,798.064819 569.881348,788.293823 
	C569.185730,786.840393 568.449463,785.406311 567.731995,783.963318 
	C567.141907,784.081665 566.551819,784.200012 565.961731,784.318359 
	C565.961731,788.737427 565.562134,793.208496 566.127136,797.554199 
	C566.417969,799.791260 567.907654,802.654663 569.745972,803.778015 
	C579.676025,809.846191 590.533203,811.503723 601.863281,808.730469 
	C608.351624,807.142395 613.811951,803.961731 616.960999,797.560303 
	C622.620300,786.056091 619.805054,772.301086 609.764038,764.274048 
	C604.579895,760.129700 598.855713,756.608459 593.984009,752.141968 
	C589.806152,748.311584 586.494324,743.536682 582.559204,738.409485 
M204.871658,582.502930 
	C204.881088,579.507568 204.763916,576.504883 204.935898,573.518860 
	C205.104767,570.586609 204.640213,567.068542 206.074982,564.861572 
	C210.392502,558.220215 216.877106,554.235474 224.777924,552.902161 
	C231.346420,551.793701 235.706955,555.221741 239.244568,561.302795 
	C240.786743,556.855286 241.937408,553.272461 243.269333,549.758423 
	C245.195663,544.676147 244.466675,542.802429 239.041000,541.680725 
	C228.596008,539.521240 219.257980,541.693787 211.648590,549.621704 
	C210.033005,551.304932 208.301147,552.876587 205.673370,555.417908 
	C205.673370,550.345825 205.673370,546.793762 205.673370,542.992920 
	C198.980957,542.992920 192.717789,542.992920 187.214722,542.992920 
	C187.715164,558.277588 188.624771,573.330872 188.584213,588.381653 
	C188.543243,603.586975 187.560577,618.789795 186.992630,633.935791 
	C193.536789,633.935791 200.580612,633.935791 207.911774,633.935791 
	C203.731430,617.083374 205.072159,600.250244 204.871658,582.502930 
M375.041656,772.484680 
	C374.418549,784.171082 373.795410,795.857422 373.175385,807.485962 
	C380.015686,807.485962 387.057343,807.485962 393.121063,807.485962 
	C392.485291,792.298218 391.489441,777.398926 391.341522,762.491272 
	C391.191803,747.398071 391.880890,732.296570 392.208344,716.926514 
	C386.067413,716.926514 379.540588,716.926514 373.857758,716.926514 
	C374.257263,735.352173 374.648987,753.420715 375.041656,772.484680 
M257.059326,634.311768 
	C263.369934,634.311768 269.680511,634.311768 275.987396,634.311768 
	C272.275635,603.871277 273.675842,573.657104 274.995880,543.153564 
	C268.549805,543.153564 261.972046,543.153564 254.928528,543.153564 
	C255.363556,545.776306 255.883301,548.001587 256.083466,550.255249 
	C258.430725,576.684998 258.713074,603.101379 255.565598,629.501648 
	C255.377243,631.081604 255.952240,632.752502 257.059326,634.311768 
M695.974609,599.304504 
	C696.440796,580.613953 696.906982,561.923340 697.379211,542.988159 
	C691.097900,542.988159 684.525330,542.988159 677.938354,542.988159 
	C681.223328,573.516296 681.448242,603.773071 677.614258,634.067871 
	C684.926636,634.067871 692.007141,634.067871 698.633545,634.067871 
	C697.735901,622.644226 696.856262,611.450745 695.974609,599.304504 
M681.840027,523.789917 
	C682.834534,524.362854 683.764221,525.195801 684.835022,525.463074 
	C689.109009,526.530151 693.162659,525.994751 696.269165,522.620056 
	C699.223877,519.410278 699.410950,513.401428 696.951416,509.584137 
	C694.397644,505.620636 690.577820,504.342133 686.196533,505.225189 
	C677.656067,506.946411 675.447327,517.308228 681.840027,523.789917 
M387.448975,679.672974 
	C385.980469,679.474670 384.510376,679.096863 383.043701,679.109558 
	C377.085022,679.161072 373.055634,683.247925 373.040955,689.112793 
	C373.025513,695.287354 377.078125,699.650391 383.088501,699.719116 
	C387.965210,699.774841 391.257355,697.299683 392.904602,692.775391 
	C394.758240,687.684326 393.275574,683.857300 387.448975,679.672974 
M267.836609,525.450073 
	C275.204376,522.817993 278.109741,514.976868 273.784882,509.396606 
	C270.619080,505.311920 265.263916,503.862152 260.873718,505.901276 
	C256.908691,507.742950 254.395767,512.931702 255.439301,517.122375 
	C256.897400,522.977844 260.726532,525.775574 267.836609,525.450073 
z"/>
<path fill="#F8F9F1" opacity="1.000000" stroke="none" 
	d="
M520.511963,64.680145 
	C540.702759,73.634186 560.558838,82.403725 581.400452,91.608521 
	C569.676270,96.609344 558.903137,101.263512 548.083923,105.807800 
	C520.225586,117.508781 492.370453,129.218216 464.445831,140.759171 
	C461.033539,142.169434 459.821686,143.877991 459.826202,147.671906 
	C459.923828,229.805435 459.864685,311.939117 459.835999,394.072784 
	C459.835205,396.374542 459.835938,398.676270 459.835938,401.392517 
	C454.188782,401.392517 448.945374,401.392517 443.353333,401.392517 
	C443.353333,278.126953 443.353333,154.791519 443.353333,30.956615 
	C469.089264,42.192169 494.633240,53.343910 520.511963,64.680145 
M473.570160,119.135025 
	C495.334656,109.921532 517.099121,100.708038 540.028320,91.001511 
	C512.547913,78.966263 486.396271,67.512939 460.077179,55.986286 
	C460.077179,78.934776 460.077179,101.385521 460.077179,124.347588 
	C464.562622,122.605247 468.703033,120.996918 473.570160,119.135025 
z"/>
<path fill="#F7F8F1" opacity="1.000000" stroke="none" 
	d="
M342.735107,218.637344 
	C344.158295,224.289230 348.248047,226.746780 352.688416,228.893082 
	C367.952057,236.270844 383.073517,243.959259 398.498535,250.981522 
	C411.213043,256.769806 417.155121,266.921082 417.554626,280.074860 
	C418.151154,299.714874 417.989807,319.390503 417.640503,339.041931 
	C417.433044,350.711304 410.078094,355.285004 399.452454,350.363617 
	C378.218323,340.528778 357.187317,330.253998 336.107758,320.087646 
	C328.077118,316.214600 323.641846,309.474731 323.148651,300.795654 
	C322.596497,291.079620 323.021851,281.308044 323.021851,271.025574 
	C328.577423,273.478302 334.061707,275.701752 339.322205,278.366760 
	C340.573090,279.000488 341.491608,281.022705 341.822906,282.565216 
	C342.302826,284.799530 342.321259,287.193024 342.165100,289.493408 
	C341.548523,298.577393 345.951447,303.959869 354.061554,307.513824 
	C366.685272,313.045715 379.051941,319.162933 391.550934,324.981934 
	C393.313751,325.802582 395.208466,326.339966 396.936829,326.970062 
	C397.403107,326.475006 397.808685,326.245331 397.808533,326.015961 
	C397.797638,310.702271 397.799072,295.388306 397.688538,280.075195 
	C397.650543,274.807526 395.277283,270.993774 390.339478,268.664093 
	C373.830353,260.875061 357.488464,252.724167 340.883087,245.149017 
	C328.238159,239.380569 322.063995,229.960220 322.406403,216.131714 
	C322.669983,205.487793 322.273041,194.786163 323.265289,184.213028 
	C324.298218,173.207245 332.946747,164.811386 343.885986,164.590515 
	C368.332733,164.096939 392.796295,164.436172 417.546112,164.436172 
	C417.546112,184.312088 417.546112,204.056717 417.546112,224.370834 
	C411.574707,221.532486 405.683594,218.934448 400.039246,215.880341 
	C398.898193,215.262924 398.169617,212.930420 398.138855,211.371109 
	C397.962128,202.412140 398.052826,193.447906 398.052826,184.201935 
	C396.486908,184.016251 395.388672,183.774445 394.290039,183.772659 
	C380.295593,183.749878 366.300995,183.728729 352.306702,183.778503 
	C345.485382,183.802765 342.660797,185.986496 342.369751,192.831497 
	C342.010559,201.279861 342.505524,209.764542 342.735107,218.637344 
z"/>
<path fill="#F8F9F2" opacity="1.000000" stroke="none" 
	d="
M504.934631,325.996979 
	C504.934631,331.821503 504.934631,337.146790 504.934631,342.662628 
	C498.543671,345.681885 492.271179,348.645172 485.518372,351.835388 
	C485.518372,289.290558 485.518372,227.118805 485.518372,164.520447 
	C486.525757,164.428772 487.787170,164.214569 489.048706,164.213959 
	C510.711945,164.203384 532.375427,164.157700 554.038330,164.248993 
	C570.886597,164.319977 580.584351,173.961075 580.832397,190.865067 
	C580.981506,201.027969 581.135986,211.202637 580.823059,221.357681 
	C580.367798,236.131668 574.351196,247.561920 560.279053,253.955215 
	C543.803101,261.440613 527.481445,269.267731 510.961182,276.652039 
	C506.355255,278.710846 504.663910,281.390411 504.816986,286.507965 
	C505.205444,299.494110 504.938873,312.499817 504.934631,325.996979 
M529.736694,246.341049 
	C536.806519,243.031494 543.855591,239.676727 550.951965,236.425186 
	C557.959900,233.214172 560.996094,227.538544 561.079773,220.126846 
	C561.179260,211.307129 561.189941,202.483459 561.041077,193.664856 
	C560.920654,186.529449 557.991089,183.765701 550.882935,183.756088 
	C537.068115,183.737411 523.253296,183.759964 509.438477,183.798553 
	C508.026154,183.802490 506.614471,184.031525 505.150543,184.160690 
	C505.150543,208.722198 505.150543,232.764969 505.150543,257.468750 
	C513.426575,253.765656 521.262512,250.259506 529.736694,246.341049 
z"/>
<path fill="#F6F7F0" opacity="1.000000" stroke="none" 
	d="
M490.245331,758.006226 
	C490.629974,774.752869 491.013641,791.000916 491.403412,807.508423 
	C485.849945,807.508423 479.071930,807.508423 471.712341,807.508423 
	C472.209015,803.680420 473.054779,799.834351 473.149689,795.969788 
	C473.574554,778.670288 474.422577,761.345825 473.889618,744.068298 
	C473.384125,727.679565 459.670837,721.433899 445.596924,730.166260 
	C437.696808,735.067932 433.055237,740.936951 433.773773,751.138489 
	C434.848267,766.393066 434.494995,781.745178 434.921570,797.050903 
	C435.017395,800.490295 435.825623,803.909729 436.339996,807.581665 
	C429.402161,807.581665 422.627777,807.581665 415.652954,807.581665 
	C419.084717,777.412231 419.468842,747.328186 415.578247,716.932678 
	C421.832092,716.932678 428.224243,716.932678 434.727325,716.932678 
	C434.727325,720.991150 434.727325,725.028015 434.727325,729.616333 
	C438.483673,726.655212 441.762604,723.685303 445.405975,721.263855 
	C462.960052,709.597229 477.621490,712.661743 488.645660,729.956604 
	C493.716034,726.331482 498.613434,722.413025 503.910767,719.142273 
	C511.486877,714.464661 519.865417,713.700867 528.449219,715.704956 
	C538.644958,718.085327 543.373230,725.645630 545.695496,734.998779 
	C546.603455,738.655579 546.657898,742.569519 546.753723,746.375122 
	C547.202148,764.180176 547.494690,781.989197 547.939941,799.794373 
	C548.001404,802.250854 548.604431,804.693787 549.006836,807.490784 
	C541.959290,807.490784 535.216736,807.490784 529.607239,807.490784 
	C530.079407,788.977112 530.627747,770.586609 530.954712,752.192261 
	C531.025208,748.228027 530.637329,744.182800 529.872620,740.290405 
	C527.647156,728.961853 519.625854,723.628235 508.611847,727.197632 
	C502.991913,729.019043 497.864319,732.866272 493.096771,736.551514 
	C491.291168,737.947083 490.581512,741.410217 490.330902,744.022827 
	C489.903381,748.479492 490.232880,753.008728 490.245331,758.006226 
z"/>
<path fill="#F4F6ED" opacity="1.000000" stroke="none" 
	d="
M330.922241,603.154968 
	C326.636322,597.837402 322.562103,592.807617 318.460602,587.800171 
	C318.201874,587.484253 317.730682,587.342346 316.200592,586.426453 
	C316.961700,602.815186 317.679962,618.280823 318.408539,633.969116 
	C311.959473,633.969116 304.722961,633.969116 297.887054,633.969116 
	C301.865143,589.134216 300.955353,544.350586 298.411774,499.196625 
	C304.440948,499.196625 311.354218,499.196625 317.685181,499.196625 
	C317.685181,526.128784 317.685181,552.928162 317.685181,580.461426 
	C325.144257,573.047180 332.622955,565.943909 339.696045,558.457397 
	C343.857056,554.053223 347.335327,549.008240 351.218658,544.332886 
	C351.859497,543.561401 352.994202,542.760071 353.919830,542.736938 
	C359.714905,542.591797 365.515442,542.663635 370.924133,542.663635 
	C357.759003,554.784729 344.644257,566.859436 331.105560,579.324524 
	C346.461884,598.080566 361.357635,616.274109 376.063812,634.236084 
	C369.288269,634.236084 361.538910,634.291077 353.792786,634.158875 
	C352.928619,634.144165 351.824677,633.246216 351.267517,632.452209 
	C344.506775,622.817322 337.827850,613.125183 330.922241,603.154968 
z"/>
<path fill="#F8FAF2" opacity="1.000000" stroke="none" 
	d="
M482.069916,506.767456 
	C487.081757,506.542236 492.093597,506.317017 497.799225,506.355286 
	C500.011475,506.347198 501.529907,506.075623 503.048340,505.804016 
	C505.743500,505.562775 508.438660,505.321594 511.856262,505.363647 
	C514.404785,505.375610 516.230896,505.104340 518.057007,504.833069 
	C519.426147,504.758575 520.795288,504.684082 522.683594,504.980682 
	C523.791138,505.280975 524.379517,505.210205 524.967957,505.139404 
	C526.373718,505.255585 527.779480,505.371765 529.756958,505.942749 
	C531.147339,506.394165 531.966003,506.390778 532.784668,506.387390 
	C534.677246,506.984741 536.569824,507.582123 538.855957,508.541565 
	C539.421387,509.035828 539.614380,509.084595 539.828430,509.049866 
	C540.031189,509.084259 540.233948,509.118622 540.690857,509.671448 
	C542.317871,513.839966 544.060974,516.892761 548.823914,515.074097 
	C549.121338,515.274475 549.418701,515.474915 549.678589,516.217163 
	C548.925842,520.285461 551.229187,520.832397 553.871399,521.044861 
	C554.546936,522.161804 555.222534,523.278748 555.958618,524.927124 
	C556.115234,525.734802 556.304626,525.910217 556.587463,525.984741 
	C556.692200,526.171143 556.796875,526.357483 556.899414,526.984131 
	C556.897278,527.424438 557.166504,527.814026 557.166504,527.814026 
	C557.401184,528.324219 557.635803,528.834473 557.874756,529.876465 
	C557.879028,530.408264 558.108154,530.761353 558.108154,530.761353 
	C562.239685,547.388733 559.190308,562.133545 546.212158,573.950012 
	C533.356201,585.655212 517.655884,584.613831 500.669403,582.976318 
	C501.628540,600.055969 502.571167,616.841370 503.530884,633.931396 
	C496.995819,633.931396 489.312256,633.931396 481.598999,633.931396 
	C486.295197,596.899231 484.724213,559.853149 484.086609,522.075562 
	C484.019226,520.609497 483.899017,519.894043 483.778809,519.178589 
	C483.534760,517.700378 483.290741,516.222229 483.088623,514.191162 
	C483.130524,513.638367 482.931305,513.285889 482.931305,513.285889 
	C482.657990,512.092651 482.384644,510.899384 482.128845,508.994232 
	C482.120911,507.777374 482.095428,507.272400 482.069916,506.767456 
M501.907532,515.928406 
	C501.665924,533.490662 501.424316,551.052979 501.010529,569.005310 
	C500.949524,569.302246 501.009705,569.572144 501.531494,570.599609 
	C502.203522,571.800293 502.571716,573.544678 503.595154,574.116577 
	C512.637146,579.169495 531.016174,573.915894 535.952881,564.746094 
	C544.054382,549.697754 543.643860,534.691284 535.335266,519.273499 
	C535.328796,518.199219 535.722046,516.424500 535.254822,516.157898 
	C529.945557,513.128418 524.772705,509.229828 517.344360,511.914093 
	C516.883179,511.889740 516.421997,511.865387 515.420166,511.344360 
	C513.266052,511.748596 511.112000,512.152832 508.322632,512.799622 
	C507.870514,512.819336 507.418396,512.839050 506.511444,512.412598 
	C504.922333,513.141235 502.037170,511.588196 501.907532,515.928406 
z"/>
<path fill="#F6F8F0" opacity="1.000000" stroke="none" 
	d="
M591.809570,631.152222 
	C574.996765,622.441223 566.806641,608.450073 566.699463,589.682556 
	C566.587280,570.048523 574.524048,554.593140 592.347351,545.817627 
	C619.375732,532.509827 656.448730,545.629089 659.666382,584.335510 
	C661.181458,602.561890 655.030579,617.949951 638.866943,628.900879 
	C633.610352,630.415161 629.051819,631.792480 624.557800,633.355652 
	C623.265991,633.805054 622.160767,634.790466 620.969971,635.530212 
	C619.901611,635.658081 618.833313,635.785889 617.088989,635.634644 
	C614.289368,635.516846 612.165833,635.678223 610.042236,635.839539 
	C609.280701,635.857422 608.519226,635.875305 607.287292,635.451233 
	C604.219910,634.642822 601.622864,634.276428 599.025879,633.910095 
	C598.178406,633.729065 597.330994,633.548035 596.223511,632.845215 
	C595.315063,632.191833 594.666687,632.060303 594.018311,631.928711 
	C593.449951,631.819092 592.881531,631.709473 592.000427,631.338318 
	C591.687683,631.076782 591.809570,631.152222 591.809570,631.152222 
M622.954956,627.755005 
	C623.978699,627.195679 625.002380,626.636353 626.411682,625.572876 
	C626.789246,625.398560 627.166809,625.224243 627.578735,625.048462 
	C627.578735,625.048462 627.596497,625.023010 628.135559,624.440002 
	C630.362366,622.226868 632.968079,620.281738 634.754211,617.756897 
	C646.003113,601.855652 643.576355,571.814941 631.152893,556.975769 
	C620.591187,544.360352 596.177551,546.171082 589.427917,563.326721 
	C584.103210,576.860474 583.616211,590.374023 586.896790,604.426697 
	C586.896790,604.426697 587.052673,604.684387 587.544373,605.331543 
	C588.319031,607.566040 589.093628,609.800598 589.434692,612.458313 
	C590.289062,613.639221 591.143433,614.820068 592.569702,616.351562 
	C595.432495,619.164978 598.295227,621.978394 601.261414,624.952026 
	C601.261414,624.952026 601.616211,625.062927 602.393616,625.324158 
	C603.345825,625.844666 604.298035,626.365173 605.388977,627.020386 
	C605.388977,627.020386 605.763855,627.062134 606.689880,627.139465 
	C607.574097,627.412109 608.458252,627.684753 609.447021,628.063599 
	C609.447021,628.063599 609.734009,628.067993 610.682739,628.105896 
	C614.509399,627.894836 618.336060,627.683777 622.954956,627.755005 
z"/>
<path fill="#F6F8F0" opacity="1.000000" stroke="none" 
	d="
M51.185246,542.809753 
	C51.383694,543.007629 51.582142,543.205566 51.906273,543.965942 
	C52.125854,544.727051 52.275452,544.865601 52.480740,544.944092 
	C59.617596,555.147644 70.768669,560.640869 80.012329,568.370117 
	C89.783035,576.539978 98.247490,585.534668 99.611877,598.996643 
	C101.653664,619.142090 88.136604,635.054199 67.334930,636.674561 
	C55.442970,637.600891 44.104939,635.290649 34.264618,628.151978 
	C32.619987,626.958862 31.138300,624.181885 31.229687,622.213318 
	C31.489992,616.606018 32.601414,611.038208 33.452572,604.918091 
	C34.952049,608.213379 35.791946,611.428772 37.642002,613.882507 
	C44.792770,623.366821 54.451752,628.132507 66.383820,627.028442 
	C80.491730,625.723022 87.658218,609.432007 80.274330,596.541016 
	C74.683411,586.780151 65.273384,581.272522 56.942421,574.491272 
	C48.212818,567.385559 38.946682,560.724670 34.947216,549.358032 
	C29.098747,532.736389 35.669270,511.744141 53.880363,506.326599 
	C56.146973,506.697479 57.862888,507.136475 59.472366,506.887482 
	C61.942169,506.505371 64.323700,505.584961 66.771568,505.017670 
	C68.474640,504.622925 70.226173,504.437256 71.956055,504.158203 
	C73.480499,504.288910 75.004944,504.419617 76.989792,504.797150 
	C77.450203,505.044006 77.694527,505.063965 77.694527,505.063965 
	C78.270912,505.136688 78.847298,505.209442 79.894539,505.604523 
	C80.528435,506.016388 80.702469,506.051636 80.887497,506.032593 
	C81.366837,506.073151 81.846169,506.113708 82.698196,506.562012 
	C83.701660,507.024078 84.332436,507.078369 84.963211,507.132629 
	C86.245483,507.609741 87.527748,508.086884 89.152084,508.806396 
	C89.494141,509.048798 89.535751,509.071320 89.535751,509.071320 
	C89.535751,509.071320 89.811638,509.019775 89.890976,509.531036 
	C90.604668,512.683228 91.239021,515.324158 91.873375,517.965088 
	C91.883987,519.364990 91.894600,520.764832 91.433182,522.575073 
	C89.705597,522.966553 88.450035,522.947693 87.194473,522.928833 
	C87.194473,522.928833 87.005470,522.873413 87.018219,522.677124 
	C87.030975,522.480774 86.766678,522.156311 86.766685,522.156311 
	C85.960777,521.257263 85.154854,520.358215 84.195770,518.750061 
	C83.183853,516.612610 82.668800,514.620728 81.407890,513.851868 
	C75.370689,510.170319 68.746887,510.540375 62.129120,511.878967 
	C61.332745,512.040039 60.691494,512.968018 59.978340,513.540527 
	C59.790260,513.654114 59.602180,513.767761 58.948769,513.948914 
	C58.301617,514.094788 58.167385,514.222961 58.080742,514.401001 
	C57.282887,514.883972 56.485031,515.367004 55.210091,515.649658 
	C54.136135,516.252380 53.539265,517.055420 52.942398,517.858398 
	C52.942402,517.858398 52.958366,517.947571 52.541290,517.967529 
	C51.412884,519.316040 50.701550,520.644653 49.990211,521.973206 
	C49.903103,522.501465 49.815994,523.029663 49.392864,523.959595 
	C49.056847,524.361206 48.954987,524.830933 48.954987,524.830933 
	C48.945362,528.641907 48.935741,532.452942 48.930984,536.832764 
	C48.935844,537.401672 49.098869,537.721680 49.098869,537.721680 
	C49.349300,538.262207 49.599731,538.802734 49.901978,539.895386 
	C49.953793,540.447510 50.161335,540.786682 50.161335,540.786682 
	C50.350971,541.004333 50.540611,541.221985 50.846268,541.959961 
	C50.962280,542.480225 51.185246,542.809753 51.185246,542.809753 
z"/>
<path fill="#F8F9F2" opacity="1.000000" stroke="none" 
	d="
M320.219269,732.452820 
	C322.757446,734.284302 325.295624,736.115784 327.968079,738.634949 
	C328.031677,743.062439 330.946472,741.656189 332.813599,742.055725 
	C333.121613,742.230713 333.429657,742.405701 333.925812,743.166016 
	C334.871765,744.117615 335.629578,744.483765 336.387390,744.849976 
	C336.687500,744.825134 336.915253,744.941711 337.099243,745.785950 
	C338.213196,747.102783 339.298553,747.833313 340.383911,748.563782 
	C340.383911,748.563782 340.242096,748.751404 340.226440,749.067993 
	C339.813812,752.306274 341.504883,753.058289 343.971802,753.004272 
	C345.759796,755.515442 347.547821,758.026672 349.268219,761.263062 
	C349.775604,763.002930 350.350586,764.017517 350.925598,765.032166 
	C350.925598,765.032166 350.994598,765.054077 350.977783,765.217163 
	C350.997742,765.561218 351.086212,765.711792 351.226349,765.831970 
	C351.441650,766.300598 351.656982,766.769287 351.516357,767.706055 
	C349.478516,770.500000 348.836609,772.490051 352.724304,773.017456 
	C352.741638,775.713501 352.758972,778.409607 352.346222,781.543457 
	C348.984528,782.938416 350.419403,783.953186 351.876709,784.968262 
	C350.103424,788.865967 348.330139,792.763611 345.881531,796.830811 
	C342.121277,797.424194 340.722595,799.123047 341.228119,802.261719 
	C341.228119,802.261719 341.079468,802.046692 340.789337,802.078735 
	C336.657501,804.247009 332.815796,806.383301 328.974121,808.519531 
	C328.532501,808.644531 328.090912,808.769531 327.111572,808.653625 
	C325.708191,808.805420 324.842590,809.198120 323.976990,809.590820 
	C323.222076,809.695679 322.467194,809.800598 321.039062,809.616943 
	C317.595032,809.486938 314.824310,809.645508 312.053558,809.804077 
	C310.960785,809.792480 309.867981,809.780884 308.279053,809.279114 
	C303.728210,807.380127 299.677979,805.957825 295.601105,804.616455 
	C295.451569,804.567200 295.041107,805.310791 294.752197,805.684875 
	C294.752197,805.684875 294.303070,805.719299 294.052551,805.193115 
	C291.585388,803.423523 289.368683,802.180176 287.151978,800.936768 
	C287.152008,800.936768 287.057373,800.955505 287.042908,800.554504 
	C286.303986,799.419617 285.579529,798.685791 284.855072,797.951904 
	C284.772095,797.217102 284.689148,796.482300 284.979340,795.263428 
	C285.265320,794.194153 285.178162,793.608887 285.091003,793.023621 
	C285.146942,790.313416 285.202881,787.603271 285.764954,784.460083 
	C287.490845,784.020264 288.710663,784.013550 289.930450,784.006775 
	C290.543823,784.940186 291.157227,785.873657 291.848022,787.187866 
	C291.925476,787.568726 292.061615,787.714294 292.061615,787.714294 
	C292.943298,788.785583 293.824982,789.856812 294.880615,791.336060 
	C295.054565,791.743958 295.143982,791.805054 295.143982,791.805054 
	C295.347137,791.953430 295.550262,792.101868 295.921997,792.933655 
	C296.750336,794.077271 297.410126,794.537415 298.069885,794.997681 
	C298.604034,795.237305 299.138153,795.476990 299.914551,796.313538 
	C300.969086,797.200073 301.781281,797.489746 302.593506,797.779419 
	C303.321777,798.033508 304.050049,798.287598 305.110352,798.805969 
	C305.442352,799.070251 305.592468,799.066711 305.592468,799.066711 
	C305.841248,799.102783 306.090027,799.138916 306.709442,799.622192 
	C307.704041,800.106018 308.328033,800.142639 308.952026,800.179321 
	C309.523529,800.230408 310.095001,800.281555 310.874390,800.776123 
	C311.269226,801.481140 311.456207,801.742737 311.643188,802.004333 
	C311.758026,801.610107 311.872864,801.215942 311.987701,800.821716 
	C312.155579,800.767700 312.323425,800.713745 312.948486,801.057251 
	C315.279938,801.268372 317.154144,801.082092 319.028381,800.895813 
	C320.103241,800.676025 321.178131,800.456177 322.825012,800.431519 
	C323.940125,800.248291 324.483246,799.869812 325.026398,799.491272 
	C327.755402,797.113403 330.484436,794.735535 333.574036,792.033447 
	C333.934601,791.709167 334.060394,791.293945 334.060394,791.293945 
	C334.127625,791.018982 334.194824,790.743958 334.612946,790.060303 
	C334.963867,789.651672 335.051941,789.210449 335.051941,789.210449 
	C337.177551,781.838074 336.722839,774.804810 332.185059,767.866333 
	C332.067200,767.440063 331.901947,767.250000 331.901917,767.250000 
	C326.670197,762.389038 321.438446,757.528076 315.950348,752.324219 
	C315.694000,751.981384 315.541077,751.957153 315.541077,751.957153 
	C312.790955,749.826050 310.040802,747.694885 307.116455,744.902100 
	C304.652191,742.485291 302.362122,740.730103 300.072083,738.974976 
	C280.668549,722.449219 281.830505,693.508911 302.547211,681.520020 
	C312.121399,675.979309 322.586670,675.548645 332.953796,678.625488 
	C348.931732,683.367554 346.019104,682.983582 345.364807,696.665527 
	C345.288574,698.259888 344.892365,699.839050 343.676117,701.731628 
	C343.097778,700.560669 342.508545,699.394958 341.942780,698.217957 
	C335.806671,685.451843 315.917877,682.306824 306.303986,692.584595 
	C300.910187,698.350891 300.400787,708.682190 305.157318,716.780884 
	C305.909119,718.060913 306.854279,719.227417 307.845795,721.133179 
	C308.720245,722.519958 309.458954,723.219971 310.197693,723.919922 
	C311.955414,725.455200 313.713104,726.990417 315.405823,729.035095 
	C316.191467,734.486084 317.089722,735.021545 320.219269,732.452820 
M333.837128,748.259521 
	C333.888550,748.415894 333.939972,748.572205 333.991394,748.728577 
	C334.042236,748.571167 334.093079,748.413696 333.837128,748.259521 
z"/>
<path fill="#F3F5EC" opacity="1.000000" stroke="none" 
	d="
M457.597778,618.804810 
	C452.222656,631.973877 442.037476,637.286560 424.849884,636.290771 
	C402.893860,635.018677 388.396667,623.298889 382.345734,604.581116 
	C375.792725,584.310547 382.002380,561.418701 397.694122,549.433044 
	C410.124359,539.938660 424.468048,538.285095 438.876404,543.674561 
	C453.513367,549.149536 460.253479,561.523987 462.779327,576.230774 
	C464.874603,588.430725 464.581665,588.598816 452.264496,588.711548 
	C434.449219,588.874512 416.632202,588.846130 398.815979,588.909851 
	C398.671204,588.910400 398.526947,589.054810 397.768463,589.460083 
	C398.876984,602.578613 401.495148,615.445618 413.991455,622.906067 
	C431.225647,633.195129 445.679199,626.818359 458.768219,613.725281 
	C458.420258,615.300781 458.072327,616.876221 457.597778,618.804810 
M409.826202,552.109131 
	C400.387695,559.180359 398.074493,569.167786 397.883484,580.377930 
	C414.230011,580.377930 430.131165,580.377930 446.025848,580.377930 
	C446.322174,558.388794 432.692932,541.126404 409.826202,552.109131 
z"/>
<path fill="#F2F4EB" opacity="1.000000" stroke="none" 
	d="
M521.430786,410.309357 
	C514.805847,420.351257 504.532837,424.096344 494.201172,427.173004 
	C475.828613,432.644135 456.914001,433.473206 437.864288,432.228516 
	C422.160217,431.202454 406.856628,428.507721 392.958984,420.693970 
	C389.121704,418.536530 385.417938,415.722137 382.487885,412.459351 
	C376.675903,405.987457 377.010498,396.300629 383.638885,390.516388 
	C388.310364,386.439911 394.004150,383.436127 399.514740,380.459229 
	C402.529541,378.830597 406.076904,378.119781 409.446442,377.231598 
	C414.719147,375.841736 420.044678,374.652435 426.446259,373.114197 
	C426.446259,376.612518 426.826019,379.735138 426.257324,382.674194 
	C426.033173,383.832703 423.811188,384.896362 422.296844,385.464966 
	C413.961639,388.594482 405.178864,390.795197 397.290222,394.780518 
	C388.479401,399.231781 388.811157,405.941071 397.574402,410.592285 
	C410.942932,417.687805 425.652100,419.585938 440.485199,420.508575 
	C460.406525,421.747711 480.064728,420.448975 498.917389,413.169678 
	C501.826324,412.046478 504.726593,410.575134 507.190002,408.688995 
	C512.961243,404.270142 513.183105,399.610107 506.914032,396.075012 
	C499.790649,392.058228 492.018860,389.012726 484.248657,386.368652 
	C475.331879,383.334473 474.967743,383.338959 476.957001,373.157715 
	C491.329803,376.502838 505.988770,378.937012 517.454773,389.400726 
	C524.386780,395.726776 525.369507,401.346741 521.430786,410.309357 
z"/>
<path fill="#F3F5EC" opacity="1.000000" stroke="none" 
	d="
M858.985168,542.386353 
	C863.615845,542.383179 867.750977,542.383179 871.884949,542.383179 
	C871.656555,550.909180 871.656555,550.910645 863.642334,550.913086 
	C856.864075,550.915222 850.085815,550.913513 842.839539,550.913513 
	C842.839539,555.737427 842.833313,560.188965 842.840698,564.640564 
	C842.866455,580.129944 842.839905,595.619751 842.954712,611.108459 
	C842.998657,617.030029 843.329895,623.266052 849.748291,626.006226 
	C856.846741,629.036682 863.025269,626.076904 868.555298,621.526245 
	C870.173706,620.194397 871.631897,618.667847 873.423584,616.986511 
	C873.655090,627.093811 869.802246,632.908142 860.744141,634.781250 
	C855.342651,635.898193 849.525085,636.263489 844.069580,635.576721 
	C834.848511,634.415833 827.841858,627.212646 827.248901,617.752014 
	C826.365417,603.653564 826.492065,589.489441 826.288940,575.351807 
	C826.176880,567.552185 826.268921,559.749512 826.268921,551.455872 
	C821.470154,551.455872 816.922119,551.455872 812.206604,551.455872 
	C812.206604,548.326904 812.206604,545.692383 812.206604,542.712402 
	C816.740540,542.712402 821.191345,542.712402 826.613831,542.712402 
	C826.102112,532.798645 825.610046,523.264160 825.108521,513.547546 
	C831.332031,513.547546 837.906555,513.547546 844.457947,513.547546 
	C843.816833,523.211975 843.194580,532.592896 842.544739,542.389465 
	C848.289307,542.389465 853.389465,542.389465 858.985168,542.386353 
z"/>
<path fill="#F4F6ED" opacity="1.000000" stroke="none" 
	d="
M155.970428,635.343994 
	C154.580750,635.535706 153.191101,635.727356 151.158173,635.649414 
	C149.355103,635.542725 148.195267,635.705688 147.035446,635.868652 
	C145.953033,635.860107 144.870621,635.851562 143.300903,635.384094 
	C139.082001,633.333069 135.350388,631.740967 131.618774,630.148926 
	C124.785461,624.353638 124.304573,616.250061 124.185593,608.296936 
	C123.931519,591.313599 124.110413,574.323853 124.111900,557.336731 
	C124.112053,555.520691 124.111923,553.704651 124.111923,551.559204 
	C119.427849,551.559204 115.035759,551.559204 110.181061,551.559204 
	C110.013847,548.550476 109.862862,545.833801 109.687775,542.683350 
	C114.702682,542.683350 119.130722,542.683350 124.421753,542.683350 
	C123.905365,532.719727 123.411690,523.194214 122.910271,513.519409 
	C129.377136,513.519409 135.790833,513.519409 142.350998,513.519409 
	C141.707260,523.137451 141.080063,532.508362 140.429901,542.222412 
	C150.476700,542.222412 159.879868,542.222412 170.191315,542.222412 
	C169.621460,545.265808 169.135162,547.862915 168.588394,550.783081 
	C159.309555,550.783081 150.368286,550.783081 141.685730,550.783081 
	C141.244446,551.430359 140.910217,551.691895 140.909760,551.953918 
	C140.873734,572.597595 140.738205,593.242554 140.949356,613.884033 
	C140.996201,618.462463 142.043091,623.135681 146.949341,626.047668 
	C147.415878,626.125488 147.604691,626.092651 147.604691,626.092651 
	C148.255203,626.263794 148.905701,626.434937 150.035889,626.844360 
	C150.515549,627.082642 150.642471,627.074890 150.642471,627.074890 
	C151.501236,627.091003 152.360001,627.107117 153.812347,627.376770 
	C155.279572,627.387329 156.153229,627.144287 157.026886,626.901245 
	C158.728790,626.216309 160.430679,625.531372 162.587738,625.150085 
	C164.025208,627.292847 165.007523,629.132019 165.989838,630.971130 
	C165.751160,631.260986 165.512497,631.550903 164.859985,631.927002 
	C164.276947,632.091431 164.155060,632.215881 164.080475,632.386658 
	C163.274979,632.869324 162.469498,633.351990 161.097046,633.617188 
	C159.010178,634.047852 157.490295,634.695923 155.970428,635.343994 
z"/>
<path fill="#F3F5ED" opacity="1.000000" stroke="none" 
	d="
M582.679321,738.794434 
	C586.494324,743.536682 589.806152,748.311584 593.984009,752.141968 
	C598.855713,756.608459 604.579895,760.129700 609.764038,764.274048 
	C619.805054,772.301086 622.620300,786.056091 616.960999,797.560303 
	C613.811951,803.961731 608.351624,807.142395 601.863281,808.730469 
	C590.533203,811.503723 579.676025,809.846191 569.745972,803.778015 
	C567.907654,802.654663 566.417969,799.791260 566.127136,797.554199 
	C565.562134,793.208496 565.961731,788.737427 565.961731,784.318359 
	C566.551819,784.200012 567.141907,784.081665 567.731995,783.963318 
	C568.449463,785.406311 569.185730,786.840393 569.881348,788.293823 
	C574.558289,798.064819 583.008789,803.111877 592.586975,801.843506 
	C602.720642,800.501587 607.811035,790.848022 601.962341,782.404419 
	C598.287170,777.098694 592.721619,773.068481 587.850830,768.634521 
	C582.827332,764.061401 576.810913,760.337158 572.639221,755.114929 
	C559.534607,738.710388 568.271362,717.566223 589.190247,715.369202 
	C596.046265,714.649170 603.234436,716.621521 610.212402,717.729858 
	C613.735352,718.289368 615.450745,720.595032 615.013306,724.546936 
	C614.621460,728.087341 614.930786,731.705383 614.200012,735.452454 
	C610.357788,729.607117 606.342224,724.733643 599.412231,723.275269 
	C588.140259,720.903320 579.296143,727.064575 582.679321,738.794434 
z"/>
<path fill="#F6F8EE" opacity="1.000000" stroke="none" 
	d="
M204.869385,583.002380 
	C205.072159,600.250244 203.731430,617.083374 207.911774,633.935791 
	C200.580612,633.935791 193.536789,633.935791 186.992630,633.935791 
	C187.560577,618.789795 188.543243,603.586975 188.584213,588.381653 
	C188.624771,573.330872 187.715164,558.277588 187.214722,542.992920 
	C192.717789,542.992920 198.980957,542.992920 205.673370,542.992920 
	C205.673370,546.793762 205.673370,550.345825 205.673370,555.417908 
	C208.301147,552.876587 210.033005,551.304932 211.648590,549.621704 
	C219.257980,541.693787 228.596008,539.521240 239.041000,541.680725 
	C244.466675,542.802429 245.195663,544.676147 243.269333,549.758423 
	C241.937408,553.272461 240.786743,556.855286 239.244568,561.302795 
	C235.706955,555.221741 231.346420,551.793701 224.777924,552.902161 
	C216.877106,554.235474 210.392502,558.220215 206.074982,564.861572 
	C204.640213,567.068542 205.104767,570.586609 204.935898,573.518860 
	C204.763916,576.504883 204.881088,579.507568 204.869385,583.002380 
z"/>
<path fill="#F4F6ED" opacity="1.000000" stroke="none" 
	d="
M755.811890,545.592651 
	C768.197571,534.182068 792.387695,542.023865 796.801758,559.142334 
	C798.111755,564.222656 798.316956,569.660278 798.470032,574.950256 
	C798.729980,583.934082 798.518860,592.930847 798.560242,601.921875 
	C798.584778,607.248901 798.485046,612.591553 798.860229,617.897522 
	C799.232300,623.159790 800.130066,628.384888 800.837769,633.944946 
	C793.816956,633.944946 786.640076,633.944946 779.158997,633.944946 
	C783.838196,613.534912 782.089172,593.030884 781.956299,572.617249 
	C781.915100,566.290100 780.622620,559.988892 774.885376,555.340576 
	C774.636475,555.062927 774.732178,554.998901 774.732178,554.998901 
	C773.390930,554.326660 772.049744,553.654358 770.244385,552.466003 
	C765.203369,550.214966 760.893982,550.481567 756.974121,553.661865 
	C756.189270,554.051392 755.404480,554.440979 754.075195,554.613159 
	C752.697388,554.267090 751.863953,554.138428 750.698853,553.954346 
	C750.259338,551.991699 750.151611,550.084412 750.043823,548.177185 
	C751.389099,547.442505 752.734375,546.707825 754.621582,545.979858 
	C755.458313,545.984558 755.674377,545.853271 755.811890,545.592651 
z"/>
<path fill="#F8FAF2" opacity="1.000000" stroke="none" 
	d="
M749.733765,548.257629 
	C750.151611,550.084412 750.259338,551.991699 750.715820,554.353943 
	C751.174805,555.329407 751.284912,555.849915 751.395081,556.370361 
	C751.395081,556.370361 751.210449,556.148865 750.955444,556.176331 
	C750.108826,556.736633 749.517273,557.269531 748.925781,557.802429 
	C748.925781,557.802429 748.901550,557.950806 748.439575,557.928284 
	C744.951782,557.867981 742.822083,558.738464 743.434204,562.388062 
	C743.434204,562.388062 743.288757,562.258606 742.990967,562.249084 
	C742.136841,562.846252 741.580505,563.452942 741.024231,564.059631 
	C740.323730,566.685242 739.002136,569.315796 739.023254,571.935608 
	C739.163818,589.415710 739.527222,606.895203 739.984741,624.370544 
	C740.065979,627.472961 740.925842,630.554993 741.483765,634.002197 
	C734.428406,634.002197 727.518494,634.002197 720.580322,634.002197 
	C724.081299,603.942078 724.354248,573.817078 720.422974,543.229675 
	C726.583069,543.229675 732.971863,543.229675 739.928223,543.229675 
	C739.768433,546.580994 739.597595,550.163940 739.307861,554.295227 
	C739.111694,555.248291 739.034485,555.653015 738.957275,556.057739 
	C739.479370,555.872681 740.001404,555.687622 740.523499,555.502563 
	C742.627075,553.770508 744.730652,552.038452 747.271484,550.135498 
	C747.708801,549.964661 747.958801,549.563232 747.958801,549.563232 
	C748.447083,549.154846 748.935425,548.746460 749.733765,548.257629 
z"/>
<path fill="#F8F9F2" opacity="1.000000" stroke="none" 
	d="
M375.041199,771.986938 
	C374.648987,753.420715 374.257263,735.352173 373.857758,716.926514 
	C379.540588,716.926514 386.067413,716.926514 392.208344,716.926514 
	C391.880890,732.296570 391.191803,747.398071 391.341522,762.491272 
	C391.489441,777.398926 392.485291,792.298218 393.121063,807.485962 
	C387.057343,807.485962 380.015686,807.485962 373.175385,807.485962 
	C373.795410,795.857422 374.418549,784.171082 375.041199,771.986938 
z"/>
<path fill="#F8F9F1" opacity="1.000000" stroke="none" 
	d="
M256.615662,634.346436 
	C255.952240,632.752502 255.377243,631.081604 255.565598,629.501648 
	C258.713074,603.101379 258.430725,576.684998 256.083466,550.255249 
	C255.883301,548.001587 255.363556,545.776306 254.928528,543.153564 
	C261.972046,543.153564 268.549805,543.153564 274.995880,543.153564 
	C273.675842,573.657104 272.275635,603.871277 275.987396,634.311768 
	C269.680511,634.311768 263.369934,634.311768 256.615662,634.346436 
z"/>
<path fill="#F7F8F1" opacity="1.000000" stroke="none" 
	d="
M695.975647,599.780884 
	C696.856262,611.450745 697.735901,622.644226 698.633545,634.067871 
	C692.007141,634.067871 684.926636,634.067871 677.614258,634.067871 
	C681.448242,603.773071 681.223328,573.516296 677.938354,542.988159 
	C684.525330,542.988159 691.097900,542.988159 697.379211,542.988159 
	C696.906982,561.923340 696.440796,580.613953 695.975647,599.780884 
z"/>
<path fill="#F2F4EB" opacity="1.000000" stroke="none" 
	d="
M681.569336,523.518982 
	C675.447327,517.308228 677.656067,506.946411 686.196533,505.225189 
	C690.577820,504.342133 694.397644,505.620636 696.951416,509.584137 
	C699.410950,513.401428 699.223877,519.410278 696.269165,522.620056 
	C693.162659,525.994751 689.109009,526.530151 684.835022,525.463074 
	C683.764221,525.195801 682.834534,524.362854 681.569336,523.518982 
z"/>
<path fill="#F2F4EB" opacity="1.000000" stroke="none" 
	d="
M387.807739,679.832642 
	C393.275574,683.857300 394.758240,687.684326 392.904602,692.775391 
	C391.257355,697.299683 387.965210,699.774841 383.088501,699.719116 
	C377.078125,699.650391 373.025513,695.287354 373.040955,689.112793 
	C373.055634,683.247925 377.085022,679.161072 383.043701,679.109558 
	C384.510376,679.096863 385.980469,679.474670 387.807739,679.832642 
z"/>
<path fill="#EEF0E5" opacity="1.000000" stroke="none" 
	d="
M267.449036,525.532043 
	C260.726532,525.775574 256.897400,522.977844 255.439301,517.122375 
	C254.395767,512.931702 256.908691,507.742950 260.873718,505.901276 
	C265.263916,503.862152 270.619080,505.311920 273.784882,509.396606 
	C278.109741,514.976868 275.204376,522.817993 267.449036,525.532043 
z"/>
<path fill="#EBEDE1" opacity="1.000000" stroke="none" 
	d="
M166.327057,630.908264 
	C165.007523,629.132019 164.025208,627.292847 162.978455,625.094482 
	C165.692429,622.275330 168.470886,619.815491 171.937943,616.746033 
	C171.945297,622.670227 170.772659,627.268677 166.327057,630.908264 
z"/>
<path fill="#EEF0E5" opacity="1.000000" stroke="none" 
	d="
M60.388367,513.494873 
	C60.691494,512.968018 61.332745,512.040039 62.129120,511.878967 
	C68.746887,510.540375 75.370689,510.170319 81.407890,513.851868 
	C82.668800,514.620728 83.183853,516.612610 84.052406,518.415039 
	C77.082756,513.632080 69.544807,510.908203 60.388367,513.494873 
z"/>
<path fill="#EEF0E5" opacity="1.000000" stroke="none" 
	d="
M71.604469,503.986145 
	C70.226173,504.437256 68.474640,504.622925 66.771568,505.017670 
	C64.323700,505.584961 61.942169,506.505371 59.472366,506.887482 
	C57.862888,507.136475 56.146973,506.697479 54.250229,506.316040 
	C59.765434,505.314911 65.509163,504.564484 71.604469,503.986145 
z"/>
<path fill="#EBEDE1" opacity="1.000000" stroke="none" 
	d="
M621.354858,635.601562 
	C622.160767,634.790466 623.265991,633.805054 624.557800,633.355652 
	C629.051819,631.792480 633.610352,630.415161 638.519653,628.964844 
	C633.176514,631.199341 627.458191,633.436157 621.354858,635.601562 
z"/>
<path fill="#E7EADC" opacity="1.000000" stroke="none" 
	d="
M548.712280,514.764893 
	C544.060974,516.892761 542.317871,513.839966 540.947632,509.842407 
	C543.500366,511.148499 546.050537,512.802063 548.712280,514.764893 
z"/>
<path fill="#EEF0E5" opacity="1.000000" stroke="none" 
	d="
M329.331665,808.549438 
	C332.815796,806.383301 336.657501,804.247009 340.880615,802.172363 
	C337.404419,804.348999 333.546814,806.464111 329.331665,808.549438 
z"/>
<path fill="#EEF0E5" opacity="1.000000" stroke="none" 
	d="
M295.007080,805.892944 
	C295.041107,805.310791 295.451569,804.567200 295.601105,804.616455 
	C299.677979,805.957825 303.728210,807.380127 307.907074,809.105103 
	C303.774811,808.314514 299.518372,807.207703 295.007080,805.892944 
z"/>
<path fill="#E7EADC" opacity="1.000000" stroke="none" 
	d="
M757.391724,553.675903 
	C760.893982,550.481567 765.203369,550.214966 769.903015,552.308594 
	C765.953552,553.008179 761.881470,553.349060 757.391724,553.675903 
z"/>
<path fill="#EBEDE1" opacity="1.000000" stroke="none" 
	d="
M131.775513,630.460815 
	C135.350388,631.740967 139.082001,633.333069 142.919281,635.243103 
	C139.327377,633.964966 135.629822,632.368835 131.775513,630.460815 
z"/>
<path fill="#EEF0E5" opacity="1.000000" stroke="none" 
	d="
M289.908142,783.654968 
	C288.710663,784.013550 287.490845,784.020264 285.905518,784.031189 
	C285.727936,782.122070 285.915863,780.208801 286.103790,778.295532 
	C286.462097,778.183594 286.820374,778.071594 287.178680,777.959656 
	C288.081055,779.740845 288.983429,781.521973 289.908142,783.654968 
z"/>
<path fill="#EEF0E5" opacity="1.000000" stroke="none" 
	d="
M87.260193,523.257996 
	C88.450035,522.947693 89.705597,522.966553 91.337982,522.984375 
	C91.571899,524.700989 91.429001,526.418579 91.286102,528.136230 
	C90.950958,528.247375 90.615822,528.358582 90.280678,528.469727 
	C89.295753,526.842163 88.310829,525.214661 87.260193,523.257996 
z"/>
<path fill="#EEF0E5" opacity="1.000000" stroke="none" 
	d="
M300.175537,739.290527 
	C302.362122,740.730103 304.652191,742.485291 306.980713,744.592651 
	C304.772461,743.165344 302.525726,741.385742 300.175537,739.290527 
z"/>
<path fill="#EEF0E5" opacity="1.000000" stroke="none" 
	d="
M320.038422,732.204163 
	C317.089722,735.021545 316.191467,734.486084 315.557434,729.309998 
	C317.135254,730.035461 318.496429,730.995483 320.038422,732.204163 
z"/>
<path fill="#EEF0E5" opacity="1.000000" stroke="none" 
	d="
M312.378204,809.995850 
	C314.824310,809.645508 317.595032,809.486938 320.655823,809.582275 
	C318.198181,809.953369 315.450531,810.070557 312.378204,809.995850 
z"/>
<path fill="#EEF0E5" opacity="1.000000" stroke="none" 
	d="
M92.059067,517.654053 
	C91.239021,515.324158 90.604668,512.683228 89.941467,509.661987 
	C94.165680,510.963287 91.757713,514.571960 92.059067,517.654053 
z"/>
<path fill="#EEF0E5" opacity="1.000000" stroke="none" 
	d="
M341.542175,802.159302 
	C340.722595,799.123047 342.121277,797.424194 345.582947,796.993042 
	C344.591827,798.676147 343.224030,800.366516 341.542175,802.159302 
z"/>
<path fill="#EEF0E5" opacity="1.000000" stroke="none" 
	d="
M352.799316,772.650208 
	C348.836609,772.490051 349.478516,770.500000 351.508240,768.102417 
	C352.195526,769.448059 352.534912,770.865540 352.799316,772.650208 
z"/>
<path fill="#EBEDE1" opacity="1.000000" stroke="none" 
	d="
M599.273193,634.183838 
	C601.622864,634.276428 604.219910,634.642822 606.919312,635.349792 
	C604.521301,635.279480 602.020874,634.868530 599.273193,634.183838 
z"/>
<path fill="#E7EADC" opacity="1.000000" stroke="none" 
	d="
M553.798340,520.728149 
	C551.229187,520.832397 548.925842,520.285461 549.777588,516.473328 
	C551.184448,517.595581 552.454834,519.003540 553.798340,520.728149 
z"/>
<path fill="#EEF0E5" opacity="1.000000" stroke="none" 
	d="
M287.277313,801.250732 
	C289.368683,802.180176 291.585388,803.423523 293.908142,805.020264 
	C291.810364,804.103943 289.606506,802.834290 287.277313,801.250732 
z"/>
<path fill="#EBEDE1" opacity="1.000000" stroke="none" 
	d="
M610.341187,636.032959 
	C612.165833,635.678223 614.289368,635.516846 616.683411,635.605042 
	C614.849304,635.978516 612.744690,636.102478 610.341187,636.032959 
z"/>
<path fill="#E7EADC" opacity="1.000000" stroke="none" 
	d="
M743.723511,562.244995 
	C742.822083,558.738464 744.951782,557.867981 748.368286,557.904419 
	C747.176941,559.302673 745.594849,560.702271 743.723511,562.244995 
z"/>
<path fill="#EEF0E5" opacity="1.000000" stroke="none" 
	d="
M332.678925,741.758362 
	C330.946472,741.656189 328.031677,743.062439 328.142670,738.910828 
	C329.636719,739.486389 331.090485,740.473694 332.678925,741.758362 
z"/>
<path fill="#EEF0E5" opacity="1.000000" stroke="none" 
	d="
M343.904510,752.688354 
	C341.504883,753.058289 339.813812,752.306274 340.320831,748.997803 
	C341.566284,749.864929 342.701752,751.118713 343.904510,752.688354 
z"/>
<path fill="#EEF0E5" opacity="1.000000" stroke="none" 
	d="
M318.656982,800.776062 
	C317.154144,801.082092 315.279938,801.268372 313.183044,801.179443 
	C314.735474,800.821655 316.510529,800.739014 318.656982,800.776062 
z"/>
<path fill="#E7EADC" opacity="1.000000" stroke="none" 
	d="
M517.738220,504.699310 
	C516.230896,505.104340 514.404785,505.375610 512.310547,505.395874 
	C513.834717,504.951752 515.627075,504.758636 517.738220,504.699310 
z"/>
<path fill="#EBEDE1" opacity="1.000000" stroke="none" 
	d="
M156.301071,635.392761 
	C157.490295,634.695923 159.010178,634.047852 160.740860,633.626221 
	C159.511688,634.382324 158.071701,634.911926 156.301071,635.392761 
z"/>
<path fill="#E7EADC" opacity="1.000000" stroke="none" 
	d="
M502.694397,505.689148 
	C501.529907,506.075623 500.011475,506.347198 498.268616,506.384827 
	C499.476257,505.958679 500.908356,505.766479 502.694397,505.689148 
z"/>
<path fill="#EBEDE1" opacity="1.000000" stroke="none" 
	d="
M147.277664,636.041382 
	C148.195267,635.705688 149.355103,635.542725 150.732239,635.612915 
	C149.806320,635.968689 148.663101,636.091370 147.277664,636.041382 
z"/>
<path fill="#EEF0E5" opacity="1.000000" stroke="none" 
	d="
M352.081757,784.721313 
	C350.419403,783.953186 348.984528,782.938416 352.216736,781.975037 
	C352.440491,782.804016 352.363617,783.639221 352.081757,784.721313 
z"/>
<path fill="#EEF0E5" opacity="1.000000" stroke="none" 
	d="
M50.265030,521.817261 
	C50.701550,520.644653 51.412884,519.316040 52.496025,517.966614 
	C52.091839,519.184265 51.315842,520.422729 50.265030,521.817261 
z"/>
<path fill="#EEF0E5" opacity="1.000000" stroke="none" 
	d="
M284.740997,798.184204 
	C285.579529,798.685791 286.303986,799.419617 287.043152,800.506226 
	C286.247528,800.044800 285.437225,799.230652 284.740997,798.184204 
z"/>
<path fill="#EEF0E5" opacity="1.000000" stroke="none" 
	d="
M340.232208,748.285156 
	C339.298553,747.833313 338.213196,747.102783 337.142151,745.982178 
	C338.131165,746.396973 339.105835,747.201782 340.232208,748.285156 
z"/>
<path fill="#E7EADC" opacity="1.000000" stroke="none" 
	d="
M751.688965,556.285034 
	C751.284912,555.849915 751.174805,555.329407 751.047607,554.409363 
	C751.863953,554.138428 752.697388,554.267090 753.745056,554.632690 
	C753.300537,555.313049 752.641663,555.756409 751.688965,556.285034 
z"/>
<path fill="#EBEDE1" opacity="1.000000" stroke="none" 
	d="
M156.728302,626.810425 
	C156.153229,627.144287 155.279572,627.387329 154.239075,627.425415 
	C154.858078,627.053589 155.643890,626.886597 156.728302,626.810425 
z"/>
<path fill="#EEF0E5" opacity="1.000000" stroke="none" 
	d="
M53.214371,517.761230 
	C53.539265,517.055420 54.136135,516.252380 54.862717,515.709839 
	C54.490402,516.534912 53.988377,517.099548 53.214371,517.761230 
z"/>
<path fill="#EEF0E5" opacity="1.000000" stroke="none" 
	d="
M350.925110,764.679565 
	C350.350586,764.017517 349.775604,763.002930 349.316589,761.586304 
	C349.929932,762.231812 350.427246,763.279358 350.925110,764.679565 
z"/>
<path fill="#EEF0E5" opacity="1.000000" stroke="none" 
	d="
M324.293701,809.653687 
	C324.842590,809.198120 325.708191,808.805420 326.763367,808.636230 
	C326.172089,809.145386 325.391266,809.430969 324.293701,809.653687 
z"/>
<path fill="#EEF0E5" opacity="1.000000" stroke="none" 
	d="
M310.132111,723.615356 
	C309.458954,723.219971 308.720245,722.519958 307.972717,721.462402 
	C308.664825,721.840149 309.365692,722.575500 310.132111,723.615356 
z"/>
<path fill="#EBEDE1" opacity="1.000000" stroke="none" 
	d="
M594.182861,632.178467 
	C594.666687,632.060303 595.315063,632.191833 596.001099,632.602539 
	C595.475037,632.730469 594.911255,632.579346 594.182861,632.178467 
z"/>
<path fill="#EEF0E5" opacity="1.000000" stroke="none" 
	d="
M84.775818,506.925537 
	C84.332436,507.078369 83.701660,507.024078 83.023788,506.718811 
	C83.513931,506.551361 84.051186,506.634888 84.775818,506.925537 
z"/>
<path fill="#E7EADC" opacity="1.000000" stroke="none" 
	d="
M532.532837,506.218933 
	C531.966003,506.390778 531.147339,506.394165 530.139343,506.125549 
	C530.726990,505.919220 531.503967,505.984833 532.532837,506.218933 
z"/>
<path fill="#EEF0E5" opacity="1.000000" stroke="none" 
	d="
M297.983093,794.701172 
	C297.410126,794.537415 296.750336,794.077271 296.053192,793.287476 
	C296.642670,793.440186 297.269501,793.922485 297.983093,794.701172 
z"/>
<path fill="#EEF0E5" opacity="1.000000" stroke="none" 
	d="
M336.253845,744.563354 
	C335.629578,744.483765 334.871765,744.117615 334.045898,743.410034 
	C334.691986,743.471375 335.406158,743.874023 336.253845,744.563354 
z"/>
<path fill="#EEF0E5" opacity="1.000000" stroke="none" 
	d="
M284.939392,793.186584 
	C285.178162,793.608887 285.265320,794.194153 285.119141,794.913330 
	C284.853119,794.481323 284.820435,793.915405 284.939392,793.186584 
z"/>
<path fill="#EEF0E5" opacity="1.000000" stroke="none" 
	d="
M302.427673,797.510010 
	C301.781281,797.489746 300.969086,797.200073 300.070557,796.568542 
	C300.743469,796.564636 301.502655,796.902588 302.427673,797.510010 
z"/>
<path fill="#E7EADC" opacity="1.000000" stroke="none" 
	d="
M741.312378,563.990601 
	C741.580505,563.452942 742.136841,562.846252 743.034973,562.335938 
	C742.784729,562.928650 742.192627,563.425110 741.312378,563.990601 
z"/>
<path fill="#E7EADC" opacity="1.000000" stroke="none" 
	d="
M749.219360,557.787720 
	C749.517273,557.269531 750.108826,556.736633 751.025085,556.302551 
	C750.737488,556.858582 750.125183,557.315796 749.219360,557.787720 
z"/>
<path fill="#EEF0E5" opacity="1.000000" stroke="none" 
	d="
M308.760742,799.982300 
	C308.328033,800.142639 307.704041,800.106018 307.024231,799.829773 
	C307.502075,799.655212 308.035767,799.720215 308.760742,799.982300 
z"/>
<path fill="#EEF0E5" opacity="1.000000" stroke="none" 
	d="
M324.751526,799.475708 
	C324.483246,799.869812 323.940125,800.248291 323.239532,800.441895 
	C323.546936,799.991394 324.011780,799.725769 324.751526,799.475708 
z"/>
<path fill="#E7EADC" opacity="1.000000" stroke="none" 
	d="
M524.814819,504.971497 
	C524.379517,505.210205 523.791138,505.280975 523.076355,505.113770 
	C523.520569,504.851715 524.091125,504.827637 524.814819,504.971497 
z"/>
<path fill="#E7EADC" opacity="1.000000" stroke="none" 
	d="
M483.672821,519.443787 
	C483.899017,519.894043 484.019226,520.609497 484.094543,521.598999 
	C483.888733,521.151672 483.727783,520.430298 483.672821,519.443787 
z"/>
<path fill="#E7EADC" opacity="1.000000" stroke="none" 
	d="
M481.845245,506.659485 
	C482.095428,507.272400 482.120911,507.777374 482.111511,508.533081 
	C481.924561,508.039703 481.772583,507.295593 481.845245,506.659485 
z"/>
<path fill="#E7EADC" opacity="1.000000" stroke="none" 
	d="
M755.823547,545.424805 
	C755.674377,545.853271 755.458313,545.984558 754.968750,545.947632 
	C755.127747,545.691467 755.481445,545.474243 755.823547,545.424805 
z"/>
<path fill="#EEF0E5" opacity="1.000000" stroke="none" 
	d="
M311.792175,800.663696 
	C311.872864,801.215942 311.758026,801.610107 311.643188,802.004333 
	C311.456207,801.742737 311.269226,801.481140 311.104126,800.951111 
	C311.282867,800.623718 311.439728,800.564758 311.792175,800.663696 
z"/>
<path fill="#EEF0E5" opacity="1.000000" stroke="none" 
	d="
M295.244690,791.776978 
	C295.143982,791.805054 295.054565,791.743958 295.057556,791.715332 
	C295.060516,791.686707 295.345367,791.748901 295.244690,791.776978 
z"/>
<path fill="#EEF0E5" opacity="1.000000" stroke="none" 
	d="
M351.316803,765.694275 
	C351.086212,765.711792 350.997742,765.561218 350.957977,765.247498 
	C351.197693,765.167969 351.348450,765.315308 351.316803,765.694275 
z"/>
<path fill="#EEF0E5" opacity="1.000000" stroke="none" 
	d="
M331.804749,767.310791 
	C331.901947,767.250000 332.067200,767.440063 332.062988,767.504883 
	C332.058746,767.569702 331.707550,767.371582 331.804749,767.310791 
z"/>
<path fill="#EEF0E5" opacity="1.000000" stroke="none" 
	d="
M80.809433,505.880249 
	C80.702469,506.051636 80.528435,506.016388 80.261185,505.841675 
	C80.156982,505.756470 80.434959,505.560730 80.434959,505.560730 
	C80.434959,505.560730 80.731361,505.727844 80.809433,505.880249 
z"/>
<path fill="#EEF0E5" opacity="1.000000" stroke="none" 
	d="
M292.180786,787.695923 
	C292.061615,787.714294 291.925476,787.568726 291.933472,787.517456 
	C291.941437,787.466248 292.299957,787.677551 292.180786,787.695923 
z"/>
<path fill="#EEF0E5" opacity="1.000000" stroke="none" 
	d="
M334.913147,789.262512 
	C335.051941,789.210449 334.963867,789.651672 334.886536,789.735596 
	C334.809204,789.819519 334.640991,789.577576 334.640991,789.577576 
	C334.640991,789.577576 334.774323,789.314575 334.913147,789.262512 
z"/>
<path fill="#EEF0E5" opacity="1.000000" stroke="none" 
	d="
M77.675949,504.938812 
	C77.694527,505.063965 77.450203,505.044006 77.401718,505.004150 
	C77.353241,504.964294 77.423134,504.724182 77.423134,504.724182 
	C77.423134,504.724182 77.657379,504.813660 77.675949,504.938812 
z"/>
<path fill="#EEF0E5" opacity="1.000000" stroke="none" 
	d="
M333.920135,791.325562 
	C334.060394,791.293945 333.934601,791.709167 333.851868,791.781738 
	C333.584198,791.684692 333.587769,791.518982 333.920135,791.325562 
z"/>
<path fill="#EEF0E5" opacity="1.000000" stroke="none" 
	d="
M305.587402,798.949951 
	C305.592468,799.066711 305.442352,799.070251 305.420349,799.036255 
	C305.398376,799.002197 305.582306,798.833191 305.587402,798.949951 
z"/>
<path fill="#EEF0E5" opacity="1.000000" stroke="none" 
	d="
M50.246956,540.679382 
	C50.161335,540.786682 49.953793,540.447510 49.948238,540.346985 
	C50.165474,540.244141 50.295437,540.352661 50.246956,540.679382 
z"/>
<path fill="#EEF0E5" opacity="1.000000" stroke="none" 
	d="
M58.245918,514.453003 
	C58.167385,514.222961 58.301617,514.094788 58.620720,513.981018 
	C58.769272,514.210876 58.653633,514.397339 58.245918,514.453003 
z"/>
<path fill="#EEF0E5" opacity="1.000000" stroke="none" 
	d="
M51.255531,542.697021 
	C51.185246,542.809753 50.962280,542.480225 50.951778,542.379944 
	C51.157082,542.270874 51.285259,542.372437 51.255531,542.697021 
z"/>
<path fill="#EEF0E5" opacity="1.000000" stroke="none" 
	d="
M49.197144,537.635193 
	C49.098869,537.721680 48.935844,537.401672 48.940105,537.310791 
	C49.159279,537.225220 49.276295,537.334839 49.197144,537.635193 
z"/>
<path fill="#E7EADC" opacity="1.000000" stroke="none" 
	d="
M558.214478,530.663696 
	C558.108154,530.761353 557.879028,530.408264 557.909912,530.303101 
	C558.176758,530.207886 558.303406,530.330566 558.214478,530.663696 
z"/>
<path fill="#E7EADC" opacity="1.000000" stroke="none" 
	d="
M557.266602,527.695679 
	C557.166504,527.814026 556.897278,527.424438 556.921143,527.303955 
	C557.190796,527.202271 557.331299,527.333496 557.266602,527.695679 
z"/>
<path fill="#EEF0E5" opacity="1.000000" stroke="none" 
	d="
M52.488884,544.771606 
	C52.275452,544.865601 52.125854,544.727051 51.989998,544.378052 
	C52.206394,544.240173 52.389389,544.363953 52.488884,544.771606 
z"/>
<path fill="#E7EADC" opacity="1.000000" stroke="none" 
	d="
M556.617798,525.773132 
	C556.304626,525.910217 556.115234,525.734802 555.999756,525.259033 
	C556.280090,525.124329 556.502625,525.291687 556.617798,525.773132 
z"/>
<path fill="#EEF0E5" opacity="1.000000" stroke="none" 
	d="
M49.095268,524.766968 
	C48.954987,524.830933 49.056847,524.361206 49.133762,524.267212 
	C49.422863,524.340027 49.431152,524.516663 49.095268,524.766968 
z"/>
<path fill="#EEF0E5" opacity="1.000000" stroke="none" 
	d="
M86.713272,522.281128 
	C86.766678,522.156311 87.030975,522.480774 87.052139,522.584595 
	C86.854088,522.713196 86.716278,522.618958 86.713272,522.281128 
z"/>
<path fill="#E7EADC" opacity="1.000000" stroke="none" 
	d="
M747.817139,549.540527 
	C747.958801,549.563232 747.708801,549.964661 747.586243,549.980347 
	C747.389587,549.772583 747.460205,549.613220 747.817139,549.540527 
z"/>
<path fill="#E7EADC" opacity="1.000000" stroke="none" 
	d="
M774.675720,555.072998 
	C774.732178,554.998901 774.636475,555.062927 774.608032,555.039062 
	C774.579651,555.015259 774.619263,555.147034 774.675720,555.072998 
z"/>
<path fill="#EEF0E5" opacity="1.000000" stroke="none" 
	d="
M315.517120,752.080688 
	C315.541077,751.957153 315.694000,751.981384 315.711853,752.018433 
	C315.729675,752.055420 315.493164,752.204224 315.517120,752.080688 
z"/>
<path fill="#EBEDE1" opacity="1.000000" stroke="none" 
	d="
M147.627258,625.984863 
	C147.604691,626.092651 147.415878,626.125488 147.323517,626.099976 
	C147.231155,626.074524 147.360580,625.813171 147.360580,625.813171 
	C147.360580,625.813171 147.649826,625.877136 147.627258,625.984863 
z"/>
<path fill="#EBEDE1" opacity="1.000000" stroke="none" 
	d="
M150.626160,626.961243 
	C150.642471,627.074890 150.515549,627.082642 150.493607,627.056519 
	C150.471664,627.030334 150.609848,626.847595 150.626160,626.961243 
z"/>
<path fill="#E7EADC" opacity="1.000000" stroke="none" 
	d="
M482.819580,513.370117 
	C482.931305,513.285889 483.130524,513.638367 483.092346,513.736694 
	C482.828186,513.808594 482.712738,513.681702 482.819580,513.370117 
z"/>
<path fill="#EBEDE1" opacity="1.000000" stroke="none" 
	d="
M591.745728,631.105286 
	C591.809570,631.152222 591.687683,631.076782 591.679810,631.041931 
	C591.671936,631.007080 591.681946,631.058350 591.745728,631.105286 
z"/>
<path fill="#EBEDE1" opacity="1.000000" stroke="none" 
	d="
M164.239075,632.434204 
	C164.155060,632.215881 164.276947,632.091431 164.574341,631.977478 
	C164.739670,632.200195 164.638062,632.380188 164.239075,632.434204 
z"/>
<path fill="#E7EADC" opacity="1.000000" stroke="none" 
	d="
M539.766968,508.880249 
	C539.614380,509.084595 539.421387,509.035828 539.162109,508.778381 
	C539.305481,508.446686 539.515686,508.465820 539.766968,508.880249 
z"/>
<path fill="#EEF0E5" opacity="1.000000" stroke="none" 
	d="
M89.535507,508.963165 
	C89.535751,509.071320 89.494141,509.048798 89.490379,509.047119 
	C89.486618,509.045441 89.535255,508.855011 89.535507,508.963165 
z"/>
<path fill="#020202" opacity="1.000000" stroke="none" 
	d="
M473.206818,119.261810 
	C468.703033,120.996918 464.562622,122.605247 460.077179,124.347588 
	C460.077179,101.385521 460.077179,78.934776 460.077179,55.986286 
	C486.396271,67.512939 512.547913,78.966263 540.028320,91.001511 
	C517.099121,100.708038 495.334656,109.921532 473.206818,119.261810 
z"/>
<path fill="#010101" opacity="1.000000" stroke="none" 
	d="
M529.417603,246.547211 
	C521.262512,250.259506 513.426575,253.765656 505.150543,257.468750 
	C505.150543,232.764969 505.150543,208.722198 505.150543,184.160690 
	C506.614471,184.031525 508.026154,183.802490 509.438477,183.798553 
	C523.253296,183.759964 537.068115,183.737411 550.882935,183.756088 
	C557.991089,183.765701 560.920654,186.529449 561.041077,193.664856 
	C561.189941,202.483459 561.179260,211.307129 561.079773,220.126846 
	C560.996094,227.538544 557.959900,233.214172 550.951965,236.425186 
	C543.855591,239.676727 536.806519,243.031494 529.417603,246.547211 
z"/>
<path fill="#030403" opacity="1.000000" stroke="none" 
	d="
M535.038330,519.917725 
	C543.643860,534.691284 544.054382,549.697754 535.952881,564.746094 
	C531.016174,573.915894 512.637146,579.169495 503.595154,574.116577 
	C502.571716,573.544678 502.203522,571.800293 501.486633,570.019165 
	C501.533661,569.108215 501.447296,568.833740 501.182709,568.615234 
	C501.424316,551.052979 501.665924,533.490662 502.274109,515.366821 
	C504.082550,514.156372 505.524414,513.507568 506.966278,512.858765 
	C507.418396,512.839050 507.870514,512.819336 509.043396,512.753052 
	C511.829712,512.417969 513.895264,512.129517 515.960815,511.841064 
	C516.421997,511.865387 516.883179,511.889740 518.003784,512.088379 
	C525.127625,512.662354 530.478943,515.443054 535.038330,519.917725 
z"/>
<path fill="#E7EADC" opacity="1.000000" stroke="none" 
	d="
M535.186768,519.595581 
	C530.478943,515.443054 525.127625,512.662354 518.348755,512.051514 
	C524.772705,509.229828 529.945557,513.128418 535.254822,516.157898 
	C535.722046,516.424500 535.328796,518.199219 535.186768,519.595581 
z"/>
<path fill="#E7EADC" opacity="1.000000" stroke="none" 
	d="
M515.690491,511.592712 
	C513.895264,512.129517 511.829712,512.417969 509.361023,512.631714 
	C511.112000,512.152832 513.266052,511.748596 515.690491,511.592712 
z"/>
<path fill="#E7EADC" opacity="1.000000" stroke="none" 
	d="
M506.738861,512.635620 
	C505.524414,513.507568 504.082550,514.156372 502.304504,514.899170 
	C502.037170,511.588196 504.922333,513.141235 506.738861,512.635620 
z"/>
<path fill="#E7EADC" opacity="1.000000" stroke="none" 
	d="
M501.096619,568.810303 
	C501.447296,568.833740 501.533661,569.108215 501.316467,569.626831 
	C501.009705,569.572144 500.949524,569.302246 501.096619,568.810303 
z"/>
<path fill="#020201" opacity="1.000000" stroke="none" 
	d="
M609.342468,627.957397 
	C608.458252,627.684753 607.574097,627.412109 606.189575,626.961304 
	C605.689209,626.783203 605.429138,626.661011 605.429138,626.661011 
	C605.429138,626.661011 605.250305,626.885620 605.250305,626.885620 
	C604.298035,626.365173 603.345825,625.844666 602.007812,625.045166 
	C601.622070,624.766113 601.379822,624.596619 601.379822,624.596619 
	C601.379822,624.596619 601.158020,624.791809 601.158020,624.791809 
	C598.295227,621.978394 595.432495,619.164978 592.243958,615.849243 
	C591.234924,614.242920 590.551575,613.139038 589.868225,612.035095 
	C589.093628,609.800598 588.319031,607.566040 587.403137,604.945923 
	C587.261902,604.560364 586.932373,604.275818 586.932373,604.275818 
	C583.616211,590.374023 584.103210,576.860474 589.427917,563.326721 
	C596.177551,546.171082 620.591187,544.360352 631.152893,556.975769 
	C643.576355,571.814941 646.003113,601.855652 634.754211,617.756897 
	C632.968079,620.281738 630.362366,622.226868 627.939453,624.641846 
	C627.743408,624.843689 627.544373,625.049927 627.544373,625.049927 
	C627.166809,625.224243 626.789246,625.398560 625.872437,625.848755 
	C624.276306,626.574036 623.219482,627.023376 622.162720,627.472717 
	C618.336060,627.683777 614.509399,627.894836 610.182373,627.960815 
	C609.682068,627.815674 609.443787,627.723328 609.443787,627.723328 
	C609.443787,627.723328 609.342468,627.957397 609.342468,627.957397 
z"/>
<path fill="#EBEDE1" opacity="1.000000" stroke="none" 
	d="
M589.651489,612.246704 
	C590.551575,613.139038 591.234924,614.242920 591.958008,615.673950 
	C591.143433,614.820068 590.289062,613.639221 589.651489,612.246704 
z"/>
<path fill="#EBEDE1" opacity="1.000000" stroke="none" 
	d="
M622.558838,627.613892 
	C623.219482,627.023376 624.276306,626.574036 625.679626,626.100830 
	C625.002380,626.636353 623.978699,627.195679 622.558838,627.613892 
z"/>
<path fill="#EBEDE1" opacity="1.000000" stroke="none" 
	d="
M586.914551,604.351257 
	C586.932373,604.275818 587.261902,604.560364 587.157288,604.622375 
	C587.052673,604.684387 586.896790,604.426697 586.914551,604.351257 
z"/>
<path fill="#EBEDE1" opacity="1.000000" stroke="none" 
	d="
M601.209717,624.871948 
	C601.158020,624.791809 601.379822,624.596619 601.379822,624.596619 
	C601.379822,624.596619 601.622070,624.766113 601.619141,624.914551 
	C601.616211,625.062927 601.261414,624.952026 601.209717,624.871948 
z"/>
<path fill="#EBEDE1" opacity="1.000000" stroke="none" 
	d="
M627.561523,625.049194 
	C627.544373,625.049927 627.743408,624.843689 627.669922,624.933350 
	C627.596497,625.023010 627.578735,625.048462 627.561523,625.049194 
z"/>
<path fill="#EBEDE1" opacity="1.000000" stroke="none" 
	d="
M605.319641,626.953003 
	C605.250305,626.885620 605.429138,626.661011 605.429138,626.661011 
	C605.429138,626.661011 605.689209,626.783203 605.726562,626.922668 
	C605.763855,627.062134 605.388977,627.020386 605.319641,626.953003 
z"/>
<path fill="#EBEDE1" opacity="1.000000" stroke="none" 
	d="
M609.394775,628.010498 
	C609.342468,627.957397 609.443787,627.723328 609.443787,627.723328 
	C609.443787,627.723328 609.682068,627.815674 609.708008,627.941833 
	C609.734009,628.067993 609.447021,628.063599 609.394775,628.010498 
z"/>
<path fill="#EEF0E5" opacity="1.000000" stroke="none" 
	d="
M333.990509,748.257874 
	C334.093079,748.413696 334.042236,748.571167 333.991394,748.728577 
	C333.939972,748.572205 333.888550,748.415894 333.990509,748.257874 
z"/>
<path fill="#050605" opacity="1.000000" stroke="none" 
	d="
M410.151581,551.913086 
	C432.692932,541.126404 446.322174,558.388794 446.025848,580.377930 
	C430.131165,580.377930 414.230011,580.377930 397.883484,580.377930 
	C398.074493,569.167786 400.387695,559.180359 410.151581,551.913086 
z"/>
<path fill="#000000" opacity="1.000000" stroke="none" 
	d="
M740.302551,555.277283 
	C740.001404,555.687622 739.479370,555.872681 738.957275,556.057739 
	C739.034485,555.653015 739.111694,555.248291 739.416260,554.720581 
	C739.789673,554.749084 739.935669,554.900574 740.302551,555.277283 
z"/>
</svg>