<svg version="1.1" id="Layer_1" xmlns="http://www.w3.org/2000/svg" xmlns:xlink="http://www.w3.org/1999/xlink" x="0px" y="0px"
	 width="100%" viewBox="0 0 299 442" enable-background="new 0 0 299 442" xml:space="preserve">
<path fill="#010100" opacity="1.000000" stroke="none" 
	d="
M300.000000,172.000000 
	C300.000000,262.666595 300.000000,352.833221 300.000000,442.999878 
	C200.333450,442.999908 100.666916,442.999908 1.000280,442.999939 
	C1.000187,295.666901 1.000187,148.333771 1.000093,1.000497 
	C100.666382,1.000332 200.332764,1.000332 299.999573,1.000166 
	C300.000000,57.833332 300.000000,114.666664 300.000000,172.000000 
M43.265884,314.324066 
	C43.265884,314.324066 43.593304,314.562256 43.593304,314.562256 
	C43.593304,314.562256 43.983143,314.453033 44.602749,314.858429 
	C46.187691,315.531921 47.772629,316.205414 49.736404,317.380707 
	C51.505127,318.173706 53.273846,318.966705 55.524326,320.202545 
	C56.348011,320.468384 57.171692,320.734222 58.289497,321.587128 
	C59.877136,322.280304 61.464771,322.973480 63.693165,323.993530 
	C66.596306,325.298401 69.499451,326.603271 72.411812,328.192688 
	C72.411812,328.192688 72.664040,328.321228 72.664040,328.321228 
	C72.664040,328.321228 72.840042,328.099915 73.430252,328.634247 
	C81.686951,332.524750 89.852768,336.624817 98.222778,340.253998 
	C109.321358,345.066254 116.460556,340.773193 116.659630,328.790009 
	C116.983337,309.303009 117.141823,289.794250 116.569954,270.318115 
	C116.184280,257.183258 110.437157,246.912521 97.713013,241.085175 
	C82.150810,233.958069 66.891510,226.172150 51.437977,218.803757 
	C45.812428,216.121460 41.475311,212.480850 41.277512,205.847977 
	C41.044598,198.037384 40.926151,190.193588 41.387108,182.401382 
	C41.764664,176.019089 44.679359,173.807663 51.234230,173.775803 
	C62.063675,173.723160 72.893547,173.758575 83.723236,173.757233 
	C87.991325,173.756714 92.259415,173.757141 97.054878,173.757141 
	C97.054878,183.377640 96.940529,192.339630 97.157272,201.293640 
	C97.197655,202.962112 98.124054,205.412308 99.401100,206.108536 
	C104.892387,209.102219 110.666954,211.576324 116.563858,214.345596 
	C116.563858,194.071762 116.563858,174.340378 116.563858,154.477005 
	C91.671928,154.477005 67.043282,154.078247 42.437733,154.658585 
	C31.443792,154.917877 23.221569,163.246582 22.254551,174.355530 
	C21.290007,185.436096 21.535408,196.630676 21.450464,207.776794 
	C21.354328,220.391357 27.355841,229.226852 38.671734,234.577301 
	C53.983025,241.816910 69.108498,249.492706 84.677521,256.127655 
	C93.854546,260.038574 97.405594,266.064941 97.127159,275.712494 
	C96.738029,289.196106 97.053825,302.700043 96.537933,316.793396 
	C96.012894,316.873932 95.487862,316.954468 94.233414,316.583893 
	C93.689659,316.412903 93.145897,316.241913 92.600014,315.801788 
	C92.600014,315.801788 92.358955,315.686768 92.358955,315.686768 
	C92.358955,315.686768 92.247673,315.928955 91.619698,315.401733 
	C89.900879,314.623108 88.182053,313.844482 86.500000,312.838440 
	C86.500000,312.838440 86.427910,313.046753 85.773529,312.530579 
	C81.084137,310.376099 76.394753,308.221619 71.650070,305.787994 
	C71.650070,305.787994 71.394363,305.665283 71.394363,305.665283 
	C71.394363,305.665283 71.191238,305.863007 70.585457,305.342316 
	C66.803787,303.646759 63.152058,301.520355 59.216957,300.333527 
	C45.470875,296.187744 39.064114,287.439911 40.804558,272.919067 
	C40.968868,271.548218 39.817444,269.237366 38.625973,268.620850 
	C33.269592,265.849274 27.678102,263.532074 20.791628,260.429321 
	C21.422150,272.492523 21.310814,283.448151 22.878605,294.157959 
	C23.540432,298.679047 27.739702,302.682312 30.378300,307.260468 
	C30.378300,307.260468 30.649277,307.470215 30.649277,307.470215 
	C30.649277,307.470215 30.988228,307.419922 31.541473,307.892303 
	C34.701904,309.556061 37.862335,311.219818 41.349892,313.396362 
	C41.914188,313.567780 42.478485,313.739227 43.053875,313.986084 
	C43.053875,313.986084 43.118866,313.946198 43.265884,314.324066 
M207.905731,111.961639 
	C207.905731,111.961639 207.935150,111.871086 208.651718,111.872040 
	C210.695297,110.882431 212.738876,109.892822 215.450165,108.773628 
	C216.277679,108.406059 217.105194,108.038483 218.515823,107.762527 
	C218.996262,107.445305 219.476715,107.128090 220.719666,106.713531 
	C221.871338,106.168221 223.023026,105.622917 224.361053,105.320038 
	C224.627121,105.298317 224.736008,105.156036 225.412125,104.750130 
	C225.615051,104.610832 225.817993,104.471542 226.372482,104.490959 
	C226.661118,104.418213 226.818222,104.233543 227.589539,103.790192 
	C230.451782,102.563660 233.314041,101.337128 236.385117,100.323723 
	C236.635239,100.301529 236.751205,100.165123 237.527771,99.795204 
	C238.733597,99.244667 239.939423,98.694138 241.372375,98.358322 
	C241.633423,98.321724 241.746719,98.172676 242.459106,97.770462 
	C242.659073,97.614929 242.859024,97.459396 243.386368,97.445808 
	C243.651810,97.379570 243.800415,97.210556 244.543274,96.877327 
	C246.003738,96.180504 247.464203,95.483681 249.628006,94.805122 
	C251.063873,94.120422 252.499725,93.435715 254.619843,92.712036 
	C256.061035,92.024536 257.502228,91.337044 259.620453,90.680321 
	C261.367615,89.766953 263.114777,88.853577 265.430481,87.890709 
	C265.600586,87.805481 265.770660,87.720245 266.518768,87.704163 
	C266.993591,87.392677 267.468414,87.081200 268.624084,86.703415 
	C270.409760,85.788338 272.195465,84.873260 274.684937,83.960579 
	C276.284973,83.258255 277.885010,82.555931 280.586884,81.369957 
	C277.852539,80.392426 276.394958,79.871330 274.313263,79.009567 
	C272.789154,78.366089 271.265045,77.722618 269.654572,76.776436 
	C269.654572,76.776436 269.367584,76.648819 269.367584,76.648819 
	C269.367584,76.648819 269.125488,76.848763 268.502655,76.365967 
	C226.516632,57.884964 184.530609,39.403957 142.344986,20.835096 
	C142.344986,144.967804 142.344986,268.205933 142.344986,391.391479 
	C147.924026,391.391479 153.168533,391.391479 158.833710,391.391479 
	C158.833710,388.679871 158.832993,386.380951 158.833801,384.082031 
	C158.862595,301.928314 158.896820,219.774582 158.897385,137.620865 
	C158.897400,134.891815 158.669418,132.218201 162.358505,131.429169 
	C162.640503,131.373962 162.779404,131.202667 163.515106,130.796616 
	C165.981796,129.718582 168.448471,128.640533 171.625076,127.589577 
	C174.400055,126.319923 177.175049,125.050262 180.599686,123.717232 
	C181.388992,123.354172 182.178299,122.991112 183.413391,122.667877 
	C183.703506,122.521820 183.874680,122.288490 184.450592,121.896164 
	C184.610748,121.822716 184.770905,121.749275 185.618393,121.731010 
	C187.408356,120.802147 189.198318,119.873276 191.735352,118.828789 
	C192.850723,118.282028 193.966110,117.735275 195.358139,117.370842 
	C195.624298,117.331398 195.755966,117.177094 196.435822,116.827187 
	C197.268692,116.450722 198.101547,116.074249 199.524933,115.759697 
	C199.999969,115.429749 200.475006,115.099792 201.704651,114.683723 
	C202.847275,114.161232 203.989883,113.638748 205.346329,113.361374 
	C205.627014,113.324348 205.735855,113.167709 206.430420,112.716080 
	C206.637772,112.560555 206.845139,112.405037 207.371719,112.425476 
	C207.652817,112.370834 207.803177,112.200645 207.905731,111.961639 
M118.199974,365.026001 
	C107.374878,367.120911 96.847977,369.952576 87.505005,376.205627 
	C74.922050,384.627167 73.548912,397.762329 85.868111,406.424103 
	C93.786613,411.991638 103.348549,416.015564 112.762672,418.502472 
	C134.597107,424.270386 156.951813,423.851929 179.172821,420.449799 
	C192.068710,418.475403 204.499146,414.763031 215.030426,406.570648 
	C225.010117,398.807404 225.433655,387.803741 216.252960,379.182007 
	C214.806870,377.823944 213.249573,376.536865 211.581863,375.469910 
	C200.632980,368.464935 188.292114,365.751221 175.757339,363.195892 
	C174.425888,373.776428 174.512680,373.511047 183.555283,376.468384 
	C190.602524,378.773102 197.790115,381.146637 204.211151,384.745850 
	C212.789322,389.554291 212.352081,395.973663 203.441391,400.504730 
	C198.148270,403.196259 192.489990,405.582062 186.720047,406.853241 
	C159.262390,412.902435 131.878189,412.748260 104.874245,404.206299 
	C100.983665,402.975616 97.130035,401.062469 93.823196,398.681885 
	C88.582268,394.909027 88.609344,390.472565 93.694534,386.388519 
	C96.501205,384.134399 99.866638,382.576050 103.706100,380.709595 
	C106.122765,379.759674 108.539421,378.809784 111.662399,377.876678 
	C112.096848,377.720367 112.531296,377.564056 113.500313,377.529022 
	C113.982918,377.296051 114.465515,377.063049 115.660858,376.861542 
	C116.095734,376.694824 116.530602,376.528107 117.682121,376.439178 
	C120.173210,375.274292 122.664299,374.109406 125.430969,372.133698 
	C125.313454,370.434235 125.195938,368.734802 125.307770,366.494293 
	C125.533012,363.887848 124.863152,362.515350 121.285263,364.096588 
	C120.827332,364.271149 120.369400,364.445740 119.558350,364.461670 
	C119.303177,364.568359 119.128967,364.751953 118.199974,365.026001 
M275.422119,164.645050 
	C275.338409,164.409134 275.172760,164.310013 274.703735,163.700806 
	C273.088440,162.152023 271.473175,160.603241 269.597595,158.505676 
	C268.714111,158.052872 267.830597,157.600082 266.533783,156.733032 
	C261.904144,155.898376 257.282623,154.399399 252.643448,154.342499 
	C230.989700,154.076874 209.331100,154.204071 187.674225,154.214783 
	C186.569626,154.215332 185.465134,154.438309 184.434616,154.549713 
	C184.434616,217.042404 184.434616,279.223389 184.434616,341.845978 
	C190.089172,339.195435 195.247253,336.595154 200.559814,334.362488 
	C203.314850,333.204681 204.031921,331.519989 204.012344,328.676117 
	C203.891968,311.184937 204.175308,293.687836 203.812119,276.203369 
	C203.708191,271.199493 205.516006,268.683655 209.782288,266.750214 
	C226.260422,259.282501 242.601410,251.512070 259.084167,244.054764 
	C273.351044,237.600006 279.430450,226.069794 279.832855,211.086823 
	C280.105530,200.932449 280.351654,190.730759 279.654480,180.616058 
	C279.289581,175.322113 276.865326,170.170090 275.422119,164.645050 
z"/>
<path fill="#F8FAF2" opacity="1.000000" stroke="none" 
	d="
M248.924652,94.786865 
	C247.464203,95.483681 246.003738,96.180504 244.025024,96.870712 
	C243.250214,96.901489 243.100952,97.048080 243.058975,97.303864 
	C242.859024,97.459396 242.659073,97.614929 241.967987,97.790771 
	C241.269577,97.825516 241.159042,97.936356 241.145233,98.143600 
	C239.939423,98.694138 238.733597,99.244667 237.019562,99.800842 
	C236.511337,99.806480 236.176300,100.110603 236.176300,100.110596 
	C233.314041,101.337128 230.451782,102.563660 227.040421,103.819901 
	C226.204025,103.883354 226.047226,104.044243 226.020920,104.332260 
	C225.817993,104.471542 225.615051,104.610832 224.946716,104.755051 
	C224.481323,104.759964 224.174698,105.077606 224.174698,105.077606 
	C223.023026,105.622917 221.871338,106.168221 220.176697,106.564651 
	C219.066727,106.834152 218.499725,107.252533 217.932709,107.670906 
	C217.105194,108.038483 216.277679,108.406059 214.740128,108.796524 
	C211.998444,109.836647 209.966797,110.853867 207.935150,111.871086 
	C207.935150,111.871086 207.905731,111.961639 207.702438,111.882767 
	C207.224243,111.826180 207.075363,111.974716 207.052490,112.249512 
	C206.845139,112.405037 206.637772,112.560555 205.937378,112.738831 
	C205.223267,112.776962 205.119324,112.895187 205.132507,113.116257 
	C203.989883,113.638748 202.847275,114.161232 201.166702,114.522888 
	C200.063980,114.807297 199.499191,115.252541 198.934402,115.697777 
	C198.101547,116.074249 197.268692,116.450722 195.953369,116.804741 
	C195.217224,116.799026 195.087418,116.934433 195.081497,117.188522 
	C193.966110,117.735275 192.850723,118.282028 191.147552,118.672447 
	C188.683533,119.569344 186.807297,120.622589 184.931061,121.675835 
	C184.770905,121.749275 184.610748,121.822716 183.966858,121.927841 
	C183.165863,122.070251 182.994019,122.293091 182.967621,122.628052 
	C182.178299,122.991112 181.388992,123.354172 180.041260,123.535629 
	C176.626938,124.756851 173.771057,126.159668 170.915161,127.562485 
	C168.448471,128.640533 165.981796,129.718582 162.990707,130.798691 
	C162.198593,130.825470 162.061157,130.972168 162.054016,131.240860 
	C158.669418,132.218201 158.897400,134.891815 158.897385,137.620865 
	C158.896820,219.774582 158.862595,301.928314 158.833801,384.082031 
	C158.832993,386.380951 158.833710,388.679871 158.833710,391.391479 
	C153.168533,391.391479 147.924026,391.391479 142.344986,391.391479 
	C142.344986,268.205933 142.344986,144.967804 142.344986,20.835096 
	C184.530609,39.403957 226.516632,57.884964 268.872498,76.726692 
	C269.242340,77.087418 269.493195,77.175056 269.493195,77.175056 
	C269.493195,77.175056 269.740936,77.079147 269.740936,77.079147 
	C271.265045,77.722618 272.789154,78.366089 274.621277,79.521751 
	C274.613220,81.342010 274.297180,82.650093 273.981140,83.958176 
	C272.195465,84.873260 270.409760,85.788338 268.123657,86.539017 
	C267.062408,86.794754 266.501556,87.214882 265.940704,87.635017 
	C265.770660,87.720245 265.600586,87.805481 264.781128,87.877731 
	C262.402344,88.793022 260.672882,89.721283 258.943420,90.649551 
	C257.502228,91.337044 256.061035,92.024536 254.057373,92.518707 
	C251.971481,93.145866 250.448059,93.966362 248.924652,94.786865 
M232.305481,83.867119 
	C234.153366,83.031784 236.001251,82.196449 238.835007,80.915459 
	C211.549698,68.965340 185.405563,57.515034 159.170319,46.024818 
	C159.170319,68.877129 159.170319,91.387581 159.170319,114.707390 
	C183.684631,104.379364 207.655167,94.280434 232.305481,83.867119 
z"/>
<path fill="#F8F9F2" opacity="1.000000" stroke="none" 
	d="
M72.402588,327.908142 
	C69.499451,326.603271 66.596306,325.298401 63.298302,323.503052 
	C61.267422,322.341736 59.631401,321.670898 57.995377,321.000061 
	C57.171692,320.734222 56.348011,320.468384 55.223469,319.647949 
	C53.067593,318.355194 51.212574,317.617065 49.357563,316.878906 
	C47.772629,316.205414 46.187691,315.531921 44.212440,314.486420 
	C43.618458,313.929718 43.384037,313.873657 43.118866,313.946198 
	C43.118866,313.946198 43.053875,313.986084 43.017769,313.669189 
	C42.328693,313.196075 41.675728,313.039856 41.022762,312.883606 
	C37.862335,311.219818 34.701904,309.556061 31.227623,307.499115 
	C30.761129,306.913086 30.566883,306.851410 30.331036,306.920929 
	C27.739702,302.682312 23.540432,298.679047 22.878605,294.157959 
	C21.310814,283.448151 21.422150,272.492523 20.791628,260.429321 
	C27.678102,263.532074 33.269592,265.849274 38.625973,268.620850 
	C39.817444,269.237366 40.968868,271.548218 40.804558,272.919067 
	C39.064114,287.439911 45.470875,296.187744 59.216957,300.333527 
	C63.152058,301.520355 66.803787,303.646759 70.949005,305.685028 
	C71.312546,306.027740 71.705360,306.067139 71.705368,306.067139 
	C76.394753,308.221619 81.084137,310.376099 86.095520,312.773743 
	C86.417511,313.016937 86.463219,313.065857 86.463226,313.065857 
	C88.182053,313.844482 89.900879,314.623108 91.968788,315.732483 
	C92.317879,316.063232 92.602135,316.070923 92.602135,316.070923 
	C93.145897,316.241913 93.689659,316.412903 94.728348,317.031311 
	C95.838203,317.050903 96.453110,316.623108 97.068016,316.195312 
	C97.053825,302.700043 96.738029,289.196106 97.127159,275.712494 
	C97.405594,266.064941 93.854546,260.038574 84.677521,256.127655 
	C69.108498,249.492706 53.983025,241.816910 38.671734,234.577301 
	C27.355841,229.226852 21.354328,220.391357 21.450464,207.776794 
	C21.535408,196.630676 21.290007,185.436096 22.254551,174.355530 
	C23.221569,163.246582 31.443792,154.917877 42.437733,154.658585 
	C67.043282,154.078247 91.671928,154.477005 116.563858,154.477005 
	C116.563858,174.340378 116.563858,194.071762 116.563858,214.345596 
	C110.666954,211.576324 104.892387,209.102219 99.401100,206.108536 
	C98.124054,205.412308 97.197655,202.962112 97.157272,201.293640 
	C96.940529,192.339630 97.054878,183.377640 97.054878,173.757141 
	C92.259415,173.757141 87.991325,173.756714 83.723236,173.757233 
	C72.893547,173.758575 62.063675,173.723160 51.234230,173.775803 
	C44.679359,173.807663 41.764664,176.019089 41.387108,182.401382 
	C40.926151,190.193588 41.044598,198.037384 41.277512,205.847977 
	C41.475311,212.480850 45.812428,216.121460 51.437977,218.803757 
	C66.891510,226.172150 82.150810,233.958069 97.713013,241.085175 
	C110.437157,246.912521 116.184280,257.183258 116.569954,270.318115 
	C117.141823,289.794250 116.983337,309.303009 116.659630,328.790009 
	C116.460556,340.773193 109.321358,345.066254 98.222778,340.253998 
	C89.852768,336.624817 81.686951,332.524750 73.105087,328.267639 
	C72.779930,327.901001 72.402580,327.908173 72.402588,327.908142 
z"/>
<path fill="#F8F9F2" opacity="1.000000" stroke="none" 
	d="
M269.857910,159.054459 
	C271.473175,160.603241 273.088440,162.152023 274.816681,164.167664 
	C275.005737,164.839233 275.152893,164.945724 275.371094,164.953964 
	C276.865326,170.170090 279.289581,175.322113 279.654480,180.616058 
	C280.351654,190.730759 280.105530,200.932449 279.832855,211.086823 
	C279.430450,226.069794 273.351044,237.600006 259.084167,244.054764 
	C242.601410,251.512070 226.260422,259.282501 209.782288,266.750214 
	C205.516006,268.683655 203.708191,271.199493 203.812119,276.203369 
	C204.175308,293.687836 203.891968,311.184937 204.012344,328.676117 
	C204.031921,331.519989 203.314850,333.204681 200.559814,334.362488 
	C195.247253,336.595154 190.089172,339.195435 184.434616,341.845978 
	C184.434616,279.223389 184.434616,217.042404 184.434616,154.549713 
	C185.465134,154.438309 186.569626,154.215332 187.674225,154.214783 
	C209.331100,154.204071 230.989700,154.076874 252.643448,154.342499 
	C257.282623,154.399399 261.904144,155.898376 266.796783,157.266510 
	C267.992493,158.218155 268.925201,158.636307 269.857910,159.054459 
M203.930054,226.499817 
	C203.930054,233.267593 203.930054,240.035370 203.930054,247.264542 
	C205.359756,246.778275 206.305756,246.547348 207.174088,246.147659 
	C221.523438,239.542984 235.864151,232.919510 250.204315,226.294861 
	C256.797821,223.248886 259.893219,217.834839 260.043365,210.821701 
	C260.239410,201.663055 260.197754,192.494537 260.029572,183.334473 
	C259.904877,176.544708 256.886932,173.768539 250.036880,173.757156 
	C236.041565,173.733917 222.046112,173.759521 208.050827,173.800964 
	C206.792480,173.804688 205.534927,174.070084 203.930161,174.253632 
	C203.930161,191.563095 203.930161,208.531464 203.930054,226.499817 
z"/>
<path fill="#F3F4EB" opacity="1.000000" stroke="none" 
	d="
M112.965744,377.407745 
	C112.531296,377.564056 112.096848,377.720367 111.075645,377.648865 
	C107.985992,378.515350 105.483093,379.609711 102.980194,380.704041 
	C99.866638,382.576050 96.501205,384.134399 93.694534,386.388519 
	C88.609344,390.472565 88.582268,394.909027 93.823196,398.681885 
	C97.130035,401.062469 100.983665,402.975616 104.874245,404.206299 
	C131.878189,412.748260 159.262390,412.902435 186.720047,406.853241 
	C192.489990,405.582062 198.148270,403.196259 203.441391,400.504730 
	C212.352081,395.973663 212.789322,389.554291 204.211151,384.745850 
	C197.790115,381.146637 190.602524,378.773102 183.555283,376.468384 
	C174.512680,373.511047 174.425888,373.776428 175.757339,363.195892 
	C188.292114,365.751221 200.632980,368.464935 211.581863,375.469910 
	C213.249573,376.536865 214.806870,377.823944 216.252960,379.182007 
	C225.433655,387.803741 225.010117,398.807404 215.030426,406.570648 
	C204.499146,414.763031 192.068710,418.475403 179.172821,420.449799 
	C156.951813,423.851929 134.597107,424.270386 112.762672,418.502472 
	C103.348549,416.015564 93.786613,411.991638 85.868111,406.424103 
	C73.548912,397.762329 74.922050,384.627167 87.505005,376.205627 
	C96.847977,369.952576 107.374878,367.120911 118.785973,365.012207 
	C119.603378,364.945984 119.783218,364.819946 119.911469,364.620331 
	C120.369400,364.445740 120.827332,364.271149 121.847275,364.347626 
	C123.298996,365.410889 124.188705,366.223114 125.078415,367.035339 
	C125.195938,368.734802 125.313454,370.434235 124.922104,372.591736 
	C121.930641,374.153625 119.448059,375.257507 116.965469,376.361389 
	C116.530602,376.528107 116.095734,376.694824 115.157295,376.654358 
	C114.091064,376.767365 113.528404,377.087555 112.965744,377.407745 
z"/>
<path fill="#DADDCE" opacity="1.000000" stroke="none" 
	d="
M274.333038,83.959381 
	C274.297180,82.650093 274.613220,81.342010 274.933319,79.692085 
	C276.394958,79.871330 277.852539,80.392426 280.586884,81.369957 
	C277.885010,82.555931 276.284973,83.258255 274.333038,83.959381 
z"/>
<path fill="#D0D2C3" opacity="1.000000" stroke="none" 
	d="
M171.270111,127.576035 
	C173.771057,126.159668 176.626938,124.756851 179.716431,123.567322 
	C177.175049,125.050262 174.400055,126.319923 171.270111,127.576035 
z"/>
<path fill="#E8EDDB" opacity="1.000000" stroke="none" 
	d="
M117.323792,376.400269 
	C119.448059,375.257507 121.930641,374.153625 124.784309,372.997131 
	C122.664299,374.109406 120.173210,375.274292 117.323792,376.400269 
z"/>
<path fill="#E8EDDB" opacity="1.000000" stroke="none" 
	d="
M103.343147,380.706818 
	C105.483093,379.609711 107.985992,378.515350 110.722488,377.640442 
	C108.539421,378.809784 106.122765,379.759674 103.343147,380.706818 
z"/>
<path fill="#D0D2C3" opacity="1.000000" stroke="none" 
	d="
M185.274719,121.703423 
	C186.807297,120.622589 188.683533,119.569344 190.774033,118.730255 
	C189.198318,119.873276 187.408356,120.802147 185.274719,121.703423 
z"/>
<path fill="#D0D2C3" opacity="1.000000" stroke="none" 
	d="
M208.293427,111.871567 
	C209.966797,110.853867 211.998444,109.836647 214.406281,108.861313 
	C212.738876,109.892822 210.695297,110.882431 208.293427,111.871567 
z"/>
<path fill="#E8EDDB" opacity="1.000000" stroke="none" 
	d="
M125.193092,366.764832 
	C124.188705,366.223114 123.298996,365.410889 122.221649,364.359100 
	C124.863152,362.515350 125.533012,363.887848 125.193092,366.764832 
z"/>
<path fill="#DADDCE" opacity="1.000000" stroke="none" 
	d="
M259.281921,90.664932 
	C260.672882,89.721283 262.402344,88.793022 264.496887,87.902481 
	C263.114777,88.853577 261.367615,89.766953 259.281921,90.664932 
z"/>
<path fill="#DCDED0" opacity="1.000000" stroke="none" 
	d="
M49.546982,317.129822 
	C51.212574,317.617065 53.067593,318.355194 54.982590,319.426514 
	C53.273846,318.966705 51.505127,318.173706 49.546982,317.129822 
z"/>
<path fill="#DADDCE" opacity="1.000000" stroke="none" 
	d="
M249.276337,94.795990 
	C250.448059,93.966362 251.971481,93.145866 253.715240,92.538193 
	C252.499725,93.435715 251.063873,94.120422 249.276337,94.795990 
z"/>
<path fill="#DCDED0" opacity="1.000000" stroke="none" 
	d="
M58.142437,321.293579 
	C59.631401,321.670898 61.267422,322.341736 62.977928,323.339600 
	C61.464771,322.973480 59.877136,322.280304 58.142437,321.293579 
z"/>
<path fill="#E2E5D5" opacity="1.000000" stroke="none" 
	d="
M269.727753,158.780060 
	C268.925201,158.636307 267.992493,158.218155 267.003448,157.473633 
	C267.830597,157.600082 268.714111,158.052872 269.727753,158.780060 
z"/>
<path fill="#DCDED0" opacity="1.000000" stroke="none" 
	d="
M41.186325,313.139984 
	C41.675728,313.039856 42.328693,313.196075 43.012222,313.631470 
	C42.478485,313.739227 41.914188,313.567780 41.186325,313.139984 
z"/>
<path fill="#DADDCE" opacity="1.000000" stroke="none" 
	d="
M266.229736,87.669586 
	C266.501556,87.214882 267.062408,86.794754 267.783264,86.572174 
	C267.468414,87.081200 266.993591,87.392677 266.229736,87.669586 
z"/>
<path fill="#E8EBDE" opacity="1.000000" stroke="none" 
	d="
M96.802979,316.494354 
	C96.453110,316.623108 95.838203,317.050903 95.093056,317.256836 
	C95.487862,316.954468 96.012894,316.873932 96.802979,316.494354 
z"/>
<path fill="#D0D2C3" opacity="1.000000" stroke="none" 
	d="
M199.229675,115.728737 
	C199.499191,115.252541 200.063980,114.807297 200.789398,114.565948 
	C200.475006,115.099792 199.999969,115.429749 199.229675,115.728737 
z"/>
<path fill="#D0D2C3" opacity="1.000000" stroke="none" 
	d="
M218.224274,107.716721 
	C218.499725,107.252533 219.066727,106.834152 219.795441,106.613327 
	C219.476715,107.128090 218.996262,107.445305 218.224274,107.716721 
z"/>
<path fill="#E8EDDB" opacity="1.000000" stroke="none" 
	d="
M113.233032,377.468384 
	C113.528404,377.087555 114.091064,376.767365 114.800926,376.638611 
	C114.465515,377.063049 113.982918,377.296051 113.233032,377.468384 
z"/>
<path fill="#DCDED0" opacity="1.000000" stroke="none" 
	d="
M72.407196,328.050415 
	C72.402580,327.908173 72.779930,327.901001 72.809982,328.000458 
	C72.840042,328.099915 72.664040,328.321228 72.664040,328.321228 
	C72.664040,328.321228 72.411812,328.192688 72.407196,328.050415 
z"/>
<path fill="#DADDCE" opacity="1.000000" stroke="none" 
	d="
M269.697754,76.927795 
	C269.740936,77.079147 269.493195,77.175056 269.493195,77.175056 
	C269.493195,77.175056 269.242340,77.087418 269.183899,76.968094 
	C269.125488,76.848763 269.367584,76.648819 269.367584,76.648819 
	C269.367584,76.648819 269.654572,76.776436 269.697754,76.927795 
z"/>
<path fill="#E8EDDB" opacity="1.000000" stroke="none" 
	d="
M119.734909,364.541016 
	C119.783218,364.819946 119.603378,364.945984 119.203842,365.005432 
	C119.128967,364.751953 119.303177,364.568359 119.734909,364.541016 
z"/>
<path fill="#E8EBDE" opacity="1.000000" stroke="none" 
	d="
M92.601074,315.936340 
	C92.602135,316.070923 92.317879,316.063232 92.282776,315.996094 
	C92.247673,315.928955 92.358955,315.686768 92.358955,315.686768 
	C92.358955,315.686768 92.600014,315.801788 92.601074,315.936340 
z"/>
<path fill="#DCDED0" opacity="1.000000" stroke="none" 
	d="
M43.192375,314.135132 
	C43.384037,313.873657 43.618458,313.929718 43.902634,314.283722 
	C43.983143,314.453033 43.593304,314.562256 43.593304,314.562256 
	C43.593304,314.562256 43.265884,314.324066 43.192375,314.135132 
z"/>
<path fill="#E2E5D5" opacity="1.000000" stroke="none" 
	d="
M275.396606,164.799500 
	C275.152893,164.945724 275.005737,164.839233 274.927429,164.491089 
	C275.172760,164.310013 275.338409,164.409134 275.396606,164.799500 
z"/>
<path fill="#E8EBDE" opacity="1.000000" stroke="none" 
	d="
M86.481613,312.952148 
	C86.463219,313.065857 86.417511,313.016937 86.422714,313.031860 
	C86.427910,313.046753 86.500000,312.838440 86.481613,312.952148 
z"/>
<path fill="#DCDED0" opacity="1.000000" stroke="none" 
	d="
M30.354666,307.090698 
	C30.566883,306.851410 30.761129,306.913086 30.951000,307.262939 
	C30.988228,307.419922 30.649277,307.470215 30.649277,307.470215 
	C30.649277,307.470215 30.378300,307.260468 30.354666,307.090698 
z"/>
<path fill="#E8EBDE" opacity="1.000000" stroke="none" 
	d="
M71.677719,305.927551 
	C71.705360,306.067139 71.312546,306.027740 71.251892,305.945374 
	C71.191238,305.863007 71.394363,305.665283 71.394363,305.665283 
	C71.394363,305.665283 71.650070,305.787994 71.677719,305.927551 
z"/>
<path fill="#DADDCE" opacity="1.000000" stroke="none" 
	d="
M241.258804,98.250961 
	C241.159042,97.936356 241.269577,97.825516 241.594574,97.861122 
	C241.746719,98.172676 241.633423,98.321724 241.258804,98.250961 
z"/>
<path fill="#D0D2C3" opacity="1.000000" stroke="none" 
	d="
M162.206268,131.335022 
	C162.061157,130.972168 162.198593,130.825470 162.620758,130.858017 
	C162.779404,131.202667 162.640503,131.373962 162.206268,131.335022 
z"/>
<path fill="#DADDCE" opacity="1.000000" stroke="none" 
	d="
M243.222672,97.374832 
	C243.100952,97.048080 243.250214,96.901489 243.669464,96.901428 
	C243.800415,97.210556 243.651810,97.379570 243.222672,97.374832 
z"/>
<path fill="#D0D2C3" opacity="1.000000" stroke="none" 
	d="
M183.190506,122.647964 
	C182.994019,122.293091 183.165863,122.070251 183.705017,121.963715 
	C183.874680,122.288490 183.703506,122.521820 183.190506,122.647964 
z"/>
<path fill="#D0D2C3" opacity="1.000000" stroke="none" 
	d="
M195.219818,117.279686 
	C195.087418,116.934433 195.217224,116.799026 195.612030,116.845123 
	C195.755966,117.177094 195.624298,117.331398 195.219818,117.279686 
z"/>
<path fill="#D0D2C3" opacity="1.000000" stroke="none" 
	d="
M205.239410,113.238815 
	C205.119324,112.895187 205.223267,112.776962 205.558594,112.826515 
	C205.735855,113.167709 205.627014,113.324348 205.239410,113.238815 
z"/>
<path fill="#D0D2C3" opacity="1.000000" stroke="none" 
	d="
M207.212097,112.337494 
	C207.075363,111.974716 207.224243,111.826180 207.660965,111.859398 
	C207.803177,112.200645 207.652817,112.370834 207.212097,112.337494 
z"/>
<path fill="#D0D2C3" opacity="1.000000" stroke="none" 
	d="
M224.267883,105.198822 
	C224.174698,105.077606 224.481323,104.759964 224.584518,104.826584 
	C224.736008,105.156036 224.627121,105.298317 224.267883,105.198822 
z"/>
<path fill="#D0D2C3" opacity="1.000000" stroke="none" 
	d="
M226.196701,104.411606 
	C226.047226,104.044243 226.204025,103.883354 226.667557,103.893280 
	C226.818222,104.233543 226.661118,104.418213 226.196701,104.411606 
z"/>
<path fill="#DADDCE" opacity="1.000000" stroke="none" 
	d="
M236.280701,100.217163 
	C236.176300,100.110603 236.511337,99.806480 236.622177,99.860489 
	C236.751205,100.165123 236.635239,100.301529 236.280701,100.217163 
z"/>
<path fill="#020202" opacity="1.000000" stroke="none" 
	d="
M231.965591,84.024307 
	C207.655167,94.280434 183.684631,104.379364 159.170319,114.707390 
	C159.170319,91.387581 159.170319,68.877129 159.170319,46.024818 
	C185.405563,57.515034 211.549698,68.965340 238.835007,80.915459 
	C236.001251,82.196449 234.153366,83.031784 231.965591,84.024307 
z"/>
<path fill="#010101" opacity="1.000000" stroke="none" 
	d="
M203.930115,225.999832 
	C203.930161,208.531464 203.930161,191.563095 203.930161,174.253632 
	C205.534927,174.070084 206.792480,173.804688 208.050827,173.800964 
	C222.046112,173.759521 236.041565,173.733917 250.036880,173.757156 
	C256.886932,173.768539 259.904877,176.544708 260.029572,183.334473 
	C260.197754,192.494537 260.239410,201.663055 260.043365,210.821701 
	C259.893219,217.834839 256.797821,223.248886 250.204315,226.294861 
	C235.864151,232.919510 221.523438,239.542984 207.174088,246.147659 
	C206.305756,246.547348 205.359756,246.778275 203.930054,247.264542 
	C203.930054,240.035370 203.930054,233.267593 203.930115,225.999832 
z"/>
</svg>