<?xml version="1.0" encoding="UTF-8" standalone="no"?>
<!DOCTYPE svg PUBLIC "-//W3C//DTD SVG 1.1//EN" "http://www.w3.org/Graphics/SVG/1.1/DTD/svg11.dtd">
<svg xmlns="http://www.w3.org/2000/svg" version="1.1" viewBox="0.00 0.00 1254.00 1254.00">
<path fill="#c4a577" d="
  M 862.61 310.70
  A 0.34 0.33 -45.7 0 1 862.61 311.31
  Q 856.07 314.46 841.38 320.65
  Q 787.26 343.47 707.26 376.75
  Q 683.76 386.53 642.75 403.11
  A 1.73 1.72 -11.1 0 0 641.67 404.71
  L 641.67 948.68
  A 0.67 0.67 0.0 0 1 641.00 949.35
  L 610.14 949.35
  A 0.65 0.65 0.0 0 1 609.49 948.70
  L 609.49 206.65
  A 0.82 0.81 11.0 0 1 610.61 205.90
  Q 643.44 219.22 690.02 238.52
  Q 731.87 255.86 786.17 278.42
  C 795.47 282.29 803.26 285.99 813.14 289.59
  C 818.94 291.70 826.55 295.57 834.29 298.70
  Q 847.89 304.20 862.61 310.70
  Z
  M 642.51 251.89
  A 0.74 0.74 0.0 0 0 641.49 252.57
  L 641.89 369.74
  A 0.74 0.74 0.0 0 0 642.92 370.42
  L 785.02 311.34
  A 0.74 0.74 0.0 0 0 785.01 309.97
  L 642.51 251.89
  Z"
/>
<path fill="#f5f1e9" d="
  M 366.50 677.01
  A 0.25 0.25 0.0 0 1 366.88 676.79
  L 402.61 696.58
  A 1.29 1.29 0.0 0 1 403.26 697.70
  Q 403.21 732.85 403.36 742.17
  Q 403.49 749.59 407.89 754.71
  Q 410.29 757.51 419.54 761.40
  Q 427.72 764.85 515.61 804.39
  C 517.70 805.33 519.16 803.24 519.16 801.31
  Q 519.19 713.52 519.23 697.00
  C 519.26 688.58 519.52 682.66 515.31 676.51
  Q 513.62 674.04 506.47 669.89
  Q 463.25 644.85 448.89 636.62
  Q 396.15 606.38 394.30 605.34
  Q 384.28 599.73 379.86 595.24
  Q 370.88 586.11 367.73 574.07
  Q 366.40 569.00 366.41 555.83
  Q 366.44 521.61 366.48 487.54
  Q 366.52 460.25 389.52 447.04
  Q 395.17 443.80 402.92 442.11
  Q 407.41 441.12 417.16 441.36
  Q 417.62 441.37 555.54 441.36
  A 0.62 0.62 0.0 0 1 556.16 441.98
  L 556.16 568.03
  A 0.61 0.61 0.0 0 1 555.24 568.56
  L 520.11 548.27
  A 1.87 1.87 0.0 0 1 519.17 546.65
  L 519.17 480.16
  A 0.99 0.99 0.0 0 0 518.18 479.17
  Q 459.80 479.15 424.01 479.13
  Q 414.86 479.12 411.74 480.63
  Q 406.36 483.23 404.15 488.72
  Q 403.14 491.24 403.14 499.87
  Q 403.15 537.27 403.17 552.52
  Q 403.19 560.34 404.73 563.67
  Q 407.17 568.94 412.64 572.12
  Q 466.71 603.51 473.24 607.01
  Q 474.17 607.51 481.08 611.65
  Q 488.64 616.17 528.74 638.86
  Q 538.69 644.49 542.44 648.23
  Q 551.52 657.28 554.82 669.37
  Q 556.17 674.32 556.17 685.72
  Q 556.14 804.82 556.19 813.43
  C 556.28 829.08 547.30 843.40 531.51 846.96
  Q 527.55 847.85 520.38 847.31
  Q 516.53 847.02 509.87 843.88
  Q 487.32 833.23 445.51 814.60
  Q 406.25 797.10 402.97 795.86
  C 397.07 793.64 390.47 790.96 384.83 786.82
  Q 372.33 777.67 368.19 762.62
  Q 366.43 756.23 366.45 743.55
  Q 366.56 692.12 366.50 677.01
  Z"
/>
<path fill="#f5f1e9" d="
  M 699.59 847.08
  A 0.47 0.47 0.0 0 1 698.87 846.68
  L 698.87 441.97
  A 0.57 0.57 0.0 0 1 699.44 441.40
  Q 817.35 441.30 850.20 441.44
  Q 860.78 441.49 871.31 448.18
  Q 886.27 457.69 890.73 474.15
  Q 892.30 479.94 892.27 491.44
  Q 892.18 530.73 892.26 558.40
  Q 892.29 571.81 890.56 577.97
  Q 887.40 589.17 879.34 597.55
  Q 876.15 600.88 867.10 606.15
  Q 848.05 617.26 828.67 628.51
  Q 820.72 633.13 810.87 638.70
  Q 800.82 644.38 784.15 653.87
  Q 758.18 668.66 737.68 680.42
  C 736.01 681.38 736.42 683.81 736.42 685.48
  Q 736.46 761.19 736.44 822.89
  A 0.99 0.98 73.8 0 1 735.99 823.72
  L 699.59 847.08
  Z
  M 736.91 637.93
  Q 737.24 637.80 738.49 637.06
  Q 801.71 599.37 843.20 575.44
  Q 849.64 571.72 851.79 568.87
  Q 855.20 564.35 855.29 558.71
  Q 855.59 537.81 855.43 498.48
  Q 855.40 490.57 854.26 488.14
  Q 851.96 483.21 847.03 480.67
  Q 844.10 479.15 834.69 479.15
  Q 830.98 479.15 737.17 479.18
  A 0.75 0.75 0.0 0 0 736.43 479.93
  L 736.43 637.60
  A 0.35 0.35 0.0 0 0 736.91 637.93
  Z"
/>
<path fill="#c4a577" d="
  M 578.66 890.91
  L 578.66 903.74
  A 0.88 0.88 0.0 0 1 577.86 904.62
  Q 566.32 905.69 552.50 907.73
  Q 526.70 911.54 505.70 920.20
  C 496.71 923.92 486.09 929.48 481.84 938.45
  C 476.53 949.65 488.05 958.27 496.72 962.28
  C 501.68 964.57 508.89 967.72 515.16 969.59
  Q 531.92 974.57 542.00 976.24
  C 553.01 978.06 568.70 980.46 583.00 981.45
  Q 635.70 985.12 686.71 979.70
  C 708.15 977.42 729.20 973.03 749.33 964.83
  Q 759.22 960.80 766.15 954.43
  Q 773.91 947.28 769.79 937.57
  Q 768.58 934.72 763.60 930.69
  C 755.92 924.47 746.74 920.39 737.76 917.24
  C 717.37 910.08 695.08 906.25 674.00 904.48
  A 0.45 0.45 0.0 0 1 673.58 904.03
  L 673.58 890.94
  A 0.78 0.77 -88.0 0 1 674.41 890.16
  Q 713.91 892.85 750.66 903.79
  Q 757.78 905.91 762.47 907.91
  C 767.16 909.90 772.45 911.59 777.73 914.36
  Q 785.43 918.41 794.01 925.24
  C 806.18 934.93 810.32 948.65 800.07 961.59
  Q 797.92 964.30 793.10 968.11
  Q 782.68 976.37 768.72 981.79
  Q 743.11 991.74 716.76 996.30
  Q 676.77 1003.22 640.50 1003.81
  Q 610.54 1004.29 583.50 1002.43
  Q 560.84 1000.87 534.30 996.19
  Q 509.90 991.89 484.20 982.36
  Q 468.53 976.55 456.10 966.43
  C 447.79 959.66 442.78 948.77 447.15 938.44
  C 450.89 929.58 459.59 922.76 467.68 918.19
  Q 477.97 912.37 483.99 910.00
  C 489.54 907.81 498.41 904.56 506.39 902.35
  Q 540.99 892.79 577.74 890.05
  A 0.86 0.86 0.0 0 1 578.66 890.91
  Z"
/>
</svg>
