<?xml version="1.0" encoding="UTF-8" standalone="no"?>
<!DOCTYPE svg PUBLIC "-//W3C//DTD SVG 1.1//EN" "http://www.w3.org/Graphics/SVG/1.1/DTD/svg11.dtd">
<svg xmlns="http://www.w3.org/2000/svg" version="1.1" viewBox="0.00 0.00 1881.00 836.00">
<path fill="#c2a478" d="
  M 310.08 159.16
  A 0.64 0.64 0.0 0 1 310.99 158.58
  C 315.25 160.59 319.99 161.84 324.18 163.70
  Q 332.86 167.56 340.54 170.21
  C 347.38 172.57 353.13 175.56 360.71 178.31
  Q 366.66 180.47 375.11 184.05
  Q 382.64 187.23 389.48 189.87
  Q 392.73 191.13 399.24 193.68
  C 408.91 197.48 423.03 203.88 433.59 207.96
  Q 447.25 213.25 450.54 214.70
  C 463.25 220.34 474.90 224.69 487.53 230.35
  A 0.54 0.54 0.0 0 1 487.59 231.30
  Q 487.04 231.64 485.91 232.12
  Q 469.76 239.04 420.79 259.25
  Q 398.25 268.55 340.88 291.61
  Q 336.15 293.51 332.79 294.54
  A 1.16 1.15 -8.6 0 0 331.97 295.64
  L 331.97 658.82
  A 0.74 0.74 0.0 0 1 331.23 659.56
  L 310.78 659.56
  A 0.70 0.70 0.0 0 1 310.08 658.86
  L 310.08 159.16
  Z
  M 433.14 230.71
  A 0.31 0.31 0.0 0 0 433.14 230.14
  L 332.49 190.09
  A 0.31 0.31 0.0 0 0 332.07 190.38
  L 332.07 271.85
  A 0.31 0.31 0.0 0 0 332.50 272.13
  L 433.14 230.71
  Z"
/>
<path fill="#f6f2e9" d="
  M 1090.44 305.91
  A 0.76 0.76 0.0 0 1 1091.20 306.67
  L 1091.20 308.32
  A 0.91 0.91 0.0 0 1 1090.37 309.23
  C 1080.67 309.99 1071.78 315.84 1064.47 322.21
  Q 1046.47 337.89 1033.63 349.53
  A 0.66 0.66 0.0 0 0 1033.56 350.44
  Q 1051.66 372.54 1061.74 384.31
  C 1068.00 391.62 1075.28 400.54 1082.95 409.20
  C 1087.76 414.64 1093.28 417.10 1100.12 418.27
  A 1.26 1.26 0.0 0 1 1101.14 419.75
  Q 1100.85 421.34 1099.50 421.33
  Q 1079.51 421.16 1060.28 421.30
  A 1.00 1.00 0.0 0 1 1059.27 420.30
  L 1059.27 416.72
  A 1.58 1.58 0.0 0 0 1058.93 415.74
  L 1015.35 360.81
  A 0.24 0.24 0.0 0 0 1015.02 360.77
  L 1009.97 364.78
  A 1.10 1.08 73.0 0 0 1009.56 365.57
  Q 1009.27 371.44 1009.40 375.09
  C 1009.70 384.11 1009.29 394.82 1009.46 401.75
  C 1009.59 406.83 1009.91 412.65 1014.09 415.65
  C 1016.41 417.32 1019.83 417.84 1023.12 418.47
  A 1.35 1.30 23.4 0 1 1023.99 420.54
  Q 1023.53 421.16 1021.97 421.16
  Q 983.54 421.19 973.72 421.15
  A 1.22 1.22 0.0 0 1 972.51 419.93
  L 972.51 419.47
  A 0.99 0.99 0.0 0 1 973.35 418.49
  C 983.78 416.94 986.89 411.66 986.92 402.27
  Q 987.12 333.47 987.01 270.02
  Q 987.00 264.31 984.32 259.30
  C 982.40 255.69 977.50 254.30 973.49 253.74
  A 1.41 1.41 0.0 0 1 973.49 250.95
  Q 984.27 249.46 990.18 248.40
  C 996.86 247.20 1003.46 245.15 1008.44 240.26
  A 0.59 0.59 0.0 0 1 1009.44 240.68
  L 1009.44 358.62
  A 0.21 0.21 0.0 0 0 1009.79 358.77
  Q 1028.94 342.23 1050.85 322.10
  C 1052.82 320.28 1056.14 316.61 1055.22 313.63
  C 1054.16 310.19 1049.91 309.76 1046.42 309.22
  A 1.55 1.54 -83.9 0 1 1045.11 307.59
  L 1045.13 307.32
  A 1.52 1.52 0.0 0 1 1046.65 305.91
  L 1090.44 305.91
  Z"
/>
<path fill="#f6f2e9" d="
  M 706.39 291.14
  A 1.38 1.38 0.0 0 1 703.79 291.56
  Q 701.65 287.38 698.48 281.28
  C 691.64 268.06 681.20 257.15 666.00 254.90
  Q 652.00 252.83 640.08 260.03
  Q 628.95 266.76 627.47 280.45
  Q 625.84 295.42 636.74 305.24
  C 640.26 308.41 646.49 312.31 651.45 314.86
  Q 663.88 321.25 676.76 327.27
  Q 683.05 330.20 690.90 334.85
  C 706.46 344.07 716.36 357.72 715.97 376.40
  C 715.54 396.98 702.25 413.60 682.82 420.09
  C 672.85 423.41 663.02 424.14 651.91 423.90
  Q 628.07 423.38 606.46 414.18
  Q 604.32 413.28 604.37 411.36
  Q 604.57 402.94 604.44 379.17
  A 1.09 1.08 -7.5 0 1 605.26 378.11
  Q 606.37 377.82 607.29 378.34
  A 1.55 1.53 4.2 0 1 607.97 379.12
  C 610.28 384.99 614.19 394.07 619.07 399.42
  Q 634.04 415.81 656.99 416.72
  Q 666.53 417.10 674.95 413.29
  C 697.70 402.99 702.64 374.19 680.37 359.75
  Q 674.22 355.76 667.36 352.65
  Q 654.72 346.93 634.73 337.20
  Q 626.43 333.16 619.53 326.37
  Q 603.54 310.64 606.72 287.68
  C 607.79 279.95 611.40 270.27 616.90 264.39
  Q 625.60 255.07 636.87 251.13
  C 659.70 243.14 684.11 248.04 705.52 258.14
  A 0.92 0.91 11.9 0 1 706.04 258.93
  Q 706.18 266.19 706.67 283.75
  Q 706.80 288.33 706.39 291.14
  Z"
/>
<path fill="#f6f2e9" d="
  M 1252.95 349.08
  Q 1252.69 378.88 1252.93 402.77
  C 1253.05 414.20 1259.46 416.65 1269.29 418.22
  A 1.34 1.33 -85.5 0 1 1270.41 419.54
  L 1270.41 419.94
  A 1.24 1.23 -90.0 0 1 1269.18 421.18
  L 1213.66 421.18
  A 1.36 1.35 90.0 0 1 1212.31 419.82
  L 1212.31 419.32
  A 1.12 1.12 0.0 0 1 1213.29 418.21
  Q 1225.33 416.80 1227.46 409.00
  Q 1228.82 404.00 1228.83 399.25
  Q 1228.94 305.40 1228.84 273.78
  C 1228.81 267.20 1227.66 259.51 1221.29 256.00
  Q 1218.56 254.50 1213.39 253.69
  A 1.54 1.54 0.0 0 1 1212.09 252.02
  L 1212.10 251.90
  A 1.56 1.55 2.4 0 1 1213.64 250.49
  Q 1254.00 250.32 1284.99 250.59
  C 1308.92 250.80 1336.45 260.79 1343.19 286.54
  C 1348.56 307.08 1341.68 327.95 1324.31 339.78
  Q 1314.79 346.27 1302.55 349.05
  Q 1287.31 352.51 1267.86 350.88
  C 1263.60 350.53 1258.13 349.35 1253.69 348.48
  A 0.62 0.62 0.0 0 0 1252.95 349.08
  Z
  M 1252.84 259.21
  L 1252.84 338.83
  A 1.08 1.08 0.0 0 0 1253.67 339.88
  C 1265.56 342.82 1277.66 344.40 1289.60 341.35
  C 1312.92 335.40 1321.92 313.88 1318.43 291.49
  Q 1315.95 275.60 1303.54 266.28
  C 1295.95 260.58 1285.67 258.39 1276.49 258.27
  Q 1270.42 258.19 1253.57 258.48
  A 0.74 0.73 -0.4 0 0 1252.84 259.21
  Z"
/>
<ellipse fill="#f6f2e9" cx="0.00" cy="0.00" transform="translate(935.31,266.10) rotate(-1.5)" rx="14.92" ry="14.63"/>
<ellipse fill="#f6f2e9" cx="0.00" cy="0.00" transform="translate(1502.37,266.07) rotate(-4.4)" rx="14.83" ry="14.61"/>
<path fill="#f6f2e9" d="
  M 738.50 313.80
  L 722.86 313.80
  A 0.75 0.75 0.0 0 1 722.21 312.67
  L 726.01 306.09
  A 2.05 2.01 -74.7 0 1 727.76 305.07
  L 737.94 305.07
  A 0.80 0.80 0.0 0 0 738.64 304.66
  C 739.18 303.63 739.29 302.88 739.91 301.87
  Q 750.85 284.08 758.80 270.69
  A 1.85 1.85 0.0 0 1 761.88 270.54
  Q 762.12 270.86 762.10 272.02
  Q 761.90 290.42 761.97 304.12
  A 0.93 0.92 89.7 0 0 762.89 305.04
  L 797.43 305.04
  A 0.81 0.81 0.0 0 1 798.24 305.92
  L 797.64 312.74
  A 1.19 1.19 0.0 0 1 796.45 313.83
  L 762.37 313.83
  A 0.38 0.38 0.0 0 0 761.99 314.21
  Q 761.76 358.79 762.10 390.88
  Q 762.16 396.31 764.06 401.41
  C 767.22 409.84 775.59 412.57 783.80 410.55
  Q 792.54 408.39 798.96 401.94
  A 0.79 0.79 0.0 0 1 800.14 402.01
  L 801.94 404.28
  A 0.72 0.71 43.1 0 1 801.97 405.14
  C 793.19 417.97 777.58 426.04 762.16 423.25
  C 746.66 420.44 739.54 409.50 739.49 394.50
  Q 739.43 378.32 739.39 319.75
  Q 739.38 317.10 739.21 314.46
  A 0.71 0.71 0.0 0 0 738.50 313.80
  Z"
/>
<path fill="#f6f2e9" d="
  M 1673.01 313.81
  A 0.15 0.15 0.0 0 1 1672.87 313.60
  L 1676.17 305.30
  A 0.33 0.33 0.0 0 1 1676.48 305.09
  L 1688.72 305.09
  A 0.70 0.69 10.4 0 0 1689.37 304.65
  C 1689.72 303.78 1689.72 303.22 1690.23 302.41
  Q 1694.34 295.89 1709.56 270.54
  A 1.70 1.69 -29.5 0 1 1712.71 271.41
  L 1712.71 304.39
  A 0.68 0.68 0.0 0 0 1713.39 305.07
  L 1746.46 305.07
  A 0.46 0.46 0.0 0 1 1746.92 305.53
  L 1746.92 313.15
  A 0.65 0.64 90.0 0 1 1746.28 313.80
  L 1713.03 313.80
  A 0.29 0.29 0.0 0 0 1712.74 314.09
  Q 1712.60 363.27 1712.79 391.51
  Q 1712.82 396.15 1714.72 402.05
  C 1717.68 411.24 1728.43 412.66 1736.34 410.06
  Q 1743.17 407.81 1747.48 402.63
  A 0.76 0.75 -44.4 0 1 1748.66 402.64
  L 1750.56 405.04
  A 0.72 0.71 -46.2 0 1 1750.57 405.92
  C 1742.61 416.35 1733.64 422.98 1720.45 423.67
  Q 1714.39 423.99 1709.68 422.55
  C 1695.98 418.36 1690.03 408.01 1689.96 394.00
  Q 1689.78 357.82 1689.94 314.46
  A 0.65 0.65 0.0 0 0 1689.29 313.81
  L 1673.01 313.81
  Z"
/>
<path fill="#f6f2e9" d="
  M 848.88 329.71
  A 0.43 0.43 0.0 0 0 849.69 329.91
  C 853.86 321.97 859.40 314.13 866.49 309.33
  Q 882.36 298.58 898.84 307.92
  A 0.96 0.95 21.2 0 1 899.30 308.95
  L 894.25 331.62
  A 1.79 1.79 0.0 0 1 890.85 331.92
  Q 887.23 323.27 878.13 321.76
  C 860.62 318.84 849.08 335.02 848.93 351.03
  Q 848.69 377.19 848.84 402.99
  Q 848.86 405.96 850.16 409.85
  C 852.23 416.06 857.55 417.61 863.44 418.44
  A 1.09 1.08 -86.1 0 1 864.37 419.52
  L 864.37 420.12
  A 1.05 1.05 0.0 0 1 863.32 421.17
  L 813.35 421.17
  A 0.97 0.97 0.0 0 1 812.38 420.20
  L 812.38 419.31
  A 0.85 0.85 0.0 0 1 813.18 418.46
  Q 814.06 418.41 816.52 417.81
  C 824.02 415.97 826.28 409.91 826.43 403.03
  Q 826.58 396.17 826.53 334.03
  C 826.53 323.58 825.40 315.68 813.46 313.71
  A 1.41 1.41 0.0 0 1 813.43 310.94
  L 847.92 304.44
  A 0.81 0.80 -5.4 0 1 848.88 305.22
  L 848.88 329.71
  Z"
/>
<path fill="#f6f2e9" d="
  M 1202.22 357.79
  A 0.74 0.74 0.0 0 1 1201.48 358.51
  L 1119.59 358.51
  A 0.55 0.55 0.0 0 0 1119.04 359.05
  Q 1118.65 373.43 1124.52 386.17
  C 1130.80 399.78 1143.78 409.13 1158.91 410.13
  Q 1180.59 411.55 1195.31 395.81
  Q 1199.11 391.75 1199.47 391.11
  A 0.53 0.53 0.0 0 1 1200.31 390.94
  L 1202.65 393.11
  A 0.89 0.88 34.5 0 1 1202.85 394.15
  Q 1190.54 419.25 1163.23 423.20
  Q 1151.65 424.87 1139.81 422.37
  C 1120.11 418.21 1105.10 403.95 1099.30 384.87
  C 1088.14 348.15 1108.42 307.35 1149.00 303.76
  C 1162.85 302.53 1176.79 306.31 1186.96 316.04
  C 1198.52 327.09 1202.71 342.26 1202.22 357.79
  Z
  M 1179.09 348.97
  C 1179.46 336.44 1176.08 322.29 1165.09 314.75
  C 1152.74 306.28 1135.70 311.96 1127.92 323.96
  Q 1120.88 334.82 1119.50 349.39
  A 0.60 0.58 -87.3 0 0 1120.08 350.04
  L 1178.00 350.04
  A 1.10 1.09 -89.2 0 0 1179.09 348.97
  Z"
/>
<path fill="#f6f2e9" d="
  M 1389.62 306.34
  C 1416.01 298.71 1446.42 306.08 1460.87 331.34
  Q 1472.45 351.58 1467.89 376.24
  Q 1464.79 392.98 1453.22 405.71
  C 1445.32 414.39 1435.76 419.66 1424.17 422.18
  C 1403.84 426.60 1379.84 422.69 1364.78 407.41
  Q 1345.88 388.26 1347.45 360.93
  C 1348.92 335.38 1365.11 313.43 1389.62 306.34
  Z
  M 1403.26 311.09
  C 1381.60 313.20 1372.15 335.19 1371.28 354.24
  Q 1370.95 361.35 1371.56 367.53
  Q 1372.16 373.71 1373.85 380.62
  C 1378.39 399.15 1391.92 418.89 1413.58 416.77
  C 1435.25 414.66 1444.70 392.67 1445.57 373.62
  Q 1445.90 366.51 1445.29 360.33
  Q 1444.69 354.15 1442.99 347.24
  C 1438.45 328.71 1424.93 308.97 1403.26 311.09
  Z"
/>
<path fill="#f6f2e9" d="
  M 1514.80 303.75
  A 0.26 0.26 0.0 0 1 1515.10 304.01
  Q 1514.97 368.49 1515.06 401.76
  C 1515.09 411.81 1518.35 416.85 1528.45 418.46
  A 1.31 1.31 0.0 0 1 1529.55 419.88
  L 1529.54 419.93
  A 1.37 1.37 0.0 0 1 1528.18 421.17
  Q 1497.07 421.27 1479.73 421.13
  Q 1479.37 421.13 1479.19 421.06
  A 1.30 1.30 0.0 0 1 1479.41 418.59
  Q 1482.27 417.91 1484.91 416.92
  C 1491.01 414.63 1492.61 408.28 1492.65 402.48
  Q 1492.78 379.22 1492.64 329.94
  C 1492.62 324.76 1491.11 318.59 1486.34 315.83
  Q 1484.01 314.48 1479.09 313.59
  A 1.58 1.58 0.0 0 1 1479.08 310.49
  L 1514.80 303.75
  Z"
/>
<path fill="#f6f2e9" d="
  M 1578.06 325.08
  Q 1581.55 321.24 1585.49 317.50
  C 1597.59 305.96 1614.21 300.81 1630.55 305.21
  C 1648.22 309.98 1655.69 324.93 1655.73 342.25
  Q 1655.79 365.95 1655.76 402.50
  Q 1655.76 406.13 1656.86 410.13
  C 1658.59 416.37 1663.88 417.67 1669.47 418.59
  A 0.74 0.73 4.6 0 1 1670.09 419.31
  L 1670.09 420.37
  A 0.76 0.76 0.0 0 1 1669.33 421.13
  Q 1631.10 421.25 1621.59 421.08
  Q 1620.86 421.07 1620.61 420.89
  A 1.27 1.26 55.1 0 1 1621.01 418.64
  Q 1624.26 417.74 1626.70 416.74
  C 1631.87 414.60 1633.49 408.71 1633.51 403.50
  Q 1633.62 354.47 1633.51 346.50
  C 1633.33 334.40 1628.54 322.47 1616.24 319.21
  C 1601.56 315.33 1586.25 322.61 1578.12 335.67
  A 2.97 2.91 -29.5 0 0 1577.67 337.23
  Q 1577.59 368.35 1577.62 401.52
  C 1577.62 411.30 1580.34 416.94 1590.64 418.49
  A 1.21 1.20 -85.9 0 1 1591.67 419.69
  L 1591.67 420.15
  A 1.03 1.02 -0.0 0 1 1590.64 421.17
  L 1542.43 421.17
  A 0.95 0.94 -0.0 0 1 1541.48 420.23
  L 1541.48 419.54
  A 1.05 1.05 0.0 0 1 1542.38 418.50
  C 1552.42 417.06 1555.51 411.54 1555.53 402.06
  Q 1555.61 371.20 1555.49 330.77
  C 1555.47 323.60 1553.18 316.93 1545.76 314.73
  Q 1544.75 314.43 1541.61 313.58
  A 1.46 1.46 0.0 0 1 1541.35 310.87
  Q 1541.85 310.63 1543.23 310.44
  Q 1559.85 308.12 1576.96 304.15
  A 0.61 0.60 83.5 0 1 1577.70 304.74
  L 1577.70 324.94
  A 0.21 0.21 0.0 0 0 1578.06 325.08
  Z"
/>
<path fill="#f6f2e9" d="
  M 947.18 303.91
  A 0.42 0.42 0.0 0 1 947.67 304.32
  Q 947.68 385.41 947.68 401.25
  Q 947.68 405.39 948.64 409.36
  C 950.23 415.90 955.31 417.12 961.30 418.70
  A 1.55 1.47 73.2 0 1 962.00 419.10
  Q 962.23 419.34 962.28 419.49
  A 1.41 1.34 -7.7 0 1 960.90 421.21
  Q 940.19 421.10 914.51 421.27
  Q 912.86 421.28 911.97 421.18
  A 1.30 1.30 0.0 0 1 911.75 418.64
  C 917.45 416.91 922.68 415.92 924.25 409.24
  Q 925.03 405.92 925.10 399.50
  Q 925.27 383.90 925.20 332.77
  Q 925.19 327.21 924.08 322.94
  C 922.38 316.41 917.84 314.74 912.01 313.52
  A 1.52 1.52 0.0 0 1 912.04 310.54
  L 947.18 303.91
  Z"
/>
<path fill="#f6f2e9" d="
  M 277.67 409.66
  A 0.23 0.23 0.0 0 1 277.33 409.86
  L 254.27 396.54
  A 1.98 1.98 0.0 0 1 253.27 394.82
  L 253.27 351.33
  A 0.86 0.86 0.0 0 0 252.41 350.47
  Q 230.05 350.57 186.27 350.50
  Q 183.61 350.49 180.46 352.21
  C 176.19 354.53 175.12 358.32 175.40 363.24
  Q 175.49 364.89 175.51 401.93
  Q 175.52 405.82 177.95 408.96
  Q 179.44 410.88 183.55 413.23
  Q 237.80 444.22 255.70 454.20
  Q 267.80 460.94 270.02 463.85
  Q 273.96 469.01 276.36 475.04
  Q 277.91 478.92 277.65 486.63
  Q 277.61 487.64 277.63 572.79
  C 277.64 587.43 266.26 597.94 251.53 594.92
  A 5.24 4.98 -25.4 0 1 250.40 594.55
  C 223.25 582.24 197.92 571.50 171.59 559.98
  Q 164.58 556.92 160.95 553.63
  Q 151.17 544.77 151.19 530.52
  Q 151.22 506.91 151.20 482.67
  A 0.42 0.41 14.8 0 1 151.82 482.31
  L 175.25 495.84
  A 0.38 0.36 15.8 0 1 175.44 496.16
  Q 175.54 507.14 175.52 525.98
  C 175.52 532.61 179.43 535.57 185.45 538.16
  Q 191.66 540.83 204.23 546.32
  C 220.94 553.61 236.71 560.99 250.58 566.47
  Q 251.44 566.81 251.88 566.81
  A 1.37 1.37 0.0 0 0 253.26 565.45
  Q 253.35 527.90 253.28 493.08
  C 253.27 487.22 251.92 481.61 247.27 478.97
  Q 226.28 467.00 165.99 432.32
  Q 156.09 426.62 152.62 415.83
  Q 151.16 411.26 151.16 403.03
  Q 151.19 361.84 151.27 354.01
  C 151.38 341.66 159.57 331.18 171.07 327.20
  Q 175.22 325.76 186.11 325.77
  Q 263.99 325.84 276.86 325.83
  A 0.81 0.81 0.0 0 1 277.67 326.64
  L 277.67 409.66
  Z"
/>
<path fill="#f6f2e9" d="
  M 370.38 594.87
  A 0.30 0.30 0.0 0 1 369.92 594.62
  L 369.92 326.68
  A 0.87 0.87 0.0 0 1 370.79 325.81
  Q 460.71 325.84 469.02 325.81
  C 483.85 325.74 497.39 337.44 497.75 352.76
  Q 497.85 357.30 497.92 395.89
  Q 497.94 413.17 497.00 416.01
  Q 494.77 422.74 490.43 427.93
  Q 487.90 430.96 479.49 435.81
  C 451.90 451.73 425.49 466.83 396.09 484.01
  A 2.87 2.87 0.0 0 0 394.66 486.49
  L 394.66 578.19
  A 1.72 1.71 -16.8 0 1 393.89 579.62
  L 370.38 594.87
  Z
  M 395.20 455.54
  Q 428.22 436.25 464.99 414.53
  C 470.58 411.23 473.23 408.73 473.60 402.72
  Q 473.73 400.52 473.74 367.26
  C 473.74 363.35 474.13 359.40 473.04 356.96
  Q 470.15 350.48 462.74 350.48
  Q 404.85 350.49 395.45 350.55
  A 0.81 0.81 0.0 0 0 394.64 351.36
  L 394.64 455.22
  A 0.37 0.37 0.0 0 0 395.20 455.54
  Z"
/>
<path fill="#f6f2e9" d="
  M 703.67 497.00
  A 1.69 1.69 0.0 0 1 700.43 497.60
  C 694.43 483.91 687.51 470.27 672.60 464.80
  C 658.97 459.81 638.51 462.63 631.21 477.16
  Q 623.08 493.34 634.24 507.00
  Q 636.42 509.67 642.19 513.34
  Q 648.60 517.42 658.07 521.90
  Q 670.09 527.58 682.03 533.23
  C 692.37 538.12 703.05 545.87 708.36 556.10
  Q 715.59 570.03 711.67 586.14
  C 707.45 603.49 693.42 615.16 676.55 619.24
  C 661.60 622.86 646.00 622.24 630.83 619.48
  Q 618.50 617.23 605.03 611.40
  A 1.01 1.00 -78.5 0 1 604.44 610.50
  Q 604.30 599.06 604.53 579.27
  Q 604.54 578.44 605.22 578.10
  C 606.68 577.40 607.96 578.71 608.47 580.09
  C 614.71 596.97 625.53 608.57 643.39 613.15
  C 653.30 615.70 664.26 615.10 673.76 611.27
  C 681.98 607.95 689.40 600.43 691.19 591.57
  C 695.05 572.41 683.15 563.02 668.15 555.61
  C 658.58 550.89 642.06 544.36 629.93 537.06
  Q 623.65 533.28 618.54 528.08
  C 602.52 511.78 603.67 485.00 619.66 469.40
  C 626.54 462.70 635.61 458.50 645.99 456.52
  C 665.09 452.88 685.10 456.84 702.58 465.04
  A 0.92 0.91 11.9 0 1 703.10 465.83
  C 703.44 476.56 704.18 487.01 703.67 497.00
  Z"
/>
<ellipse fill="#f6f2e9" cx="0.00" cy="0.00" transform="translate(749.00,472.08) rotate(-24.1)" rx="14.52" ry="14.27"/>
<path fill="#f6f2e9" d="
  M 760.65 508.38
  A 0.57 0.57 0.0 0 1 761.28 508.92
  Q 761.46 513.02 761.42 515.50
  Q 761.21 527.30 761.35 601.25
  C 761.37 609.95 764.61 615.32 773.73 616.50
  A 1.12 1.12 0.0 0 1 774.70 617.61
  L 774.70 618.19
  A 1.07 1.07 0.0 0 1 773.64 619.26
  Q 748.48 619.54 726.78 619.32
  A 1.13 1.12 1.7 0 1 725.66 618.14
  Q 725.72 616.93 726.92 616.67
  C 734.86 614.92 739.34 611.20 739.37 602.57
  Q 739.50 569.29 739.36 535.50
  C 739.34 529.17 738.21 521.88 731.72 519.25
  Q 730.75 518.85 726.37 517.70
  A 1.29 1.24 -16.9 0 1 725.92 517.47
  Q 725.60 517.19 725.51 516.95
  A 1.40 1.33 -15.3 0 1 726.61 515.13
  C 734.91 513.79 742.21 512.74 750.22 510.79
  Q 759.79 508.47 760.65 508.38
  Z"
/>
<path fill="#f6f2e9" d="
  M 821.81 527.88
  A 0.49 0.49 0.0 0 0 822.70 528.15
  C 831.27 515.44 845.24 507.28 861.02 508.57
  Q 878.40 509.99 886.26 524.73
  Q 887.97 527.93 888.68 529.87
  A 0.30 0.30 0.0 0 0 889.21 529.93
  C 898.99 515.02 913.53 506.68 931.48 508.69
  C 946.10 510.33 955.72 519.84 958.64 533.84
  Q 959.65 538.66 959.63 547.25
  Q 959.55 593.38 959.61 600.67
  C 959.69 610.47 961.93 614.89 971.98 616.42
  A 1.38 1.38 0.0 0 1 973.14 618.01
  L 973.13 618.08
  A 1.59 1.58 -85.1 0 1 971.56 619.41
  Q 933.67 619.33 926.75 619.36
  Q 926.21 619.36 925.93 619.24
  A 1.37 1.36 -40.6 0 1 926.13 616.66
  C 934.37 614.57 937.68 611.61 937.74 602.75
  Q 937.94 571.21 937.70 545.25
  C 937.59 534.20 932.26 524.64 920.46 523.05
  Q 901.80 520.54 891.87 537.36
  Q 890.66 539.41 890.62 542.50
  Q 890.43 556.17 890.64 602.00
  C 890.68 610.87 893.46 615.15 902.37 616.49
  A 1.39 1.39 0.0 0 1 903.55 618.00
  L 903.54 618.05
  A 1.44 1.43 -87.8 0 1 902.11 619.38
  L 857.05 619.37
  A 0.90 0.89 -0.0 0 1 856.15 618.48
  L 856.15 617.44
  A 0.91 0.90 -3.2 0 1 856.96 616.54
  C 865.95 615.47 868.63 610.10 868.64 601.75
  Q 868.67 560.69 868.61 544.76
  Q 868.59 541.48 867.39 536.78
  C 864.33 524.86 851.12 520.50 840.67 523.45
  Q 827.26 527.25 822.04 539.70
  A 2.51 2.36 58.0 0 0 821.85 540.65
  Q 821.75 554.54 821.81 603.24
  C 821.82 611.47 825.95 615.41 833.87 616.56
  A 0.89 0.89 0.0 0 1 834.63 617.44
  L 834.63 618.47
  A 0.87 0.87 0.0 0 1 833.76 619.34
  Q 789.91 619.40 788.76 619.38
  Q 787.43 619.36 787.18 618.78
  A 1.56 1.51 72.2 0 1 788.23 616.65
  C 797.54 614.70 800.23 610.63 800.28 601.50
  Q 800.51 559.29 800.21 533.53
  C 800.15 528.39 798.30 522.41 793.42 519.86
  Q 791.91 519.06 787.38 517.98
  A 1.31 1.31 0.0 0 1 787.08 515.54
  Q 787.55 515.29 788.63 515.12
  Q 806.83 512.28 820.61 508.89
  A 0.97 0.97 0.0 0 1 821.81 509.83
  L 821.81 527.88
  Z"
/>
<path fill="#f6f2e9" d="
  M 983.39 587.75
  A 1.73 1.73 0.0 0 1 986.70 587.04
  C 992.23 599.31 998.73 609.21 1012.20 613.26
  C 1022.79 616.45 1035.96 614.82 1042.17 605.17
  C 1046.98 597.68 1045.05 587.34 1037.42 582.05
  Q 1032.56 578.69 1027.04 576.47
  Q 1018.12 572.89 1009.14 569.11
  C 998.35 564.58 988.32 557.78 986.13 545.51
  C 982.88 527.31 993.06 515.06 1009.67 510.15
  C 1024.76 505.70 1042.03 510.09 1056.09 516.16
  A 0.90 0.90 0.0 0 1 1056.64 516.99
  L 1056.64 538.92
  A 1.48 1.47 32.5 0 1 1053.83 539.54
  Q 1051.85 535.31 1050.93 533.61
  Q 1045.72 523.96 1036.47 518.87
  C 1024.59 512.34 1001.99 514.83 1003.23 532.80
  C 1003.85 541.77 1011.56 545.50 1019.16 548.66
  Q 1023.93 550.64 1040.15 557.67
  C 1051.22 562.47 1060.68 570.51 1062.38 583.11
  Q 1064.37 597.87 1055.44 608.55
  C 1049.50 615.67 1038.16 620.43 1029.21 621.18
  Q 1014.61 622.40 1004.05 619.83
  Q 993.89 617.36 984.19 613.13
  A 1.34 1.33 11.9 0 1 983.39 611.91
  L 983.39 587.75
  Z"
/>
<path fill="#c2a478" d="
  M 288.73 634.17
  Q 269.69 635.30 249.65 640.65
  Q 241.69 642.78 233.53 646.27
  C 229.95 647.80 224.68 650.97 223.23 654.95
  C 220.65 662.03 227.97 665.86 233.22 668.01
  Q 246.89 673.59 262.48 676.04
  Q 281.29 679.01 294.49 680.06
  Q 301.97 680.66 327.75 680.59
  Q 352.09 680.54 377.23 676.39
  Q 389.90 674.29 402.25 669.96
  C 406.50 668.47 411.64 665.65 414.71 662.70
  C 422.01 655.67 410.33 647.82 404.43 645.55
  Q 396.04 642.33 391.02 641.00
  Q 372.01 635.96 354.00 634.36
  A 1.36 1.35 2.5 0 1 352.76 633.01
  L 352.76 626.39
  A 1.05 1.05 0.0 0 1 354.00 625.36
  Q 355.39 625.62 362.76 626.02
  C 368.91 626.36 376.90 628.10 381.80 628.73
  C 391.78 630.01 403.69 633.35 411.04 635.96
  Q 421.61 639.72 431.94 646.02
  Q 433.03 646.69 436.43 650.55
  C 439.35 653.89 441.66 658.74 439.73 663.32
  C 437.22 669.28 433.09 672.79 427.33 675.83
  C 408.27 685.87 384.50 690.45 360.68 692.80
  C 326.69 696.15 290.03 695.48 255.42 689.46
  Q 248.05 688.18 241.07 686.33
  C 229.73 683.34 219.37 680.29 210.98 675.51
  C 203.69 671.37 194.45 663.14 199.95 653.68
  Q 203.34 647.85 210.46 643.96
  Q 218.79 639.41 222.89 637.93
  Q 226.96 636.46 238.81 633.05
  C 245.74 631.05 251.25 630.42 259.75 628.69
  C 269.45 626.70 278.24 626.31 288.68 625.51
  A 0.81 0.80 -2.3 0 1 289.55 626.31
  L 289.55 633.30
  A 0.87 0.87 0.0 0 1 288.73 634.17
  Z"
/>
</svg>
